<?xml version="1.0" encoding="UTF-8" standalone="no"?>
<svg
   viewBox="0 0 14.006644 14.006644"
   xml:space="preserve"
   version="1.1"
   id="svg255"
   sodipodi:docname="edit-copy.svg"
   width="14.006644"
   height="14.006644"
   inkscape:version="1.2.1 (9c6d41e410, 2022-07-14)"
   xmlns:inkscape="http://www.inkscape.org/namespaces/inkscape"
   xmlns:sodipodi="http://sodipodi.sourceforge.net/DTD/sodipodi-0.dtd"
   xmlns="http://www.w3.org/2000/svg"
   xmlns:svg="http://www.w3.org/2000/svg"><defs
   id="defs259" /><sodipodi:namedview
   id="namedview257"
   pagecolor="#ffffff"
   bordercolor="#666666"
   borderopacity="1.0"
   inkscape:showpageshadow="2"
   inkscape:pageopacity="0.0"
   inkscape:pagecheckerboard="0"
   inkscape:deskcolor="#d1d1d1"
   showgrid="false"
   inkscape:zoom="47.2"
   inkscape:cx="8.9512712"
   inkscape:cy="7.4788136"
   inkscape:current-layer="svg255" />
    <g
   fill="#ffffff"
   id="g253"
   transform="translate(-2.9973559,-2.996)"
   style="fill:#ffffff;fill-opacity:1">
        <path
   d="m -156.484,137 a 0.5,0.5 0 0 0 -0.5,0.5 v 0.5 h -1.5 a 0.5,0.5 0 0 0 -0.516,0.5 v 0.5 h 6 v -0.5 c 0,-0.253 -0.15,-0.495 -0.484,-0.5 h -1.5 v -0.5 a 0.5,0.5 0 0 0 -0.5,-0.5 z m 3.484,2 0.016,0.5 v 0.5 h -6 v -0.5 L -159,139 h -1.484 a 0.5,0.5 0 0 0 -0.5,0.5 v 3.5 h 2.308 a 1.5,1.5 0 0 1 0.162,-0.014 1.5,1.5 0 0 1 1.53,1.698 V 149 h 5.5 a 0.5,0.5 0 0 0 0.5,-0.5 v -9 a 0.5,0.5 0 0 0 -0.5,-0.5 z"
   fill="#ffffff"
   transform="translate(167.988,-134.004)"
   id="path247"
   style="fill:#ffffff;fill-opacity:0.4973262" />
        <g
   fill="#ffffff"
   id="g251"
   style="fill:#ffffff;fill-opacity:1">
            <path
   fill="#ffffff"
   d="m -158.494,143.996 a 0.5,0.5 0 0 0 -0.05,0.004 h -3.94 a 0.5,0.5 0 1 0 0,1 h 2.793 l -5.147,5.147 a 0.5,0.5 0 1 0 0.707,0.707 l 5.147,-5.147 v 2.793 a 0.5,0.5 0 1 0 1,0 v -3.943 a 0.5,0.5 0 0 0 -0.51,-0.56 z"
   transform="translate(167.988,-134.004)"
   id="path249"
   style="fill:#ffffff;fill-opacity:1" />
        </g>
    </g>
</svg>
