<?xml version="1.0" encoding="UTF-8" standalone="no"?>
<!-- Created with Inkscape (http://www.inkscape.org/) -->

<svg
   width="11.0682mm"
   height="12.459253mm"
   viewBox="0 0 11.0682 12.459254"
   version="1.1"
   id="svg5"
   xml:space="preserve"
   inkscape:version="1.2.1 (9c6d41e410, 2022-07-14)"
   sodipodi:docname="gimp-tool-measure.svg"
   xmlns:inkscape="http://www.inkscape.org/namespaces/inkscape"
   xmlns:sodipodi="http://sodipodi.sourceforge.net/DTD/sodipodi-0.dtd"
   xmlns="http://www.w3.org/2000/svg"
   xmlns:svg="http://www.w3.org/2000/svg"><sodipodi:namedview
     id="namedview7"
     pagecolor="#ffffff"
     bordercolor="#666666"
     borderopacity="1.0"
     inkscape:showpageshadow="2"
     inkscape:pageopacity="0.0"
     inkscape:pagecheckerboard="0"
     inkscape:deskcolor="#d1d1d1"
     inkscape:document-units="mm"
     showgrid="false"
     inkscape:zoom="0.84096521"
     inkscape:cx="234.25464"
     inkscape:cy="206.31056"
     inkscape:current-layer="layer1" /><defs
     id="defs2"><rect
       x="34.894348"
       y="60.960003"
       width="65.374352"
       height="40.990349"
       id="rect36501" /></defs><g
     inkscape:label="Layer 1"
     inkscape:groupmode="layer"
     id="layer1"
     style="display:inline"
     transform="translate(-81.349686,-53.7707)"><path
       style="fill:#c47f77;fill-opacity:1;stroke:none;stroke-width:0.264583px;stroke-linecap:butt;stroke-linejoin:miter;stroke-opacity:1"
       d="m 84.739248,59.011516 v 4.896252 h 4.951872 c 0,0 0.246026,-1.82225 -1.438824,-3.463191 -1.752878,-1.707197 -3.513048,-1.433061 -3.513048,-1.433061 z"
       id="path25921"
       sodipodi:nodetypes="cccsc" /><path
       style="fill:none;stroke:#c47f77;stroke-width:0.465;stroke-linecap:butt;stroke-linejoin:miter;stroke-dasharray:none;stroke-opacity:1"
       d="m 84.680259,58.271453 c 0,0 0.307087,0.01737 0.529681,0.01737 2.102461,0 5.185289,1.590968 5.185289,5.638611"
       id="path25923"
       sodipodi:nodetypes="csc" /><path
       style="fill:#ffffff;fill-opacity:1;stroke:none;stroke-width:0.264583px;stroke-linecap:butt;stroke-linejoin:miter;stroke-opacity:1"
       d="m 81.4161,53.7707 3.0282,0.0046 0.0012,0.7194 c 0,0 -1.640776,-0.06912 -1.6431,0.0925 -0.0023,0.16162 1.66155,0.142561 1.66155,0.142561 l -0.0049,0.575157 c 0,0 -1.388022,-0.01439 -1.381339,0.127882 0.0067,0.142273 1.361643,0.147468 1.361643,0.147468 l 0.005,0.540664 c 0,0 -1.35978,-0.02318 -1.356795,0.108168 0.003,0.131354 1.346927,0.137632 1.346927,0.137632 l 0.0049,0.521173 c 0,0 -1.325698,-0.08209 -1.332143,0.06879 -0.0064,0.150889 1.332143,0.157273 1.332143,0.157273 l 0.005,0.619427 c 0,0 -1.400805,-0.06034 -1.3961,0.0787 0.0047,0.139037 1.3764,0.1376 1.3764,0.1376 l 0.0295,0.5113 c 0,0 -1.404499,0.02184 -1.3961,0.1474 0.0084,0.125563 1.380069,0.119691 1.380069,0.119691 l 4.35e-4,0.588209 c 0,0 -1.667394,-0.03958 -1.670143,0.123982 C 82.765661,59.603849 84.464,59.5523 84.464,59.5523 l 0.01506,0.500965 c 0,0 -1.477703,0.03121 -1.484165,0.150783 -0.0065,0.119575 1.459204,0.134752 1.459204,0.134752 l 0.0098,0.4916 c 0,0 -1.41608,-0.01178 -1.4354,0.118 -0.01932,0.129782 1.4453,0.152574 1.4453,0.152574 l 0.01622,0.541957 c 0,0 -1.443638,-0.03134 -1.451717,0.111669 -0.0081,0.143014 1.425595,0.147477 1.425595,0.147477 l 0.0098,0.540814 c 0,0 -1.418362,-0.05734 -1.425632,0.117909 -0.0073,0.175253 1.4441,0.1648 1.4441,0.1648 l 0.0012,0.5096 c 0,0 -1.444766,-0.01878 -1.445232,0.131827 C 83.047703,63.517634 84.5155,63.544 84.5155,63.544 l -0.0081,0.5045 c 0,0 -1.713732,-0.0033 -1.723,0.1439 -0.0093,0.147179 1.6894,0.0792 1.6894,0.0792 0,0 -0.103971,1.3711 0.059,1.3764 0.162971,0.0053 0.0902,-1.3671 0.0902,-1.3671 l 0.661539,0.0017 c 0,0 -0.05322,1.063634 0.07416,1.080344 0.127385,0.01671 0.08198,-1.085604 0.08198,-1.085604 l 0.591156,-0.0057 c 0,0 0.01267,1.106368 0.123261,1.111 0.110594,0.0046 0.0589,-1.1405 0.0589,-1.1405 l 0.646587,0.01149 c 0,0 -0.08687,1.132471 0.06131,1.138809 0.148188,0.0063 0.118,-1.1307 0.118,-1.1307 l 0.6194,0.0197 c 0,0 -0.07354,1.1018 0.0688,1.111 0.142342,0.0092 0.134852,-1.143348 0.134852,-1.143348 l 0.561557,0.0074 c 0,0 -0.04017,1.093693 0.09019,1.086761 0.130356,-0.0069 0.1376,-1.092456 0.1376,-1.092456 l 0.5703,-0.0041 c 0,0 -0.05464,1.383763 0.0786,1.391561 0.133242,0.0078 0.138135,-1.390404 0.138135,-1.390404 l 0.545526,0.0028 c 0,0 -0.02387,1.143292 0.09304,1.161356 0.116909,0.01806 0.124952,-1.189165 0.124952,-1.189165 l 0.625196,0.0012 c 0,0 -0.03219,1.190609 0.08555,1.197809 0.117744,0.0072 0.09714,-1.183369 0.09714,-1.183369 l 0.603804,0.0041 c 0,0 -0.0245,1.139417 0.1082,1.137117 0.132696,-0.0023 0.07049,-1.148608 0.07049,-1.148608 l 0.624661,0.02086 -0.0142,1.978 h -11.054 l 0.0417,-0.9594 0.8621,-0.0139 0.0209,-10.6924 -0.8551,-0.0139 -0.0032,-0.7796"
       id="path26156"
       sodipodi:nodetypes="ccczcczcczcczcczcczcczcczcczcczcczcczcczczcczcczcczcczcczcczcczcczcczccccccccc" /><text
       xml:space="preserve"
       transform="matrix(0.26458333,0,0,0.26458333,136.15269,48.132704)"
       id="text36499"
       style="font-size:40px;line-height:1.25;font-family:'Blender Mono I18n';-inkscape-font-specification:'Blender Mono I18n';white-space:pre;shape-inside:url(#rect36501);display:inline" /></g></svg>
