<?xml version="1.0" encoding="UTF-8" standalone="no"?>
<svg
   viewBox="0 0 13.973912 13.958139"
   xml:space="preserve"
   version="1.1"
   id="svg1102"
   sodipodi:docname="gimp-gegl.svg"
   width="13.973912"
   height="13.958139"
   inkscape:version="1.1.1 (3bf5ae0d25, 2021-09-20)"
   xmlns:inkscape="http://www.inkscape.org/namespaces/inkscape"
   xmlns:sodipodi="http://sodipodi.sourceforge.net/DTD/sodipodi-0.dtd"
   xmlns="http://www.w3.org/2000/svg"
   xmlns:svg="http://www.w3.org/2000/svg"><defs
   id="defs1106" /><sodipodi:namedview
   id="namedview1104"
   pagecolor="#ffffff"
   bordercolor="#666666"
   borderopacity="1.0"
   inkscape:pageshadow="2"
   inkscape:pageopacity="0.0"
   inkscape:pagecheckerboard="0"
   showgrid="false"
   inkscape:zoom="35.95"
   inkscape:cx="6.9819193"
   inkscape:cy="6.9680111"
   inkscape:window-width="1920"
   inkscape:window-height="1017"
   inkscape:window-x="-8"
   inkscape:window-y="-8"
   inkscape:window-maximized="1"
   inkscape:current-layer="svg1102" />
    <path
   fill="#ffffff"
   d="m 9.4657674,6.3322277e-5 -0.969,0.01599999772 a 0.616,0.616 0 0 0 -0.057,0.004 c -2.582,0.33 -4.58,2.59999998 -4.45,5.21499998 0.028,0.585 0.231,1.098 0.44,1.596 L 0.64476742,10.616063 c -0.337,0.307 -0.6,0.729 -0.64,1.23 -0.04,0.501 0.172,1.04 0.625,1.492 0.45299998,0.454 0.99599998,0.659 1.49199998,0.614 0.496,-0.045 0.906,-0.304 1.215,-0.614 l 3.807,-3.8059997 c 0.527,0.225 1.069,0.433 1.693,0.45 a 5.005,5.005 0 0 0 5.1149996,-4.503 l 0.022,-0.967 a 0.5,0.5 0 0 0 -0.854,-0.365 l -2.844,2.838 H 8.6897674 l -1.707,-1.707 v -1.586 l 2.844,-2.83799998 a 0.5,0.5 0 0 0 -0.361,-0.853999997723 z"
   id="path1100"
   style="fill:#6287d1;fill-opacity:1" />
</svg>
