<?xml version="1.0" encoding="UTF-8" standalone="no"?>
<svg
   viewBox="0 0 14.000778 14.000278"
   xml:space="preserve"
   version="1.1"
   id="svg2153"
   sodipodi:docname="unpinned.svg"
   width="14.000778"
   height="14.000278"
   inkscape:version="1.1.1 (3bf5ae0d25, 2021-09-20)"
   xmlns:inkscape="http://www.inkscape.org/namespaces/inkscape"
   xmlns:sodipodi="http://sodipodi.sourceforge.net/DTD/sodipodi-0.dtd"
   xmlns="http://www.w3.org/2000/svg"
   xmlns:svg="http://www.w3.org/2000/svg"><defs
   id="defs2157" /><sodipodi:namedview
   id="namedview2155"
   pagecolor="#ffffff"
   bordercolor="#666666"
   borderopacity="1.0"
   inkscape:pageshadow="2"
   inkscape:pageopacity="0.0"
   inkscape:pagecheckerboard="0"
   showgrid="false"
   inkscape:zoom="35.95"
   inkscape:cx="6.9819193"
   inkscape:cy="6.9958275"
   inkscape:window-width="1920"
   inkscape:window-height="1017"
   inkscape:window-x="-8"
   inkscape:window-y="-8"
   inkscape:window-maximized="1"
   inkscape:current-layer="svg2153" />
    <g
   fill="#ffffff"
   id="g2151"
   style="fill:#e5e5e5;fill-opacity:1"
   transform="translate(-3.0032218,-2.996)">
        <path
   fill="#ffffff"
   d="m 351.506,598.994 a 0.5,0.5 0 0 0 -0.5,0.5 v 0.793 l -2.707,2.707 h -2.793 a 0.5,0.5 0 0 0 -0.354,0.147 l -1,1 a 0.5,0.5 0 0 0 0,0.707 l 6,6 a 0.5,0.5 0 0 0 0.707,0 l 1,-1 a 0.5,0.5 0 0 0 0.147,-0.354 v -2.793 l 2.707,-2.707 h 0.793 a 0.5,0.5 0 0 0 0.5,-0.5 v -1 a 0.5,0.5 0 0 0 -0.147,-0.353 l -3,-3 a 0.5,0.5 0 0 0 -0.353,-0.147 z m 0.5,1 h 0.293 l 2.707,2.707 v 0.293 h -0.5 a 0.5,0.5 0 0 0 -0.354,0.147 l -3,3 a 0.5,0.5 0 0 0 -0.146,0.353 v 2.793 l -0.5,0.5 -5.293,-5.293 0.5,-0.5 h 2.793 a 0.5,0.5 0 0 0 0.353,-0.146 l 3,-3 a 0.5,0.5 0 0 0 0.147,-0.354 z m -5.76,8.246 a 0.5,0.5 0 0 0 -0.344,0.15 l -3.75,3.75 a 0.50027817,0.50027817 0 1 0 0.707,0.708 l 3.75,-3.75 a 0.5,0.5 0 0 0 -0.363,-0.858 z"
   transform="translate(-339.002,-595.998)"
   id="path2149"
   style="fill:#e5e5e5;fill-opacity:1" />
    </g>
</svg>
