<?xml version="1.0" encoding="UTF-8" standalone="no"?>
<svg
   viewBox="0 0 12 13.984161"
   xml:space="preserve"
   version="1.1"
   id="svg8651"
   sodipodi:docname="gimp-floating-selection.svg"
   width="12"
   height="13.984161"
   inkscape:version="1.2.1 (9c6d41e410, 2022-07-14)"
   xmlns:inkscape="http://www.inkscape.org/namespaces/inkscape"
   xmlns:sodipodi="http://sodipodi.sourceforge.net/DTD/sodipodi-0.dtd"
   xmlns="http://www.w3.org/2000/svg"
   xmlns:svg="http://www.w3.org/2000/svg"><defs
   id="defs8655" /><sodipodi:namedview
   id="namedview8653"
   pagecolor="#ffffff"
   bordercolor="#666666"
   borderopacity="1.0"
   inkscape:showpageshadow="2"
   inkscape:pageopacity="0.0"
   inkscape:pagecheckerboard="0"
   inkscape:deskcolor="#d1d1d1"
   showgrid="false"
   inkscape:zoom="33.37544"
   inkscape:cx="7.9849135"
   inkscape:cy="10.57664"
   inkscape:current-layer="g8649" />
    <g
   fill="#ffffff"
   id="g8649"
   transform="translate(-4,-3)">
        <path
   fill="#ffffff"
   d="m 280.5,284 a 0.5,0.5 0 0 0 -0.5,0.5 v 8 a 0.5,0.5 0 0 0 0.5,0.5 h 0.5 a 0.5,0.5 0 0 0 0.283,-0.088 l 10.5,-7.25 A 0.5,0.5 0 0 0 292,285.25 v -0.75 a 0.5,0.5 0 0 0 -0.5,-0.5 z m 0.5,1 h 9.982 L 281,291.893 v -6.643 z"
   transform="translate(-276,-281)"
   id="path8645"
   style="fill:#bc804f;fill-opacity:1" />
        
    <path
   style="fill:none;stroke:#ffffff;stroke-width:0.5;stroke-linecap:butt;stroke-linejoin:miter;stroke-dasharray:0.5, 0.5;stroke-dashoffset:0;stroke-opacity:1"
   d="m 9.261796,11.445542 h 6.336995 v 1.183505 L 4.43789,16.628994 v -2.501839"
   id="path11315"
   sodipodi:nodetypes="ccccc" /></g>
</svg>
