<?xml version="1.0" encoding="UTF-8" standalone="no"?>
<svg
   viewBox="0 0 15 14"
   xml:space="preserve"
   version="1.1"
   id="svg9365"
   sodipodi:docname="gimp-symmetry.svg"
   width="15"
   height="14"
   inkscape:version="1.2.1 (9c6d41e410, 2022-07-14)"
   xmlns:inkscape="http://www.inkscape.org/namespaces/inkscape"
   xmlns:sodipodi="http://sodipodi.sourceforge.net/DTD/sodipodi-0.dtd"
   xmlns="http://www.w3.org/2000/svg"
   xmlns:svg="http://www.w3.org/2000/svg"><defs
   id="defs9369" /><sodipodi:namedview
   id="namedview9367"
   pagecolor="#ffffff"
   bordercolor="#666666"
   borderopacity="1.0"
   inkscape:showpageshadow="2"
   inkscape:pageopacity="0.0"
   inkscape:pagecheckerboard="0"
   inkscape:deskcolor="#d1d1d1"
   showgrid="false"
   inkscape:zoom="23.6"
   inkscape:cx="8.3262712"
   inkscape:cy="12.542373"
   inkscape:current-layer="svg9365" />
    <g
   fill="#ffffff"
   id="g9363"
   transform="translate(-2.5,-3)">
        <path
   fill="#ffffff"
   d="m 427.5,348 a 2.508,2.508 0 0 0 -2.5,2.5 c 0,1.18 0.69,1.86 1.133,2.34 0.592,0.641 1.204,1.217 1.66,1.66 l -0.897,0.896 c -0.912,0.913 -1.156,2.325 -0.562,3.354 a 2.504,2.504 0 0 0 2.812,1.164 2.504,2.504 0 0 0 1.854,-2.414 0.5,0.5 0 1 0 -1,0 c 0,0.681 -0.453,1.273 -1.111,1.45 a 1.496,1.496 0 0 1 -1.688,-0.7 c -0.311,-0.539 -0.185,-1.559 0.403,-2.146 l 1.25,-1.25 a 0.5,0.5 0 0 0 0,-0.708 c -0.432,-0.431 -1.308,-1.25 -1.987,-1.986 -0.48,-0.52 -0.867,-0.84 -0.867,-1.66 0,-0.834 0.666,-1.5 1.5,-1.5 1.167,0 2.029,1.236 2.646,1.854 a 0.5006316,0.5006316 0 1 0 0.708,-0.708 C 430.471,349.764 429.334,348 427.5,348 Z"
   transform="translate(-422.5,-344)"
   id="path9359" />
        <path
   fill="#ffffff"
   d="m 437.5,348 c -1.833,0 -2.971,1.764 -3.354,2.146 a 0.5006316,0.5006316 0 1 0 0.708,0.708 c 0.617,-0.618 1.48,-1.854 2.646,-1.854 0.834,0 1.5,0.666 1.5,1.5 0,0.82 -0.387,1.14 -0.867,1.66 -0.679,0.735 -1.555,1.555 -1.987,1.986 a 0.5,0.5 0 0 0 0,0.708 l 1.25,1.25 c 0.588,0.587 0.714,1.607 0.403,2.146 -0.34,0.59 -1.03,0.876 -1.688,0.7 A 1.496,1.496 0 0 1 435,357.5 a 0.5,0.5 0 1 0 -1,0 c 0,1.13 0.763,2.122 1.854,2.414 a 2.504,2.504 0 0 0 2.812,-1.164 c 0.594,-1.029 0.35,-2.441 -0.562,-3.354 l -0.897,-0.896 c 0.456,-0.443 1.068,-1.019 1.66,-1.66 0.443,-0.48 1.133,-1.16 1.133,-2.34 0,-1.375 -1.125,-2.5 -2.5,-2.5 z m -4.5,4 v -2 h -1 v 2 z m 0,-3 v -2 h -1 v 2 z m 0,12 v -2 h -1 v 2 z m 0,-3 v -2 h -1 v 2 z m 0,-3 v -2 h -1 v 2 z"
   transform="translate(-422.5,-344)"
   id="path9361" />
    </g>
</svg>
