<?xml version="1.0" encoding="UTF-8" standalone="no"?>
<svg
   viewBox="0 0 14 13"
   xml:space="preserve"
   version="1.1"
   id="svg3497"
   sodipodi:docname="outliner_collection_empty.svg"
   width="14"
   height="13"
   inkscape:version="1.1.1 (3bf5ae0d25, 2021-09-20)"
   xmlns:inkscape="http://www.inkscape.org/namespaces/inkscape"
   xmlns:sodipodi="http://sodipodi.sourceforge.net/DTD/sodipodi-0.dtd"
   xmlns="http://www.w3.org/2000/svg"
   xmlns:svg="http://www.w3.org/2000/svg"><defs
   id="defs3501" /><sodipodi:namedview
   id="namedview3499"
   pagecolor="#ffffff"
   bordercolor="#666666"
   borderopacity="1.0"
   inkscape:pageshadow="2"
   inkscape:pageopacity="0.0"
   inkscape:pagecheckerboard="0"
   showgrid="false"
   inkscape:zoom="35.95"
   inkscape:cx="6.9819193"
   inkscape:cy="6.4951321"
   inkscape:window-width="1920"
   inkscape:window-height="1017"
   inkscape:window-x="-8"
   inkscape:window-y="-8"
   inkscape:window-maximized="1"
   inkscape:current-layer="svg3497" />
    <g
   fill="#ffffff"
   id="g3495"
   style="fill:#e5e5e5;fill-opacity:1"
   transform="translate(-3,-3.5)">
        <path
   transform="translate(-1452,-529.5)"
   fill="#ffffff"
   d="m 1456,538 v 7.5 a 0.5,0.5 0 0 0 0.5,0.5 h 11 a 0.5,0.5 0 0 0 0.5,-0.5 V 538 Z m 5,1 h 2 a 1,1 0 1 1 0,2 h -2 a 1,1 0 1 1 0,-2 z m -5.5,-6 a 0.5,0.5 0 0 0 -0.5,0.5 v 3 a 0.5,0.5 0 0 0 0.5,0.5 h 13 a 0.5,0.5 0 0 0 0.5,-0.5 v -3 a 0.5,0.5 0 0 0 -0.5,-0.5 z"
   id="path3493"
   style="fill:#e5e5e5;fill-opacity:1" />
    </g>
</svg>
