<?xml version="1.0" encoding="UTF-8" standalone="no"?>
<svg
   viewBox="0 0 14 14"
   xml:space="preserve"
   version="1.1"
   id="svg7778"
   sodipodi:docname="gimp-pattern.svg"
   width="14"
   height="14"
   inkscape:version="1.2.1 (9c6d41e410, 2022-07-14)"
   xmlns:inkscape="http://www.inkscape.org/namespaces/inkscape"
   xmlns:sodipodi="http://sodipodi.sourceforge.net/DTD/sodipodi-0.dtd"
   xmlns="http://www.w3.org/2000/svg"
   xmlns:svg="http://www.w3.org/2000/svg"><defs
   id="defs7782" /><sodipodi:namedview
   id="namedview7780"
   pagecolor="#ffffff"
   bordercolor="#666666"
   borderopacity="1.0"
   inkscape:showpageshadow="2"
   inkscape:pageopacity="0.0"
   inkscape:pagecheckerboard="0"
   inkscape:deskcolor="#d1d1d1"
   showgrid="false"
   inkscape:zoom="23.6"
   inkscape:cx="7.9025424"
   inkscape:cy="13.050847"
   inkscape:current-layer="svg7778" />
    <g
   fill="#ffffff"
   id="g7776"
   transform="translate(-3,-3)"
   style="fill:#a7575f;fill-opacity:1">
        <path
   fill="#ffffff"
   d="m 49,558 v 3 h 3 v -3 z m 3,3 v 3 h 3 v -3 z m 3,0 h 3 v -3 h -3 z m 3,0 v 3 h 3 v -3 z m 0,3 h -3 v 3 h 3 z m 0,3 v 3 h 3 v -3 z m -3,0 h -3 v 3 h 3 z m -3,0 v -3 h -3 v 3 z"
   transform="translate(-45,-554)"
   id="path7772"
   style="fill:#a7575f;fill-opacity:1" />
        <path
   fill="#ffffff"
   d="m 48.5,557 a 0.5,0.5 0 0 0 -0.5,0.5 v 13 a 0.5,0.5 0 0 0 0.5,0.5 h 13 a 0.5,0.5 0 0 0 0.5,-0.5 v -13 A 0.5,0.5 0 0 0 61.5,557 Z m 0.5,1 h 12 v 12 H 49 Z"
   transform="translate(-45,-554)"
   id="path7774"
   style="fill:#a7575f;fill-opacity:1" />
    </g>
</svg>
