<?xml version="1.0" encoding="UTF-8" standalone="no"?>
<svg
   viewBox="0 0 14 14"
   xml:space="preserve"
   version="1.1"
   id="svg1798"
   sodipodi:docname="dynamics.svg"
   width="14"
   height="14"
   inkscape:version="1.1.1 (3bf5ae0d25, 2021-09-20)"
   xmlns:inkscape="http://www.inkscape.org/namespaces/inkscape"
   xmlns:sodipodi="http://sodipodi.sourceforge.net/DTD/sodipodi-0.dtd"
   xmlns="http://www.w3.org/2000/svg"
   xmlns:svg="http://www.w3.org/2000/svg"><defs
   id="defs1802" /><sodipodi:namedview
   id="namedview1800"
   pagecolor="#ffffff"
   bordercolor="#666666"
   borderopacity="1.0"
   inkscape:pageshadow="2"
   inkscape:pageopacity="0.0"
   inkscape:pagecheckerboard="0"
   showgrid="false"
   inkscape:zoom="35.95"
   inkscape:cx="6.9819193"
   inkscape:cy="6.9958275"
   inkscape:window-width="1920"
   inkscape:window-height="1017"
   inkscape:window-x="-8"
   inkscape:window-y="-8"
   inkscape:window-maximized="1"
   inkscape:current-layer="svg1798" />
    <g
   fill="#ffffff"
   id="g1796"
   style="fill:#4772b3;fill-opacity:1"
   transform="translate(-3,-3)">
        <path
   fill="#ffffff"
   d="m 469.5,356 a 2.508,2.508 0 0 0 -2.5,2.5 c 0,1.375 1.125,2.5 2.5,2.5 1.375,0 2.5,-1.125 2.5,-2.5 0,-1.375 -1.125,-2.5 -2.5,-2.5 z"
   transform="rotate(90,414,-50)"
   id="path1790"
   style="fill:#4772b3;fill-opacity:1" />
        <g
   fill="#ffffff"
   id="g1794"
   style="fill:#4772b3;fill-opacity:1">
            <path
   fill="#ffffff"
   d="m 218.5,557 c -0.823,0 -1.5,0.677 -1.5,1.5 0,0.647 0.421,1.198 1,1.406 v 4.594 c -0.01,0.676 1.01,0.676 1,0 v -4.594 c 0.579,-0.208 1,-0.76 1,-1.406 0,-0.823 -0.677,-1.5 -1.5,-1.5 z m 9.5,0 c -1.099,0 -2,0.901 -2,2 0,0.369 0.109,0.71 0.285,1.008 l -5.139,5.138 c -0.49,0.472 0.236,1.198 0.708,0.708 l 5.138,-5.14 c 0.298,0.177 0.64,0.286 1.008,0.286 1.099,0 2,-0.901 2,-2 0,-1.099 -0.901,-2 -2,-2 z m 0.5,10 c -0.647,0 -1.198,0.421 -1.406,1 H 222.5 c -0.676,-0.01 -0.676,1.01 0,1 h 4.594 c 0.208,0.579 0.76,1 1.406,1 0.823,0 1.5,-0.677 1.5,-1.5 0,-0.823 -0.677,-1.5 -1.5,-1.5 z"
   transform="matrix(1,0,0,-1,-213,574)"
   id="path1792"
   style="fill:#4772b3;fill-opacity:1" />
        </g>
    </g>
</svg>
