<?xml version="1.0" encoding="UTF-8" standalone="no"?>
<svg
   viewBox="0 0 14 14"
   xml:space="preserve"
   version="1.1"
   id="svg5175"
   sodipodi:docname="gimp-cancel.svg"
   width="14"
   height="14"
   inkscape:version="1.1.1 (3bf5ae0d25, 2021-09-20)"
   xmlns:inkscape="http://www.inkscape.org/namespaces/inkscape"
   xmlns:sodipodi="http://sodipodi.sourceforge.net/DTD/sodipodi-0.dtd"
   xmlns="http://www.w3.org/2000/svg"
   xmlns:svg="http://www.w3.org/2000/svg"><defs
   id="defs5179" /><sodipodi:namedview
   id="namedview5177"
   pagecolor="#ffffff"
   bordercolor="#666666"
   borderopacity="1.0"
   inkscape:pageshadow="2"
   inkscape:pageopacity="0.0"
   inkscape:pagecheckerboard="0"
   showgrid="false"
   inkscape:zoom="35.95"
   inkscape:cx="6.9819193"
   inkscape:cy="6.9958275"
   inkscape:window-width="1920"
   inkscape:window-height="1017"
   inkscape:window-x="-8"
   inkscape:window-y="-8"
   inkscape:window-maximized="1"
   inkscape:current-layer="svg5175" />
    <path
   d="M 7,0 C 3.14,0 0,3.14 0,7 c 0,3.86 3.14,7 7,7 3.86,0 7,-3.14 7,-7 C 14,3.14 10.86,0 7,0 Z m 2.99,2.986 a 1,1 0 0 1 0.717,1.721 L 8.414,7 10.707,9.293 A 1,1 0 1 1 9.293,10.707 L 7,8.414 4.707,10.707 A 1,1 0 1 1 3.293,9.293 L 5.586,7 3.293,4.707 A 1,1 0 0 1 3.99,2.99 1,1 0 0 1 4.707,3.293 L 7,5.586 9.293,3.293 A 1,1 0 0 1 9.99,2.986 Z"
   fill="#ffffff"
   id="path5173"
   style="fill:#bebebe;fill-opacity:1" />
</svg>
