<?xml version="1.0" encoding="UTF-8" standalone="no"?>
<svg
   viewBox="0 0 14.000631 14.000631"
   xml:space="preserve"
   version="1.1"
   id="svg9597"
   sodipodi:docname="gimp-tool-zoom.svg"
   width="14.000631"
   height="14.000631"
   inkscape:version="1.2.1 (9c6d41e410, 2022-07-14)"
   xmlns:inkscape="http://www.inkscape.org/namespaces/inkscape"
   xmlns:sodipodi="http://sodipodi.sourceforge.net/DTD/sodipodi-0.dtd"
   xmlns="http://www.w3.org/2000/svg"
   xmlns:svg="http://www.w3.org/2000/svg"><defs
   id="defs9601" /><sodipodi:namedview
   id="namedview9599"
   pagecolor="#ffffff"
   bordercolor="#666666"
   borderopacity="1.0"
   inkscape:showpageshadow="2"
   inkscape:pageopacity="0.0"
   inkscape:pagecheckerboard="0"
   inkscape:deskcolor="#d1d1d1"
   showgrid="false"
   inkscape:zoom="23.6"
   inkscape:cx="8.5805085"
   inkscape:cy="8.6016949"
   inkscape:current-layer="svg9597" />
    <g
   fill="#ffffff"
   id="g9595"
   style="fill:#ffffff;fill-opacity:1"
   transform="translate(-3.0033684,-2.996)">
        <g
   fill="#ffffff"
   id="g9593"
   style="fill:#ffffff;fill-opacity:1">
            <g
   fill="#ffffff"
   id="g9591"
   style="fill:#ffffff;fill-opacity:1">
                <path
   fill="#ffffff"
   d="m 99,599 c -2.748,0 -5,2.252 -5,5 0,1.194 0.441,2.282 1.148,3.145 l -5.002,5.001 a 0.5006316,0.5006316 0 1 0 0.708,0.708 l 5.001,-5.002 c 0.863,0.707 1.95,1.148 3.145,1.148 2.748,0 5,-2.252 5,-5 0,-2.748 -2.252,-5 -5,-5 z m 0,1 c 2.202,0 4,1.798 4,4 0,2.202 -1.798,4 -4,4 -2.202,0 -4,-1.798 -4,-4 0,-2.202 1.798,-4 4,-4 z"
   transform="translate(-86.996,-596.004)"
   id="path9589"
   style="fill:#ffffff;fill-opacity:1" />
            </g>
        </g>
    </g>
</svg>
