<?xml version="1.0" encoding="UTF-8" standalone="no"?>
<svg
   viewBox="0 0 14 14"
   xml:space="preserve"
   version="1.1"
   id="svg2630"
   sodipodi:docname="gimppreferences.svg"
   width="14"
   height="14"
   inkscape:version="1.1.1 (3bf5ae0d25, 2021-09-20)"
   xmlns:inkscape="http://www.inkscape.org/namespaces/inkscape"
   xmlns:sodipodi="http://sodipodi.sourceforge.net/DTD/sodipodi-0.dtd"
   xmlns="http://www.w3.org/2000/svg"
   xmlns:svg="http://www.w3.org/2000/svg"><defs
   id="defs2634" /><sodipodi:namedview
   id="namedview2632"
   pagecolor="#ffffff"
   bordercolor="#666666"
   borderopacity="1.0"
   inkscape:pageshadow="2"
   inkscape:pageopacity="0.0"
   inkscape:pagecheckerboard="0"
   showgrid="false"
   inkscape:zoom="35.95"
   inkscape:cx="6.9819193"
   inkscape:cy="6.9958275"
   inkscape:window-width="1920"
   inkscape:window-height="1017"
   inkscape:window-x="-8"
   inkscape:window-y="-8"
   inkscape:window-maximized="1"
   inkscape:current-layer="svg2630" />
    <g
   fill="#ffffff"
   id="g2628"
   style="fill:#e5e5e5;fill-opacity:1"
   transform="translate(-3,-3)">
        <path
   fill="#ffffff"
   d="m 285,536 -0.156,1.906 c -0.623,0.143 -1.077,0.252 -1.594,0.594 l -1.75,-1.5 -1.5,1.5 1.5,1.75 c -0.342,0.517 -0.451,0.97 -0.594,1.594 L 279,542 v 2 l 1.906,0.156 c 0.143,0.623 0.252,1.077 0.594,1.594 l -1.5,1.75 1.5,1.5 1.75,-1.5 c 0.517,0.342 0.97,0.451 1.594,0.594 L 285,550 h 2 l 0.156,-1.906 c 0.623,-0.143 1.077,-0.252 1.594,-0.594 l 1.75,1.5 1.5,-1.5 -1.5,-1.75 c 0.342,-0.517 0.451,-0.97 0.594,-1.594 L 293,544 v -2 l -1.906,-0.156 c -0.143,-0.623 -0.252,-1.077 -0.594,-1.594 l 1.5,-1.75 -1.5,-1.5 -1.75,1.5 c -0.517,-0.342 -0.97,-0.451 -1.594,-0.594 L 287,536 h -1 z m 1,5 c 1.116,0 2,0.884 2,2 0,1.116 -0.884,2 -2,2 -1.116,0 -2,-0.884 -2,-2 0,-1.116 0.884,-2 2,-2 z"
   transform="translate(-276,-533)"
   id="path2626"
   style="fill:#e5e5e5;fill-opacity:1" />
    </g>
</svg>
