<?xml version="1.0" encoding="UTF-8" standalone="no"?>
<!-- Created with Inkscape (http://www.inkscape.org/) -->

<svg
   id="svg7384"
   height="12.0001"
   width="12"
   version="1.1"
   sodipodi:docname="zoom-original.svg"
   viewBox="0 0 12 12.0001"
   inkscape:version="1.2.1 (9c6d41e410, 2022-07-14)"
   xmlns:inkscape="http://www.inkscape.org/namespaces/inkscape"
   xmlns:sodipodi="http://sodipodi.sourceforge.net/DTD/sodipodi-0.dtd"
   xmlns="http://www.w3.org/2000/svg"
   xmlns:svg="http://www.w3.org/2000/svg"
   xmlns:rdf="http://www.w3.org/1999/02/22-rdf-syntax-ns#"
   xmlns:cc="http://creativecommons.org/ns#"
   xmlns:dc="http://purl.org/dc/elements/1.1/">
  <defs
     id="defs9" />
  <sodipodi:namedview
     pagecolor="#ffffff"
     bordercolor="#666666"
     borderopacity="1"
     objecttolerance="10"
     gridtolerance="10"
     guidetolerance="10"
     inkscape:pageopacity="0"
     inkscape:pageshadow="2"
     inkscape:window-width="1920"
     inkscape:window-height="1016"
     id="namedview7"
     showgrid="false"
     inkscape:zoom="15.269087"
     inkscape:cx="20.400696"
     inkscape:cy="16.37295"
     inkscape:window-x="0"
     inkscape:window-y="27"
     inkscape:window-maximized="1"
     inkscape:current-layer="layer12"
     inkscape:showpageshadow="2"
     inkscape:pagecheckerboard="0"
     inkscape:deskcolor="#d1d1d1" />
  <metadata
     id="metadata90">
    <rdf:RDF>
      <cc:Work
         rdf:about="">
        <dc:format>image/svg+xml</dc:format>
        <dc:type
           rdf:resource="http://purl.org/dc/dcmitype/StillImage" />
        <dc:title>Gnome Symbolic Icon Theme</dc:title>
      </cc:Work>
    </rdf:RDF>
  </metadata>
  <title
     id="title9167">Gnome Symbolic Icon Theme</title>
  <g
     id="g4241"
     transform="translate(-2.0025,-2)">
    <g
       transform="translate(-221,-667)"
       id="layer12">
      <path
         inkscape:connector-curvature="0"
         d="m 224.19,669 c -0.6627,0 -1.1875,0.54899 -1.1875,1.2188 v 9.5625 c 0,0.66976 0.5248,1.2188 1.1875,1.2188 h 9.625 c 0.6627,0 1.1875,-0.54899 1.1875,-1.2188 v -9.5625 c 0,-0.66976 -0.5248,-1.2188 -1.1875,-1.2188 z m 0.66889,3 h 2 v 6 h -2 v -4 h -1 v -1 c 0.69433,0 1,-0.34772 1,-1 z m 6.79938,0.009 h 2 v 6 h -2 v -4 h -1 v -1 c 0.69433,0 1,-0.34772 1,-1 z m -3.39249,1.20221 h 1.38221 v 1.29515 h -1.38221 z m 0.002,2.29028 h 1.38221 v 1.29515 h -1.38221 z"
         style="color:#bebebe;fill:#bebebe"
         id="rect11749-5-0-1-8-7-8"
         sodipodi:nodetypes="ssssssssscccccccccccccccccccccccccc" />
    </g>
  </g>
</svg>
