<?xml version="1.0" encoding="UTF-8" standalone="no"?>
<svg
   style="clip-rule:evenodd;fill-rule:evenodd;stroke-linejoin:round;stroke-miterlimit:2"
   version="1.1"
   viewBox="0 0 70.938316 66.175323"
   xml:space="preserve"
   id="svg4"
   sodipodi:docname="Blendbur_the_hedgehog.svg"
   width="70.938316"
   height="66.175323"
   inkscape:version="1.3 (0e150ed6c4, 2023-07-21)"
   xmlns:inkscape="http://www.inkscape.org/namespaces/inkscape"
   xmlns:sodipodi="http://sodipodi.sourceforge.net/DTD/sodipodi-0.dtd"
   xmlns:xlink="http://www.w3.org/1999/xlink"
   xmlns="http://www.w3.org/2000/svg"
   xmlns:svg="http://www.w3.org/2000/svg"
   xmlns:rdf="http://www.w3.org/1999/02/22-rdf-syntax-ns#"
   xmlns:cc="http://creativecommons.org/ns#"
   xmlns:dc="http://purl.org/dc/elements/1.1/"><defs
   id="defs4"><linearGradient
     id="linearGradient27"
     inkscape:collect="always"><stop
       style="stop-color:#2c3b54;stop-opacity:0.2416357;"
       offset="0"
       id="stop26" /><stop
       style="stop-color:#2c3b54;stop-opacity:0;"
       offset="1"
       id="stop27" /></linearGradient><linearGradient
     id="linearGradient25"
     inkscape:collect="always"><stop
       style="stop-color:#2c3b54;stop-opacity:0.267658;"
       offset="0"
       id="stop24" /><stop
       style="stop-color:#2c3b54;stop-opacity:0;"
       offset="1"
       id="stop25" /></linearGradient><linearGradient
     id="linearGradient21"
     inkscape:collect="always"><stop
       style="stop-color:#2c3b54;stop-opacity:0.42750931;"
       offset="0"
       id="stop22" /><stop
       style="stop-color:#2c3b54;stop-opacity:0;"
       offset="1"
       id="stop23" /></linearGradient><linearGradient
     id="linearGradient19"
     inkscape:collect="always"><stop
       style="stop-color:#ffffff;stop-opacity:0.63197029;"
       offset="0"
       id="stop20" /><stop
       style="stop-color:#fffefb;stop-opacity:0;"
       offset="1"
       id="stop21" /></linearGradient><linearGradient
     id="linearGradient17"
     inkscape:collect="always"><stop
       style="stop-color:#ffffff;stop-opacity:0.83271378;"
       offset="0"
       id="stop18" /><stop
       style="stop-color:#ffffff;stop-opacity:0;"
       offset="1"
       id="stop19" /></linearGradient><linearGradient
     id="linearGradient15"
     inkscape:collect="always"><stop
       style="stop-color:#ffe1d1;stop-opacity:1;"
       offset="0"
       id="stop16" /><stop
       style="stop-color:#6b3300;stop-opacity:1;"
       offset="1"
       id="stop17" /></linearGradient><linearGradient
     id="linearGradient14"
     inkscape:collect="always"><stop
       style="stop-color:#ffffff;stop-opacity:1;"
       offset="0"
       id="stop14" /><stop
       style="stop-color:#2c3b54;stop-opacity:0;"
       offset="1"
       id="stop15" /></linearGradient><linearGradient
     id="linearGradient11"
     inkscape:collect="always"><stop
       style="stop-color:#86b2ff;stop-opacity:1;"
       offset="0"
       id="stop12" /><stop
       style="stop-color:#d3f2ff;stop-opacity:0;"
       offset="1"
       id="stop13" /></linearGradient><linearGradient
     id="linearGradient10"
     inkscape:collect="always"><stop
       style="stop-color:#85b3ff;stop-opacity:1;"
       offset="0"
       id="stop10" /><stop
       style="stop-color:#2c3b54;stop-opacity:0;"
       offset="1"
       id="stop11" /></linearGradient><linearGradient
     id="linearGradient8"
     inkscape:collect="always"><stop
       style="stop-color:#eac59f;stop-opacity:1;"
       offset="0"
       id="stop8" /><stop
       style="stop-color:#ea7600;stop-opacity:0;"
       offset="1"
       id="stop9" /></linearGradient><linearGradient
     id="linearGradient6"
     inkscape:collect="always"><stop
       style="stop-color:#ffffff;stop-opacity:1;"
       offset="0"
       id="stop6" /><stop
       style="stop-color:#ffffff;stop-opacity:0;"
       offset="1"
       id="stop7" /></linearGradient><radialGradient
     inkscape:collect="always"
     xlink:href="#linearGradient6"
     id="radialGradient7"
     cx="-461.39868"
     cy="412.51495"
     fx="-461.39868"
     fy="412.51495"
     r="121.58326"
     gradientTransform="matrix(-0.22056548,0.9566623,-0.72062795,-0.17656384,-249.56405,976.39976)"
     gradientUnits="userSpaceOnUse" /><radialGradient
     inkscape:collect="always"
     xlink:href="#linearGradient8"
     id="radialGradient9"
     cx="-252.55791"
     cy="-344.25937"
     fx="-252.55791"
     fy="-344.25937"
     r="4.5602088"
     gradientTransform="matrix(-0.46798727,2.1344607,1.5451656,0.36002417,668.38562,321.18597)"
     gradientUnits="userSpaceOnUse" /><clipPath
     clipPathUnits="userSpaceOnUse"
     id="clipPath10"><use
       x="0"
       y="0"
       xlink:href="#g9"
       id="use10" /></clipPath><radialGradient
     inkscape:collect="always"
     xlink:href="#linearGradient10"
     id="radialGradient11"
     cx="-271.82947"
     cy="-332.45386"
     fx="-271.82947"
     fy="-332.45386"
     r="3.4657586"
     gradientTransform="matrix(0.33684653,2.6043169,-0.67820837,0.09322129,-407.44749,408.5241)"
     gradientUnits="userSpaceOnUse" /><radialGradient
     inkscape:collect="always"
     xlink:href="#linearGradient11"
     id="radialGradient13"
     cx="-568.69177"
     cy="436.11664"
     fx="-568.69177"
     fy="436.11664"
     r="42.924335"
     gradientTransform="matrix(-0.42371639,1.6949478,1.1393841,0.3026912,-169.67374,1223.1353)"
     gradientUnits="userSpaceOnUse" /><clipPath
     clipPathUnits="userSpaceOnUse"
     id="clipPath14"><use
       x="0"
       y="0"
       xlink:href="#g13"
       id="use14" /></clipPath><radialGradient
     inkscape:collect="always"
     xlink:href="#linearGradient14"
     id="radialGradient15"
     cx="-241.19084"
     cy="690.92712"
     fx="-241.19084"
     fy="690.92712"
     r="47.532516"
     gradientTransform="matrix(0.48824458,-0.51464478,0.90160495,0.90898763,-746.37404,-61.244685)"
     gradientUnits="userSpaceOnUse" /><radialGradient
     inkscape:collect="always"
     xlink:href="#linearGradient15"
     id="radialGradient17"
     cx="422.63354"
     cy="656.52771"
     fx="422.63354"
     fy="656.52771"
     r="108.32845"
     gradientTransform="matrix(-1.101543,0.70874341,-0.2562293,-0.4232116,969.93093,589.13072)"
     gradientUnits="userSpaceOnUse" /><radialGradient
     inkscape:collect="always"
     xlink:href="#linearGradient17"
     id="radialGradient19"
     cx="-716.91943"
     cy="485.47641"
     fx="-716.91943"
     fy="485.47641"
     r="22.907236"
     gradientTransform="matrix(2.2831449,3.5196249,-1.0079058,0.69481419,1434.6667,2671.0193)"
     gradientUnits="userSpaceOnUse" /><radialGradient
     inkscape:collect="always"
     xlink:href="#linearGradient19"
     id="radialGradient21"
     cx="-573.30481"
     cy="552.58142"
     fx="-573.30481"
     fy="552.58142"
     r="20.652275"
     gradientTransform="matrix(-0.73192631,1.5879412,2.146701,1.0515147,-1081.6153,899.64418)"
     gradientUnits="userSpaceOnUse" /><radialGradient
     inkscape:collect="always"
     xlink:href="#linearGradient25"
     id="radialGradient23"
     cx="-738.03784"
     cy="588.93518"
     fx="-738.03784"
     fy="588.93518"
     r="54.108227"
     gradientTransform="matrix(1.4817575,1.4074881,-0.48647816,0.54426174,620.05747,1298.4788)"
     gradientUnits="userSpaceOnUse" /><clipPath
     clipPathUnits="userSpaceOnUse"
     id="clipPath24"><use
       x="0"
       y="0"
       xlink:href="#g23"
       id="use24" /></clipPath><radialGradient
     inkscape:collect="always"
     xlink:href="#linearGradient21"
     id="radialGradient23-7"
     cx="-738.03784"
     cy="588.93518"
     fx="-738.03784"
     fy="588.93518"
     r="54.108227"
     gradientTransform="matrix(-0.14588731,0.01572712,0.00672688,0.06631244,138.83099,-376.51317)"
     gradientUnits="userSpaceOnUse" /><radialGradient
     inkscape:collect="always"
     xlink:href="#linearGradient27"
     id="radialGradient23-9"
     cx="-738.03784"
     cy="588.93518"
     fx="-738.03784"
     fy="588.93518"
     r="54.108227"
     gradientTransform="matrix(-0.14588731,0.16415288,0.04768887,0.04503997,101.10135,-246.29656)"
     gradientUnits="userSpaceOnUse" /></defs><sodipodi:namedview
   id="namedview4"
   pagecolor="#ffffff"
   bordercolor="#000000"
   borderopacity="0.25"
   inkscape:showpageshadow="2"
   inkscape:pageopacity="0.0"
   inkscape:pagecheckerboard="false"
   inkscape:deskcolor="#d1d1d1"
   inkscape:zoom="3.9225315"
   inkscape:cx="27.788177"
   inkscape:cy="39.897703"
   inkscape:window-width="1920"
   inkscape:window-height="1017"
   inkscape:window-x="-8"
   inkscape:window-y="-8"
   inkscape:window-maximized="1"
   inkscape:current-layer="g24" />&#10;    <title
   id="title1">Blender Icon Theme Mascot</title>&#10;    <g
   transform="matrix(-0.11129121,0,0,0.10795803,94.917151,-18.603016)"
   id="g4">&#10;        <g
   transform="matrix(21.6,0,0,21.6,-4857,7665)"
   id="g1">&#10;            <path
   d="m 243,-334 c 0.106,-1.89 1.03,-3.56 2.43,-4.74 1.37,-1.16 3.21,-1.87 5.23,-1.87 2.01,0 3.85,0.709 5.22,1.87 1.4,1.18 2.32,2.85 2.43,4.74 0.106,1.94 -0.675,3.75 -2.04,5.09 -1.4,1.36 -3.38,2.22 -5.61,2.22 -2.23,0 -4.22,-0.854 -5.61,-2.22 -1.37,-1.34 -2.15,-3.14 -2.04,-5.08 z"
   style="fill:#ffffff;fill-rule:nonzero"
   id="path1" />&#10;        </g>&#10;        <g
   transform="matrix(11.1,0,0,11.1,-2215,4153)"
   id="g3">&#10;            <path
   d="m 240.66517,-333.09741 c 0.106,-1.89 1.03,-3.56 2.43,-4.74 1.37,-1.16 3.21,-1.87 5.23,-1.87 2.01,0 3.85,0.709 5.22,1.87 1.4,1.18 2.32,2.85 2.43,4.74 0.106,1.94 -0.675,3.75 -2.04,5.09 -1.4,1.36 -3.38,2.22 -5.61,2.22 -2.23,0 -4.22,-0.854 -5.61,-2.22 -1.37,-1.34 -2.15,-3.14 -2.04,-5.08 z"
   style="fill:#265787;fill-rule:nonzero"
   id="path2" />&#10;            <g
   id="g24"
   clip-path="url(#clipPath24)"><g
     inkscape:label="Clip"
     id="g23"><path
       d="m 231.603,-326.7 c 0.744,2.38 2.01,4.58 3.76,6.51 1.8,1.99 4.02,3.59 6.58,4.73 2.69,1.19 5.61,1.8 8.64,1.8 9.54105,-0.0792 18.79115,-2.75718 24.89662,-12.43123 0.5997,-0.95022 -6.72258,0.38806 -6.39088,-0.67877 0.5678,-1.81697 2.35143,-8.42057 -0.1775,-12.74282 -0.50322,-0.86009 6.47058,-5.73605 0.18629,-15.47436 -2.51599,6.85564 -5.48161,8.46653 -6.17262,7.78873 -9.53339,-9.35108 -30.04482,-11.16873 -37.98699,-11.42163 10.96551,3.57625 11.60845,4.68166 22.88215,9.51612 -2.57936,0.48576 -6.83739,0.92127 -7.27697,0.86365 0,0 -3.74264,0.55754 -11.39991,-4.86673 1.02072,6.668 0.85551,12.27275 4.32017,12.26819 -3.23934,3.69502 -13.45434,2.515 -6.10848,17.47113 3.86992,-10.56492 3.76012,-7.50704 3.76012,-7.50704 0,0 -0.0742,2.1748 0.488,4.17476 z m 27.997,0.81 c -2.29,2.33 -5.5,3.66 -8.96,3.66 -3.47,0.006 -6.68,-1.3 -8.97,-3.63 -1.12,-1.14 -1.94,-2.44 -2.45,-3.83 -0.497,-1.37 -0.69,-2.82 -0.562,-4.28 0.121,-1.43 0.547,-2.8 1.23,-4.03 0.668,-1.21 0.42259,-0.65525 1.3337,-1.96133 7.271,1.68136 9.86806,-0.46931 20.97356,9.36522 0.126,1.46 0.34574,-0.49389 -0.15126,0.87611 -0.508,1.4 -1.33,2.7 -2.45,3.84 z"
       style="fill:#ea7600;fill-rule:nonzero"
       id="path3"
       sodipodi:nodetypes="ccccscscsccccccccccccccccccc" /></g><path
     id="path21"
     style="clip-rule:evenodd;mix-blend-mode:color-burn;fill:url(#radialGradient23);fill-opacity:1;fill-rule:evenodd;stroke-width:13.7941;stroke-linejoin:round;stroke-miterlimit:2"
     transform="matrix(-0.09009009,0,0,0.09009009,199.54955,-374.14414)"
     d="m -774.05011,611.66676 c 0,0 38.1457,-0.99076 39.71544,-34.06103 0,0 68.53178,44.70406 68.501,64.91175 -20.04383,47.22898 -108.21644,-30.85072 -108.21644,-30.85072 z"
     sodipodi:nodetypes="cccc" /><path
     id="path21-4"
     style="clip-rule:evenodd;mix-blend-mode:color-burn;fill:url(#radialGradient23-7);fill-opacity:1;fill-rule:evenodd;stroke-width:1.24271;stroke-linejoin:round;stroke-miterlimit:2"
     d="m 257.14248,-347.03268 c 0,0 -5.29389,-0.8339 -9.20158,-2.27077 0,0 -9.99191,-0.33384 -9.98913,1.48668 1.80575,4.25486 19.19071,0.78409 19.19071,0.78409 z"
     sodipodi:nodetypes="cccc" /><path
     id="path21-2"
     style="clip-rule:evenodd;mix-blend-mode:color-burn;fill:url(#radialGradient23-9);fill-opacity:1;fill-rule:evenodd;stroke-width:1.24271;stroke-linejoin:round;stroke-miterlimit:2"
     d="m 231.56724,-331.06969 c 0,0 3.73486,-2.48256 2.45841,-9.87634 0,0 -6.27722,2.59138 -5.65533,5.63517 1.80575,4.25486 3.19692,4.24117 3.19692,4.24117 z"
     sodipodi:nodetypes="cccc" /></g>&#10;        <path
   id="path8"
   style="fill:url(#radialGradient9);stroke-width:1.24271"
   d="m 245.52138,-341.71781 c -1e-5,1.39161 4.15761,2.93343 7.5517,4.36253 2.33155,0.98172 8.13542,5.34046 8.13542,3.94884 0,-1.39161 1.6609,-8.68458 -6.27485,-10.56786 -6.70324,-1.59077 -9.41228,0.86487 -9.41227,2.25649 z"
   sodipodi:nodetypes="sssss" /><g
   id="g10"
   clip-path="url(#clipPath10)"><g
     inkscape:label="Clip"
     id="g9"><path
       id="path9"
       style="fill:#2c3b54;fill-opacity:1;stroke-width:1.24271"
       transform="scale(-1,1)"
       d="m -266.0778,-323.08246 c 2.48075,5.0672 -10.30706,6.09162 -10.30706,-1.18521 0,-2.0978 1.93953,-5.99525 3.63198,-5.99525 1.69245,0 5.75821,5.30765 6.67508,7.18046 z"
       sodipodi:nodetypes="ssss" /></g><ellipse
     style="fill:url(#radialGradient11);fill-opacity:1;stroke:none;stroke-width:1.24271;stroke-dasharray:none"
     id="path10"
     cx="-273.28394"
     cy="-329.30716"
     transform="scale(-1,1)"
     rx="3.8305752"
     ry="5.0018687" /></g></g><g
   inkscape:groupmode="layer"
   id="layer1"
   inkscape:label="Layer 1"><path
     id="path7"
     style="clip-rule:evenodd;fill:#b40000;fill-rule:evenodd;stroke-width:1.512;stroke-linejoin:round;stroke-miterlimit:2"
     d="m 86.731428,56.340809 c 0,0 -0.155006,2.144991 -1.499725,3.990592 -1.368671,1.878477 -4.626384,2.611588 -7.290067,3.741751 -5.751083,2.440104 -14.533476,1.573992 -14.533476,1.573992 5.181546,0.474187 8.654639,-0.857286 13.188113,-2.852146 1.222441,-0.537909 3.007426,-2.528132 3.489552,-2.716122 0.625737,-0.243986 1.815806,-0.925426 2.309013,-1.173661 1.882193,-0.947318 4.33659,-2.564406 4.33659,-2.564406 z"
     sodipodi:nodetypes="csscsssc"
     transform="matrix(-8.9854356,0,0,9.2628589,1188.9777,34.739475)" /><path
     id="path4"
     style="fill:url(#radialGradient17);fill-opacity:1;stroke-width:10.2537"
     d="m 260.10743,697.82994 c -1.48838,1.19183 19.42954,18.82987 22.17033,17.16357 34.26479,-20.83175 194.41087,-81.53509 194.41087,-111.20404 0,-38.72764 -129.49962,24.31055 -216.5812,94.04047 z"
     sodipodi:nodetypes="ssss" /><g
     id="g14"
     clip-path="url(#clipPath14)"><g
       inkscape:label="Clip"
       id="g13"><path
         id="path5"
         style="fill:#656565;fill-opacity:1;stroke-width:11.7491"
         d="m 218.77163,785.00885 c 39.93626,-45.84069 98.09845,-38.15515 94.16312,-85.67339 -1.86408,-22.50841 -10.48523,-35.96241 -32.00098,-35.96241 -73.91165,10e-6 -68.32168,128.706 -62.16214,121.6358 z"
         sodipodi:nodetypes="ssss" /></g><ellipse
       style="fill:url(#radialGradient15);fill-opacity:1;stroke:none;stroke-width:13.7941;stroke-dasharray:none"
       id="path14"
       cx="-241.19084"
       cy="690.92712"
       transform="scale(-1,1)"
       rx="47.532516"
       ry="40.439819" /></g><path
     id="path19"
     style="fill:url(#radialGradient21);stroke-width:13.7941"
     d="m 463.08691,542.52603 c -30.53092,4.03414 45.2992,31.06653 56.28303,34.2357 10.98381,3.16917 89.15025,6.26432 62.8572,-3.76148 -2.51707,-0.95979 -52.6855,-2.09524 -63.1111,-6.86434 -15.39843,-7.04387 -53.36716,-23.96161 -56.02913,-23.60988 z"
     sodipodi:nodetypes="sssss" /></g>&#10;    <path
   id="path6"
   style="fill:url(#radialGradient7);fill-opacity:1;stroke-width:13.7941"
   transform="scale(-1,1)"
   d="m -365.75544,552.41902 c 1e-5,15.4469 -232.85662,102.64993 -255.89214,102.64993 -23.03552,0 154.25327,-75.36441 157.01077,-90.5475 12.02631,-66.21806 46.73535,-72.07335 69.77087,-72.07335 23.03551,0 29.1105,44.52402 29.1105,59.97092 z"
   sodipodi:nodetypes="sssss" /><path
   id="path11"
   style="fill:url(#radialGradient13);stroke-width:13.7941"
   d="m 490.26873,408.10476 c 0,15.44691 33.32154,82.3127 57.02799,82.3127 23.70645,0 73.09881,-25.42115 73.09881,-40.86805 10e-6,-15.44691 -18.73062,-28.76316 -56.58931,-42.61458 -35.61753,-13.03144 -73.53749,-14.27698 -73.53749,1.16993 z"
   sodipodi:nodetypes="sssss" /><path
   id="path17"
   style="fill:url(#radialGradient19);stroke-width:13.7941"
   transform="scale(-1,1)"
   d="m -643.34973,579.04694 c 0,15.81333 -17.54495,21.11848 -30.19627,21.11848 -12.65132,10e-6 -90.53331,-100.06611 -90.53331,-115.87945 0,-8.52568 32.99833,27.29699 46.73374,19.03195 11.74085,-7.06485 12.86013,-41.90201 13.83353,-35.97593 5.41691,32.97848 53.98472,49.39784 68.25674,88.70918 4.01933,11.07095 -8.09443,19.52097 -8.09443,22.99577 z"
   sodipodi:nodetypes="sssssss" /></g>&#10;<metadata
   id="metadata27"><rdf:RDF><cc:Work
       rdf:about=""><dc:title>Blender Icon Theme Mascot</dc:title></cc:Work></rdf:RDF></metadata></svg>
