<?xml version="1.0" encoding="UTF-8" standalone="no"?>
<svg
   viewBox="0 0 20 20"
   xml:space="preserve"
   version="1.1"
   id="svg4"
   sodipodi:docname="gimp-reset.svg"
   inkscape:version="1.2.1 (9c6d41e410, 2022-07-14)"
   xmlns:inkscape="http://www.inkscape.org/namespaces/inkscape"
   xmlns:sodipodi="http://sodipodi.sourceforge.net/DTD/sodipodi-0.dtd"
   xmlns="http://www.w3.org/2000/svg"
   xmlns:svg="http://www.w3.org/2000/svg"><defs
   id="defs8" /><sodipodi:namedview
   id="namedview6"
   pagecolor="#ffffff"
   bordercolor="#666666"
   borderopacity="1.0"
   inkscape:showpageshadow="2"
   inkscape:pageopacity="0.0"
   inkscape:pagecheckerboard="0"
   inkscape:deskcolor="#d1d1d1"
   showgrid="false"
   inkscape:zoom="11.8"
   inkscape:cx="6.9067797"
   inkscape:cy="10"
   inkscape:current-layer="svg4" />
    <path
   fill="#ffffff"
   d="M7.49 2.998a.5.5 0 0 0-.344.15l-4 4a.5.5 0 0 0 0 .708l4 4a.5.5 0 1 0 .707-.707L4.707 8.002H12c2.215 0 4 1.785 4 4s-1.785 4-4 4h-1.5a.5.5 0 1 0 0 1H12c2.755 0 5-2.244 5-5 0-2.755-2.245-5-5-5H4.707l3.146-3.146a.5.5 0 0 0-.363-.858z"
   id="path2"
   style="fill:#bfbfbf;fill-opacity:1" />
</svg>
