<?xml version="1.0" encoding="UTF-8" standalone="no"?>
<svg
   viewBox="0 0 15.005476 15.019049"
   xml:space="preserve"
   version="1.1"
   id="svg1364"
   sodipodi:docname="gimp-paste-into.svg"
   width="15.005476"
   height="15.019049"
   inkscape:version="1.2.1 (9c6d41e410, 2022-07-14)"
   xmlns:inkscape="http://www.inkscape.org/namespaces/inkscape"
   xmlns:sodipodi="http://sodipodi.sourceforge.net/DTD/sodipodi-0.dtd"
   xmlns:xlink="http://www.w3.org/1999/xlink"
   xmlns="http://www.w3.org/2000/svg"
   xmlns:svg="http://www.w3.org/2000/svg"><defs
   id="defs1368"><linearGradient
     id="linearGradient873"
     inkscape:swatch="solid"><stop
       style="stop-color:#bfbfbf;stop-opacity:1;"
       offset="0"
       id="stop871" /></linearGradient><linearGradient
     id="linearGradient867"
     inkscape:swatch="solid"><stop
       style="stop-color:#bfbfbf;stop-opacity:1;"
       offset="0"
       id="stop865" /></linearGradient><linearGradient
     id="linearGradient799"
     inkscape:swatch="solid"><stop
       style="stop-color:#f2f2f2;stop-opacity:1;"
       offset="0"
       id="stop797" /></linearGradient><linearGradient
     id="linearGradient793"
     inkscape:swatch="solid"><stop
       style="stop-color:#ffffff;stop-opacity:1;"
       offset="0"
       id="stop791" /></linearGradient><linearGradient
     inkscape:collect="always"
     xlink:href="#linearGradient793"
     id="linearGradient863"
     gradientUnits="userSpaceOnUse"
     x1="2.997"
     y1="10"
     x2="17.002636"
     y2="10" /><linearGradient
     inkscape:collect="always"
     xlink:href="#linearGradient867"
     id="linearGradient869"
     x1="6.7994361"
     y1="4.1525817"
     x2="13.771071"
     y2="4.1525817"
     gradientUnits="userSpaceOnUse"
     gradientTransform="translate(0.5,0.5)" /><linearGradient
     inkscape:collect="always"
     xlink:href="#linearGradient873"
     id="linearGradient875"
     x1="2.997"
     y1="10"
     x2="17.002636"
     y2="10"
     gradientUnits="userSpaceOnUse" /><linearGradient
     inkscape:collect="always"
     xlink:href="#linearGradient793"
     id="linearGradient896"
     gradientUnits="userSpaceOnUse"
     x1="2.997"
     y1="10"
     x2="17.002636"
     y2="10" /><linearGradient
     inkscape:collect="always"
     xlink:href="#linearGradient873"
     id="linearGradient898"
     gradientUnits="userSpaceOnUse"
     x1="2.997"
     y1="10"
     x2="17.002636"
     y2="10" /><linearGradient
     inkscape:collect="always"
     xlink:href="#linearGradient793"
     id="linearGradient900"
     gradientUnits="userSpaceOnUse"
     x1="2.997"
     y1="10"
     x2="17.002636"
     y2="10" /><linearGradient
     inkscape:collect="always"
     xlink:href="#linearGradient873"
     id="linearGradient902"
     gradientUnits="userSpaceOnUse"
     x1="2.997"
     y1="10"
     x2="17.002636"
     y2="10" /><linearGradient
     inkscape:collect="always"
     xlink:href="#linearGradient793"
     id="linearGradient904"
     gradientUnits="userSpaceOnUse"
     x1="2.997"
     y1="10"
     x2="17.002636"
     y2="10" /><linearGradient
     inkscape:collect="always"
     xlink:href="#linearGradient873"
     id="linearGradient906"
     gradientUnits="userSpaceOnUse"
     x1="2.997"
     y1="10"
     x2="17.002636"
     y2="10" /><linearGradient
     inkscape:collect="always"
     xlink:href="#linearGradient793"
     id="linearGradient908"
     gradientUnits="userSpaceOnUse"
     x1="2.997"
     y1="10"
     x2="17.002636"
     y2="10" /><linearGradient
     inkscape:collect="always"
     xlink:href="#linearGradient873"
     id="linearGradient910"
     gradientUnits="userSpaceOnUse"
     x1="2.997"
     y1="10"
     x2="17.002636"
     y2="10" /></defs><sodipodi:namedview
   id="namedview1366"
   pagecolor="#ffffff"
   bordercolor="#666666"
   borderopacity="1.0"
   inkscape:showpageshadow="2"
   inkscape:pageopacity="0.0"
   inkscape:pagecheckerboard="0"
   inkscape:deskcolor="#d1d1d1"
   showgrid="false"
   inkscape:zoom="16.68772"
   inkscape:cx="15.969827"
   inkscape:cy="13.842514"
   inkscape:current-layer="svg1364" />
    <g
   fill="#ffffff"
   id="g1362"
   transform="translate(-2.497,-2.498)"
   style="fill:url(#linearGradient908);fill-opacity:1;stroke:url(#linearGradient910)">
        <path
   transform="translate(147.997,-134.002)"
   fill="#ffffff"
   d="m -144.5,139 a 0.5,0.5 0 0 0 -0.5,0.5 v 9 a 0.5,0.5 0 0 0 0.5,0.5 h 9 c 0.107,0 0.2,-0.04 0.281,-0.098 l -3.342,-3.341 a 1.5004806,1.5004806 0 1 1 2.122,-2.122 l 1.439,1.44 V 139.5 a 0.5,0.5 0 0 0 -0.5,-0.5 h -1.484 l -0.016,0.5 v 0.5 h -6 v -0.5 l 0.016,-0.5 z m 5,-2 a 0.5,0.5 0 0 1 0.5,0.5 v 0.5 h 1.5 a 0.5,0.5 0 0 1 0.516,0.5 v 0.5 h -6 v -0.5 c 0,-0.253 0.149,-0.495 0.484,-0.5 h 1.5 v -0.5 a 0.5,0.5 0 0 1 0.5,-0.5 z"
   id="path1356"
   style="fill:url(#linearGradient896);fill-opacity:1;stroke:url(#linearGradient898)" />
        <g
   fill="#ffffff"
   id="g1360"
   style="fill:url(#linearGradient904);fill-opacity:1;stroke:url(#linearGradient906)">
            <path
   fill="#ffffff"
   d="m -158.494,143.996 a 0.5,0.5 0 0 0 -0.05,0.004 h -3.94 a 0.5,0.5 0 1 0 0,1 h 2.793 l -5.147,5.147 a 0.5,0.5 0 1 0 0.707,0.707 l 5.147,-5.147 v 2.793 a 0.5,0.5 0 1 0 1,0 v -3.943 a 0.5,0.5 0 0 0 -0.51,-0.56 z"
   transform="matrix(1,0,0,-1,174.983,160.998)"
   id="path1358"
   style="fill:url(#linearGradient900);fill-opacity:1;stroke:url(#linearGradient902)" />
        </g>
    </g>
<path
   style="fill:none;fill-opacity:1;stroke:url(#linearGradient869);stroke-width:0.692509;stroke-linecap:butt;stroke-linejoin:miter;stroke-dasharray:1.38502, 0.692509;stroke-dashoffset:0;stroke-opacity:1"
   d="M 13.924817,8.7676045 V 0.88381332 H 7.299436"
   id="path16673" /></svg>
