<?xml version="1.0" encoding="UTF-8" standalone="no"?>
<svg
   viewBox="0 0 14 14"
   xml:space="preserve"
   version="1.1"
   id="svg3146"
   sodipodi:docname="folder-new.svg"
   width="14"
   height="14"
   inkscape:version="1.2.1 (9c6d41e410, 2022-07-14)"
   xmlns:inkscape="http://www.inkscape.org/namespaces/inkscape"
   xmlns:sodipodi="http://sodipodi.sourceforge.net/DTD/sodipodi-0.dtd"
   xmlns:xlink="http://www.w3.org/1999/xlink"
   xmlns="http://www.w3.org/2000/svg"
   xmlns:svg="http://www.w3.org/2000/svg"><defs
   id="defs3150"><linearGradient
     id="linearGradient792"
     inkscape:swatch="solid"><stop
       style="stop-color:#bfbfbf;stop-opacity:1;"
       offset="0"
       id="stop790" /></linearGradient><linearGradient
     inkscape:collect="always"
     xlink:href="#linearGradient792"
     id="linearGradient794"
     x1="3"
     y1="10"
     x2="17"
     y2="10"
     gradientUnits="userSpaceOnUse" /></defs><sodipodi:namedview
   id="namedview3148"
   pagecolor="#ffffff"
   bordercolor="#666666"
   borderopacity="1.0"
   inkscape:pageshadow="2"
   inkscape:pageopacity="0.0"
   inkscape:pagecheckerboard="0"
   showgrid="false"
   inkscape:zoom="35.95"
   inkscape:cx="4.3532684"
   inkscape:cy="8.1502086"
   inkscape:window-width="1920"
   inkscape:window-height="1017"
   inkscape:window-x="-8"
   inkscape:window-y="-8"
   inkscape:window-maximized="1"
   inkscape:current-layer="svg3146"
   inkscape:showpageshadow="2"
   inkscape:deskcolor="#d1d1d1" />
    <g
   fill="#ffffff"
   id="g3144"
   style="fill:url(#linearGradient794);fill-opacity:1"
   transform="translate(-3,-3)">
        <path
   d="m 473,628 a 1,1 0 1 0 0,2 h 2 a 1,1 0 1 0 0,-2 z m -4.5,-6 a 0.5,0.5 0 0 0 -0.5,0.5 v 3 a 0.5,0.5 0 0 0 0.5,0.5 h 0.5 v 7.5 a 0.5,0.5 0 0 0 0.5,0.5 h 9 a 0.5,0.5 0 0 0 0.5,-0.5 v -5 a 0.5,0.5 0 1 0 -1,0 v 4.5 h -8 v -7 h 3.5 a 0.5,0.5 0 1 0 0,-1 H 469 v -2 h 4.5 a 0.5,0.5 0 1 0 0,-1 z"
   fill="#ffffff"
   transform="translate(-465,-617)"
   id="path3140"
   style="fill:url(#linearGradient794);fill-opacity:1" />
        <path
   d="m 478.5,620 a 3.5,3.5 0 1 0 0,7 3.5,3.5 0 0 0 0,-7 z m -0.5,1 h 1 v 2 h 2 v 1 h -2 v 2 h -1 v -2 h -2 v -1 h 2 z"
   fill="#ffffff"
   transform="translate(-465,-617)"
   id="path3142"
   style="fill:url(#linearGradient794);fill-opacity:1" />
    </g>
</svg>
