<?xml version="1.0" encoding="UTF-8" standalone="no"?>
<svg
   viewBox="0 0 14 13"
   xml:space="preserve"
   version="1.1"
   id="svg3497"
   sodipodi:docname="gimp-group-layer.svg"
   width="14"
   height="13"
   inkscape:version="1.2.1 (9c6d41e410, 2022-07-14)"
   xmlns:inkscape="http://www.inkscape.org/namespaces/inkscape"
   xmlns:sodipodi="http://sodipodi.sourceforge.net/DTD/sodipodi-0.dtd"
   xmlns:xlink="http://www.w3.org/1999/xlink"
   xmlns="http://www.w3.org/2000/svg"
   xmlns:svg="http://www.w3.org/2000/svg"><defs
   id="defs3501"><linearGradient
     id="linearGradient790"
     inkscape:swatch="solid"><stop
       style="stop-color:#bfbfbf;stop-opacity:1;"
       offset="0"
       id="stop788" /></linearGradient><linearGradient
     inkscape:collect="always"
     xlink:href="#linearGradient790"
     id="linearGradient792"
     x1="3"
     y1="10"
     x2="17"
     y2="10"
     gradientUnits="userSpaceOnUse" /></defs><sodipodi:namedview
   id="namedview3499"
   pagecolor="#ffffff"
   bordercolor="#666666"
   borderopacity="1.0"
   inkscape:pageshadow="2"
   inkscape:pageopacity="0.0"
   inkscape:pagecheckerboard="0"
   showgrid="false"
   inkscape:zoom="35.95"
   inkscape:cx="5.9666203"
   inkscape:cy="6.4812239"
   inkscape:window-width="1920"
   inkscape:window-height="1017"
   inkscape:window-x="-8"
   inkscape:window-y="-8"
   inkscape:window-maximized="1"
   inkscape:current-layer="svg3497"
   inkscape:showpageshadow="2"
   inkscape:deskcolor="#d1d1d1" />
    <g
   fill="#ffffff"
   id="g3495"
   style="fill:url(#linearGradient792);fill-opacity:1"
   transform="translate(-3,-3.5)">
        <path
   transform="translate(-1452,-529.5)"
   fill="#ffffff"
   d="m 1456,538 v 7.5 a 0.5,0.5 0 0 0 0.5,0.5 h 11 a 0.5,0.5 0 0 0 0.5,-0.5 V 538 Z m 5,1 h 2 a 1,1 0 1 1 0,2 h -2 a 1,1 0 1 1 0,-2 z m -5.5,-6 a 0.5,0.5 0 0 0 -0.5,0.5 v 3 a 0.5,0.5 0 0 0 0.5,0.5 h 13 a 0.5,0.5 0 0 0 0.5,-0.5 v -3 a 0.5,0.5 0 0 0 -0.5,-0.5 z"
   id="path3493"
   style="fill:url(#linearGradient792);fill-opacity:1" />
    </g>
</svg>
