<?xml version="1.0" encoding="UTF-8" standalone="no"?>
<svg
   id="Layer_1"
   x="0"
   y="0"
   version="1.1"
   viewBox="0 0 12.95 9"
   xml:space="preserve"
   sodipodi:docname="gimp-visible.svg"
   width="12.95"
   height="9"
   inkscape:version="1.2.1 (9c6d41e410, 2022-07-14)"
   xmlns:inkscape="http://www.inkscape.org/namespaces/inkscape"
   xmlns:sodipodi="http://sodipodi.sourceforge.net/DTD/sodipodi-0.dtd"
   xmlns:xlink="http://www.w3.org/1999/xlink"
   xmlns="http://www.w3.org/2000/svg"
   xmlns:svg="http://www.w3.org/2000/svg"><defs
   id="defs2931"><linearGradient
     id="linearGradient738"
     inkscape:swatch="solid"><stop
       style="stop-color:#bfbfbf;stop-opacity:1;"
       offset="0"
       id="stop736" /></linearGradient><linearGradient
     inkscape:collect="always"
     xlink:href="#linearGradient738"
     id="linearGradient740"
     x1="0"
     y1="4.5"
     x2="12.95"
     y2="4.5"
     gradientUnits="userSpaceOnUse" /><linearGradient
     inkscape:collect="always"
     xlink:href="#linearGradient738"
     id="linearGradient742"
     x1="4.9749999"
     y1="4.5"
     x2="7.9749999"
     y2="4.5"
     gradientUnits="userSpaceOnUse" /></defs><sodipodi:namedview
   id="namedview2929"
   pagecolor="#ffffff"
   bordercolor="#666666"
   borderopacity="1.0"
   inkscape:pageshadow="2"
   inkscape:pageopacity="0.0"
   inkscape:pagecheckerboard="0"
   showgrid="false"
   inkscape:zoom="35.95"
   inkscape:cx="6.7732962"
   inkscape:cy="2.6147427"
   inkscape:window-width="1920"
   inkscape:window-height="1017"
   inkscape:window-x="-8"
   inkscape:window-y="-8"
   inkscape:window-maximized="1"
   inkscape:current-layer="Layer_1"
   inkscape:showpageshadow="2"
   inkscape:deskcolor="#d1d1d1" />
    <style
   id="style2922">
        .st0{fill:#fff}
    </style>
    <path
   d="M 12.875,4.2 C 11.475,2.7 9.775,0 6.475,0 c -3.3,0 -5,2.7 -6.4,4.2 -0.1,0.2 -0.1,0.4 0,0.6 1.3,1.4 3.1,4.2 6.4,4.2 3.3,0 5,-2.7 6.4,-4.2 0.1,-0.2 0.1,-0.4 0,-0.6 z M 6.475,8 c -1.9,0 -3.5,-1.6 -3.5,-3.5 0,-1.9 1.6,-3.5 3.5,-3.5 1.9,0 3.5,1.6 3.5,3.5 0,1.9 -1.6,3.5 -3.5,3.5 z"
   class="st0"
   id="path2924"
   style="fill:url(#linearGradient740);fill-opacity:1" />
    <circle
   cx="6.4749999"
   cy="4.5"
   r="1.5"
   class="st0"
   id="circle2926"
   style="fill:url(#linearGradient742);fill-opacity:1" />
</svg>
