<?xml version="1.0" encoding="UTF-8" standalone="no"?>
<!-- Created with Inkscape (http://www.inkscape.org/) -->

<svg
   width="32.893539mm"
   height="30.463943mm"
   viewBox="0 0 32.893539 30.463947"
   version="1.1"
   id="svg5"
   xml:space="preserve"
   inkscape:version="1.2.2 (732a01da63, 2022-12-09, custom)"
   sodipodi:docname="gimp-tool-offset.svg"
   xmlns:inkscape="http://www.inkscape.org/namespaces/inkscape"
   xmlns:sodipodi="http://sodipodi.sourceforge.net/DTD/sodipodi-0.dtd"
   xmlns:xlink="http://www.w3.org/1999/xlink"
   xmlns="http://www.w3.org/2000/svg"
   xmlns:svg="http://www.w3.org/2000/svg"><sodipodi:namedview
     id="namedview7"
     pagecolor="#ffffff"
     bordercolor="#666666"
     borderopacity="1.0"
     inkscape:showpageshadow="2"
     inkscape:pageopacity="0.0"
     inkscape:pagecheckerboard="0"
     inkscape:deskcolor="#d1d1d1"
     inkscape:document-units="mm"
     showgrid="false"
     inkscape:zoom="4.7572176"
     inkscape:cx="88.707315"
     inkscape:cy="49.924141"
     inkscape:current-layer="layer1" /><defs
     id="defs2"><linearGradient
       id="linearGradient19898"
       inkscape:swatch="solid"><stop
         style="stop-color:#1c1c20;stop-opacity:1;"
         offset="0"
         id="stop19896" /></linearGradient><linearGradient
       id="linearGradient19892"
       inkscape:swatch="solid"><stop
         style="stop-color:#1c1c20;stop-opacity:1;"
         offset="0"
         id="stop19890" /></linearGradient><linearGradient
       id="linearGradient19886"
       inkscape:swatch="solid"><stop
         style="stop-color:#6363c7;stop-opacity:1;"
         offset="0"
         id="stop19884" /></linearGradient><linearGradient
       id="linearGradient19880"
       inkscape:swatch="solid"><stop
         style="stop-color:#6363c7;stop-opacity:1;"
         offset="0"
         id="stop19878" /></linearGradient><linearGradient
       id="linearGradient19874"
       inkscape:swatch="solid"><stop
         style="stop-color:#ffffff;stop-opacity:1;"
         offset="0"
         id="stop19872" /></linearGradient><linearGradient
       id="linearGradient19868"
       inkscape:swatch="solid"><stop
         style="stop-color:#000000;stop-opacity:1;"
         offset="0"
         id="stop19866" /></linearGradient><linearGradient
       id="linearGradient19862"
       inkscape:swatch="solid"><stop
         style="stop-color:#ffffff;stop-opacity:1;"
         offset="0"
         id="stop19860" /></linearGradient><linearGradient
       id="linearGradient19856"
       inkscape:swatch="solid"><stop
         style="stop-color:#ffffff;stop-opacity:1;"
         offset="0"
         id="stop19854" /></linearGradient><linearGradient
       id="linearGradient19850"
       inkscape:swatch="solid"><stop
         style="stop-color:#ffffff;stop-opacity:1;"
         offset="0"
         id="stop19848" /></linearGradient><linearGradient
       id="linearGradient19844"
       inkscape:swatch="solid"><stop
         style="stop-color:#bfbfbf;stop-opacity:1;"
         offset="0"
         id="stop19842" /></linearGradient><rect
       x="34.894347"
       y="60.960003"
       width="65.374348"
       height="40.990347"
       id="rect36501" /><linearGradient
       inkscape:collect="always"
       xlink:href="#linearGradient19844"
       id="linearGradient19846"
       x1="137.72491"
       y1="63.364676"
       x2="167.46583"
       y2="63.364676"
       gradientUnits="userSpaceOnUse" /><linearGradient
       inkscape:collect="always"
       xlink:href="#linearGradient19844"
       id="linearGradient19864"
       x1="140.97739"
       y1="54.516323"
       x2="146.84766"
       y2="54.516323"
       gradientUnits="userSpaceOnUse" /><linearGradient
       inkscape:collect="always"
       xlink:href="#linearGradient19868"
       id="linearGradient19870"
       x1="152.32972"
       y1="64.264796"
       x2="171.81691"
       y2="64.264796"
       gradientUnits="userSpaceOnUse" /><linearGradient
       inkscape:collect="always"
       xlink:href="#linearGradient19844"
       id="linearGradient19882"
       x1="136.15269"
       y1="71.957542"
       x2="140.14294"
       y2="71.957542"
       gradientUnits="userSpaceOnUse" /><linearGradient
       inkscape:collect="always"
       xlink:href="#linearGradient19844"
       id="linearGradient19888"
       x1="165.05598"
       y1="64.004272"
       x2="169.04623"
       y2="64.004272"
       gradientUnits="userSpaceOnUse" /><linearGradient
       inkscape:collect="always"
       xlink:href="#linearGradient19844"
       id="linearGradient19894"
       x1="165.05598"
       y1="64.004272"
       x2="169.04623"
       y2="64.004272"
       gradientUnits="userSpaceOnUse" /><linearGradient
       inkscape:collect="always"
       xlink:href="#linearGradient19844"
       id="linearGradient19900"
       x1="136.15269"
       y1="71.957542"
       x2="140.14294"
       y2="71.957542"
       gradientUnits="userSpaceOnUse" /><linearGradient
       inkscape:collect="always"
       xlink:href="#linearGradient19844"
       id="linearGradient25034"
       gradientUnits="userSpaceOnUse"
       x1="153.04881"
       y1="53.550182"
       x2="167.59625"
       y2="53.550182"
       gradientTransform="translate(-1.5578105,-0.11624582)" /><linearGradient
       inkscape:collect="always"
       xlink:href="#linearGradient19844"
       id="linearGradient25038"
       gradientUnits="userSpaceOnUse"
       gradientTransform="matrix(1.0986739,0,0,1.0986739,-26.194073,-2.1437467)"
       x1="152.32973"
       y1="64.264793"
       x2="171.81691"
       y2="64.264793" /></defs><g
     inkscape:label="Layer 1"
     inkscape:groupmode="layer"
     id="layer1"
     style="display:inline"
     transform="translate(-136.15269,-48.132704)"><rect
       style="fill:url(#linearGradient19846);fill-opacity:1;stroke:#ffffff;stroke-width:1.297;stroke-linecap:square;stroke-linejoin:round;stroke-dasharray:none;stroke-dashoffset:2.20346;stroke-opacity:1;paint-order:markers stroke fill;opacity:0.25"
       id="rect28619"
       width="28.443914"
       height="29.166943"
       x="138.37341"
       y="48.781204"
       ry="2.202167" /><path
       style="fill:none;stroke:url(#linearGradient19864);stroke-width:0.548686;stroke-linecap:round;stroke-linejoin:miter;stroke-dasharray:none;stroke-opacity:1;fill-opacity:1"
       d="m 141.25173,53.120996 2.67702,2.677015 2.64457,-2.644566"
       id="path30565" /><g
       aria-label="Map"
       transform="scale(0.98080343,1.0195723)"
       id="text30621"
       style="font-size:8.54162px;line-height:1.25;font-family:'Blender Mono I18n';-inkscape-font-specification:'Blender Mono I18n';fill:url(#linearGradient25034);stroke-width:0.320311"><path
         d="m 151.97062,49.432137 h 1.25539 l 1.58904,4.237445 1.59738,-4.237445 h 1.25539 v 6.226875 h -0.82163 v -5.467805 l -1.60573,4.27081 h -0.84665 l -1.60573,-4.27081 v 5.467805 h -0.81746 z"
         id="path25040" /><path
         d="m 161.4298,53.3109 q -0.93007,0 -1.28875,0.212707 -0.35868,0.212706 -0.35868,0.725704 0,0.40873 0.26692,0.650631 0.2711,0.237731 0.73405,0.237731 0.63812,0 1.02182,-0.450437 0.38788,-0.454608 0.38788,-1.205336 v -0.171 z m 1.53065,-0.316974 v 2.665086 h -0.76741 v -0.709021 q -0.26276,0.425412 -0.6548,0.629777 -0.39205,0.200195 -0.95927,0.200195 -0.71736,0 -1.14277,-0.400389 -0.42124,-0.404559 -0.42124,-1.080215 0,-0.788264 0.52551,-1.188653 0.52968,-0.400388 1.57653,-0.400388 h 1.07604 v -0.07507 q 0,-0.529681 -0.35034,-0.81746 -0.34617,-0.29195 -0.97595,-0.29195 -0.40039,0 -0.77992,0.09593 -0.37954,0.09593 -0.72987,0.287779 V 51.20052 q 0.42124,-0.162658 0.81745,-0.241902 0.39622,-0.08341 0.77159,-0.08341 1.01348,0 1.51397,0.52551 0.50048,0.52551 0.50048,1.593212 z"
         id="path25042" /><path
         d="m 165.28354,54.958332 v 2.477404 h -0.77158 v -6.447923 h 0.77158 v 0.709021 q 0.2419,-0.417071 0.60892,-0.617265 0.3712,-0.204365 0.88419,-0.204365 0.85083,0 1.38051,0.675656 0.53385,0.675655 0.53385,1.776723 0,1.101069 -0.53385,1.776724 -0.52968,0.675656 -1.38051,0.675656 -0.51299,0 -0.88419,-0.200195 -0.36702,-0.204365 -0.60892,-0.621436 z m 2.61087,-1.630749 q 0,-0.846654 -0.35034,-1.326286 -0.34617,-0.483803 -0.9551,-0.483803 -0.60892,0 -0.95926,0.483803 -0.34617,0.479632 -0.34617,1.326286 0,0.846655 0.34617,1.330458 0.35034,0.479632 0.95926,0.479632 0.60893,0 0.9551,-0.479632 0.35034,-0.483803 0.35034,-1.330458 z"
         id="path25044" /></g><circle
       style="fill:url(#linearGradient19888);fill-opacity:1;stroke:url(#linearGradient19894);stroke-width:0.850228;stroke-linecap:round;stroke-linejoin:miter;stroke-dasharray:none;stroke-dashoffset:2.20346;stroke-opacity:1;paint-order:markers stroke fill"
       id="path31001"
       cx="167.0511"
       cy="64.004272"
       r="1.5700101" /><circle
       style="display:inline;fill:url(#linearGradient19882);fill-opacity:1;stroke:url(#linearGradient19900);stroke-width:0.850228;stroke-linecap:round;stroke-linejoin:miter;stroke-dasharray:none;stroke-dashoffset:2.20346;stroke-opacity:1;paint-order:markers stroke fill"
       id="path31001-9"
       cx="138.14781"
       cy="71.957542"
       r="1.5700101" /><g
       aria-label="XY"
       transform="scale(0.99756236,1.0024436)"
       id="text36507"
       style="font-size:18.1866px;line-height:1.25;font-family:'Blender Mono I18n';-inkscape-font-specification:'Blender Mono I18n';fill:url(#linearGradient25038);stroke-width:0.454667"><path
         d="m 142.15232,61.833252 h 1.927 l 3.29454,4.928498 3.31231,-4.928498 h 1.92699 l -4.26248,6.367086 4.54665,6.891016 h -1.927 l -3.72967,-5.638911 -3.75632,5.638911 h -1.93587 l 4.73313,-7.0775 z"
         id="path25047" /><path
         d="m 153.43014,61.833252 h 1.927 l 3.67639,5.452428 3.64975,-5.452428 h 1.927 l -4.68873,6.944297 v 6.313805 h -1.80268 v -6.313805 z"
         id="path25049" /></g></g></svg>
