<?xml version="1.0" encoding="UTF-8" standalone="no"?>
<!-- Created with Inkscape (http://www.inkscape.org/) -->

<svg
   width="10.124239mm"
   height="10.24614mm"
   viewBox="0 0 10.124239 10.24614"
   version="1.1"
   id="svg5"
   xml:space="preserve"
   inkscape:version="1.2.1 (9c6d41e410, 2022-07-14)"
   sodipodi:docname="gimp-tool-paint-select.svg"
   xmlns:inkscape="http://www.inkscape.org/namespaces/inkscape"
   xmlns:sodipodi="http://sodipodi.sourceforge.net/DTD/sodipodi-0.dtd"
   xmlns:xlink="http://www.w3.org/1999/xlink"
   xmlns="http://www.w3.org/2000/svg"
   xmlns:svg="http://www.w3.org/2000/svg"><sodipodi:namedview
     id="namedview7"
     pagecolor="#ffffff"
     bordercolor="#666666"
     borderopacity="1.0"
     inkscape:showpageshadow="2"
     inkscape:pageopacity="0.0"
     inkscape:pagecheckerboard="0"
     inkscape:deskcolor="#d1d1d1"
     inkscape:document-units="mm"
     showgrid="false"
     inkscape:zoom="9.5144352"
     inkscape:cx="18.86607"
     inkscape:cy="19.759449"
     inkscape:current-layer="layer1" /><defs
     id="defs2"><linearGradient
       id="linearGradient854"
       inkscape:swatch="solid"><stop
         style="stop-color:#bfbfbf;stop-opacity:1;"
         offset="0"
         id="stop852" /></linearGradient><linearGradient
       id="linearGradient846"
       inkscape:swatch="solid"><stop
         style="stop-color:#bfbfbf;stop-opacity:1;"
         offset="0"
         id="stop844" /></linearGradient><linearGradient
       inkscape:collect="always"
       xlink:href="#linearGradient846"
       id="linearGradient848"
       x1="63.510882"
       y1="53.491772"
       x2="70.902467"
       y2="53.491772"
       gradientUnits="userSpaceOnUse" /><linearGradient
       inkscape:collect="always"
       xlink:href="#linearGradient846"
       id="linearGradient850"
       x1="58.91018"
       y1="58.030933"
       x2="64.486784"
       y2="58.030933"
       gradientUnits="userSpaceOnUse" /><linearGradient
       inkscape:collect="always"
       xlink:href="#linearGradient854"
       id="linearGradient856"
       x1="58.877688"
       y1="60.210742"
       x2="68.675034"
       y2="60.210742"
       gradientUnits="userSpaceOnUse" /></defs><g
     inkscape:label="Layer 1"
     inkscape:groupmode="layer"
     id="layer1"
     style="display:inline"
     transform="translate(-58.870852,-52.865526)"><path
       style="fill:url(#linearGradient850);fill-opacity:1;stroke:none;stroke-width:0.313402px;stroke-linecap:butt;stroke-linejoin:miter;stroke-opacity:1"
       d="m 58.91018,58.857453 c 0,0 0.367781,-0.172901 0.527036,-0.296458 0.840589,-0.652173 1.235763,-1.871381 2.206956,-2.305778 0.591695,-0.264652 1.374058,-0.375639 1.943439,-0.06588 0.337437,0.183574 0.713266,0.537854 0.823491,0.905839 0.15136,0.505309 0.06511,1.188647 -0.164694,1.663451 -0.301392,0.622719 -1.013708,1.03229 -1.679921,1.218769 -0.647147,0.181142 -1.368053,0.03626 -2.009323,-0.164697 -0.605612,-0.189784 -1.646984,-0.955244 -1.646984,-0.955244 z"
       id="path5209"
       sodipodi:nodetypes="csssssssc" /><path
       style="fill:url(#linearGradient848);fill-opacity:1;stroke:none;stroke-width:0.313402px;stroke-linecap:butt;stroke-linejoin:miter;stroke-opacity:1"
       d="m 63.510882,55.756461 c 0,0 0.990734,0.02329 1.316819,1.327635 0,0 3.727029,-3.088758 5.118557,-5.057158 0.413201,-0.584496 1.223309,-1.694685 0.868621,-2.022395 -0.53454,-0.493885 -2.388454,0.87543 -3.19712,1.565035 -1.579572,1.347004 -4.106877,4.186883 -4.106877,4.186883 z"
       id="path5211"
       sodipodi:nodetypes="ccsssc" /><path
       style="fill:none;fill-opacity:1;stroke:url(#linearGradient856);stroke-width:0.374;stroke-linecap:butt;stroke-linejoin:miter;stroke-dasharray:0.748, 0.374;stroke-dashoffset:0;stroke-opacity:1"
       d="m 59.994771,60.026037 c 0,0 1.143265,0.576379 1.886723,0.544765 0.724895,-0.03081 1.536585,-0.319672 2.17579,-0.833531 0.416929,-0.335166 0.576019,-0.989641 0.953374,-1.308135 1.078326,-0.717408 1.923159,-0.455182 2.706863,-0.140021 0.687082,0.271933 0.749565,3.453391 0.749565,3.453391 -0.845042,-1.439826 -1.096196,-1.451038 -2.054565,-1.036833 -1.058242,0.458301 -1.378646,0.859167 -2.439697,1.329173 -0.51552,0.228357 -1.277213,0.468068 -1.814579,0.406427 -0.508794,-0.05836 -1.245782,-0.409798 -1.644704,-0.806621 -0.47986,-0.47733 -1.184945,-2.057508 -1.184945,-2.057508 z"
       id="path5221"
       sodipodi:nodetypes="cssccccssscc" /></g></svg>
