<?xml version="1.0" encoding="UTF-8" standalone="no"?>
<svg
   viewBox="0 0 14.000001 14.000001"
   xml:space="preserve"
   version="1.1"
   id="svg902"
   sodipodi:docname="gimp-tool-options.svg"
   width="14.000001"
   height="14.000001"
   inkscape:version="1.2.1 (9c6d41e410, 2022-07-14)"
   xmlns:inkscape="http://www.inkscape.org/namespaces/inkscape"
   xmlns:sodipodi="http://sodipodi.sourceforge.net/DTD/sodipodi-0.dtd"
   xmlns:xlink="http://www.w3.org/1999/xlink"
   xmlns="http://www.w3.org/2000/svg"
   xmlns:svg="http://www.w3.org/2000/svg"><defs
   id="defs906"><linearGradient
     id="linearGradient789"
     inkscape:swatch="solid"><stop
       style="stop-color:#bfbfbf;stop-opacity:1;"
       offset="0"
       id="stop787" /></linearGradient><linearGradient
     inkscape:collect="always"
     xlink:href="#linearGradient789"
     id="linearGradient791"
     x1="-1.6019897e-10"
     y1="7.0000005"
     x2="14.000001"
     y2="7.0000005"
     gradientUnits="userSpaceOnUse" /></defs><sodipodi:namedview
   id="namedview904"
   pagecolor="#cf2121"
   bordercolor="#666666"
   borderopacity="1.0"
   inkscape:pageshadow="2"
   inkscape:pageopacity="0"
   inkscape:pagecheckerboard="0"
   showgrid="false"
   inkscape:zoom="38.35"
   inkscape:cx="5.1760104"
   inkscape:cy="7.6401565"
   inkscape:window-width="1920"
   inkscape:window-height="1017"
   inkscape:window-x="-8"
   inkscape:window-y="-8"
   inkscape:window-maximized="1"
   inkscape:current-layer="svg902"
   inkscape:showpageshadow="2"
   inkscape:deskcolor="#cf2121" />
    <path
   d="M 2.5000008,8.0128231e-7 A 2.498,2.498 0 0 0 8.0128231e-7,2.5000008 v 1 c 0,1.382 1.11799999871769,2.5 2.49999999871769,2.5 h 9.0000002 c 1.382,0 2.5,-1.118 2.5,-2.5 v -1 c 0,-1.386 -1.135,-2.484 -2.512,-2.486 z m 3.5,1.00599999871769 5.4860002,0.008 c 0.864,0 1.514,0.632 1.514,1.486 v 1 c 0,0.858 -0.642,1.5 -1.5,1.5 H 6.0000008 Z m -3.5,6.994 A 2.498,2.498 0 0 0 8.0128231e-7,10.500001 v 1 c 0,1.382 1.11799999871769,2.5 2.49999999871769,2.5 h 9.0000002 c 1.382,0 2.5,-1.118 2.5,-2.5 v -1 c 0,-1.3860002 -1.135,-2.4840002 -2.512,-2.4860002 z m 6.51,1.01 2.4760002,0.004 c 0.863,0 1.514,0.632 1.514,1.4860002 v 1 c 0,0.858 -0.642,1.5 -1.5,1.5 H 9.0000008 Z"
   fill="#ffffff"
   id="path900"
   style="fill:url(#linearGradient791);fill-opacity:1" />
</svg>
