<?xml version="1.0" encoding="UTF-8" standalone="no"?>
<svg
   viewBox="0 0 14 14"
   xml:space="preserve"
   version="1.1"
   id="svg5175"
   sodipodi:docname="gimp-close.svg"
   width="14"
   height="14"
   inkscape:version="1.2.1 (9c6d41e410, 2022-07-14)"
   xmlns:inkscape="http://www.inkscape.org/namespaces/inkscape"
   xmlns:sodipodi="http://sodipodi.sourceforge.net/DTD/sodipodi-0.dtd"
   xmlns:xlink="http://www.w3.org/1999/xlink"
   xmlns="http://www.w3.org/2000/svg"
   xmlns:svg="http://www.w3.org/2000/svg"><defs
   id="defs5179"><linearGradient
     id="linearGradient789"
     inkscape:swatch="solid"><stop
       style="stop-color:#bebebe;stop-opacity:1;"
       offset="0"
       id="stop787" /></linearGradient><linearGradient
     inkscape:collect="always"
     xlink:href="#linearGradient789"
     id="linearGradient791"
     x1="0"
     y1="7"
     x2="14"
     y2="7"
     gradientUnits="userSpaceOnUse" /></defs><sodipodi:namedview
   id="namedview5177"
   pagecolor="#ffffff"
   bordercolor="#666666"
   borderopacity="1.0"
   inkscape:pageshadow="2"
   inkscape:pageopacity="0.0"
   inkscape:pagecheckerboard="0"
   showgrid="false"
   inkscape:zoom="35.95"
   inkscape:cx="5.9944367"
   inkscape:cy="6.9819193"
   inkscape:window-width="1920"
   inkscape:window-height="1017"
   inkscape:window-x="-8"
   inkscape:window-y="-8"
   inkscape:window-maximized="1"
   inkscape:current-layer="svg5175"
   inkscape:showpageshadow="2"
   inkscape:deskcolor="#d1d1d1" />
    <path
   d="M 7,0 C 3.14,0 0,3.14 0,7 c 0,3.86 3.14,7 7,7 3.86,0 7,-3.14 7,-7 C 14,3.14 10.86,0 7,0 Z m 2.99,2.986 a 1,1 0 0 1 0.717,1.721 L 8.414,7 10.707,9.293 A 1,1 0 1 1 9.293,10.707 L 7,8.414 4.707,10.707 A 1,1 0 1 1 3.293,9.293 L 5.586,7 3.293,4.707 A 1,1 0 0 1 3.99,2.99 1,1 0 0 1 4.707,3.293 L 7,5.586 9.293,3.293 A 1,1 0 0 1 9.99,2.986 Z"
   fill="#ffffff"
   id="path5173"
   style="fill:url(#linearGradient791);fill-opacity:1" />
</svg>
