<?xml version="1.0" encoding="UTF-8" standalone="no"?>
<svg
   viewBox="0 0 14 14.012"
   xml:space="preserve"
   version="1.1"
   id="svg3145"
   sodipodi:docname="gimp-selection-subtract.svg"
   width="14"
   height="14.012"
   inkscape:version="1.2.1 (9c6d41e410, 2022-07-14)"
   xmlns:inkscape="http://www.inkscape.org/namespaces/inkscape"
   xmlns:sodipodi="http://sodipodi.sourceforge.net/DTD/sodipodi-0.dtd"
   xmlns:xlink="http://www.w3.org/1999/xlink"
   xmlns="http://www.w3.org/2000/svg"
   xmlns:svg="http://www.w3.org/2000/svg"><defs
   id="defs3149"><linearGradient
     id="linearGradient792"
     inkscape:swatch="solid"><stop
       style="stop-color:#bfbfbf;stop-opacity:1;"
       offset="0"
       id="stop790" /></linearGradient><linearGradient
     inkscape:collect="always"
     xlink:href="#linearGradient792"
     id="linearGradient794"
     x1="3"
     y1="10"
     x2="17"
     y2="10"
     gradientUnits="userSpaceOnUse" /></defs><sodipodi:namedview
   id="namedview3147"
   pagecolor="#ffffff"
   bordercolor="#666666"
   borderopacity="1.0"
   inkscape:showpageshadow="2"
   inkscape:pageopacity="0.0"
   inkscape:pagecheckerboard="0"
   inkscape:deskcolor="#d1d1d1"
   showgrid="false"
   inkscape:zoom="33.37544"
   inkscape:cx="4.7490011"
   inkscape:cy="9.1534374"
   inkscape:current-layer="svg3145" />
    <g
   fill="#ffffff"
   id="g3143"
   transform="translate(-3,-2.994)"
   style="fill-opacity:1;fill:url(#linearGradient794)">
        <g
   fill="#ffffff"
   id="g3139"
   style="fill-opacity:1;fill:url(#linearGradient794)">
            <path
   transform="translate(-486.004,-322.992)"
   d="m 489.004,329.998 v 2 h 1 v -1 h 1 v -1 z m 0,4 v 2 h 1 v -2 z m 0,4 v 2 h 2 v -1 h -1 v -1 z m 9,0 v 1 h -1 v 1 h 2 v -2 z m -5,1 v 1 h 2 v -1 z"
   fill="#ffffff"
   id="path3137"
   style="fill-opacity:1;fill:url(#linearGradient794)" />
        </g>
        <path
   fill="#ffffff"
   d="m 493.496,325.986 a 0.5,0.5 0 0 0 -0.5,0.502 l 0.008,4.006 a 0.5,0.5 0 0 0 0.5,0.5 h 4.5 v 4.502 a 0.5,0.5 0 0 0 0.5,0.5 h 4 a 0.5,0.5 0 0 0 0.5,-0.5 v -9 a 0.5,0.5 0 0 0 -0.5,-0.5 z"
   transform="translate(-486.004,-322.992)"
   id="path3141"
   style="fill:url(#linearGradient794);fill-opacity:1" />
    </g>
</svg>
