<?xml version="1.0" encoding="UTF-8" standalone="no"?>
<svg
   viewBox="0 0 14.000895 14"
   xml:space="preserve"
   version="1.1"
   id="svg632"
   sodipodi:docname="document-new.svg"
   inkscape:version="1.2.1 (9c6d41e410, 2022-07-14)"
   width="14.000895"
   height="14"
   xmlns:inkscape="http://www.inkscape.org/namespaces/inkscape"
   xmlns:sodipodi="http://sodipodi.sourceforge.net/DTD/sodipodi-0.dtd"
   xmlns="http://www.w3.org/2000/svg"
   xmlns:svg="http://www.w3.org/2000/svg"><defs
   id="defs636" /><sodipodi:namedview
   id="namedview634"
   pagecolor="#ffffff"
   bordercolor="#666666"
   borderopacity="1.0"
   inkscape:showpageshadow="2"
   inkscape:pageopacity="0.0"
   inkscape:pagecheckerboard="0"
   inkscape:deskcolor="#d1d1d1"
   showgrid="false"
   inkscape:zoom="23.6"
   inkscape:cx="3.940678"
   inkscape:cy="13.855932"
   inkscape:current-layer="svg632" />
    <g
   fill="#ffffff"
   id="g630"
   transform="translate(-2.9991054,-3)">
        <path
   d="m 264.5,688 a 3.5,3.5 0 1 0 0,7 3.5,3.5 0 0 0 0,-7 z m -0.5,1 h 1 v 2 h 2 v 1 h -2 v 2 h -1 v -2 h -2 v -1 h 2 z"
   fill="#ffffff"
   transform="translate(-251,-685)"
   id="path624" />
        <g
   fill="#ffffff"
   id="g628">
            <path
   fill="#ffffff"
   d="m 366.484,579 a 0.5,0.5 0 0 0 -0.338,0.146 l -3,3 A 0.5,0.5 0 0 0 363.5,583 h 3 a 0.5,0.5 0 0 0 0.5,-0.5 V 580 h 1.5 c 0.676,0.01 0.676,-1.01 0,-1 h -2 v 0.002 z M 363,584 v 7.5 a 0.5,0.5 0 0 0 0.5,0.5 h 10 a 0.5,0.5 0 0 0 0.5,-0.5 v -5 c 0.01,-0.676 -1.01,-0.676 -1,0 v 4.5 h -9 v -7 z"
   transform="translate(-360,-575)"
   id="path626" />
        </g>
    </g>
</svg>
