<?xml version="1.0" encoding="UTF-8" standalone="no"?>
<svg
   viewBox="0 0 14 14"
   xml:space="preserve"
   version="1.1"
   id="svg8"
   sodipodi:docname="document-print.svg"
   width="14"
   height="14"
   inkscape:version="1.2.1 (9c6d41e410, 2022-07-14)"
   xmlns:inkscape="http://www.inkscape.org/namespaces/inkscape"
   xmlns:sodipodi="http://sodipodi.sourceforge.net/DTD/sodipodi-0.dtd"
   xmlns="http://www.w3.org/2000/svg"
   xmlns:svg="http://www.w3.org/2000/svg"><defs
   id="defs12" /><sodipodi:namedview
   id="namedview10"
   pagecolor="#ffffff"
   bordercolor="#666666"
   borderopacity="1.0"
   inkscape:showpageshadow="2"
   inkscape:pageopacity="0.0"
   inkscape:pagecheckerboard="0"
   inkscape:deskcolor="#d1d1d1"
   showgrid="false"
   inkscape:zoom="16.68772"
   inkscape:cx="-0.32958367"
   inkscape:cy="4.6740957"
   inkscape:current-layer="svg8" />
    <g
   fill="#ffffff"
   id="g6"
   transform="translate(-3,-3)">
        <path
   fill="#ffffff"
   d="m 301.5,305 c -0.822,0 -1.5,0.678 -1.5,1.5 v 5 c 0,0.822 1,1.5 1.5,1.5 h 0.5 v -3 h -0.5 c -0.676,0.01 -0.676,-1.01 0,-1 h 11 c 0.676,-0.01 0.676,1.01 0,1 H 312 v 3 h 0.5 c 0.822,0 1.5,-0.678 1.5,-1.5 v -5 c 0,-0.822 -0.678,-1.5 -1.5,-1.5 H 302 Z"
   transform="translate(-297,-302)"
   id="path2" />
        <path
   fill="#ffffff"
   d="m 135,562 v 8.5 a 0.5,0.5 0 0 0 0.5,0.5 h 7 a 0.5,0.5 0 0 0 0.5,-0.5 V 562 Z m 6,2 c 0.546,0 1,0.454 1,1 0,0.546 -0.454,1 -1,1 -0.546,0 -1,-0.454 -1,-1 0,-0.546 0.454,-1 1,-1 z m -2.508,2 a 0.5,0.5 0 0 1 0.424,0.223 l 2,3 A 0.5,0.5 0 0 1 140.5,570 h -4 a 0.5,0.5 0 0 1 -0.416,-0.777 l 2,-3 A 0.501,0.501 0 0 1 138.492,566 Z"
   transform="translate(-129,-554)"
   id="path4" />
    </g>
</svg>
