<?xml version="1.0" encoding="UTF-8" standalone="no"?>
<svg
   viewBox="0 0 14.005635 14.004"
   xml:space="preserve"
   version="1.1"
   id="svg1364"
   sodipodi:docname="gimp-paste-into.svg"
   width="14.005635"
   height="14.004"
   inkscape:version="1.2.1 (9c6d41e410, 2022-07-14)"
   xmlns:inkscape="http://www.inkscape.org/namespaces/inkscape"
   xmlns:sodipodi="http://sodipodi.sourceforge.net/DTD/sodipodi-0.dtd"
   xmlns="http://www.w3.org/2000/svg"
   xmlns:svg="http://www.w3.org/2000/svg"><defs
   id="defs1368" /><sodipodi:namedview
   id="namedview1366"
   pagecolor="#ffffff"
   bordercolor="#666666"
   borderopacity="1.0"
   inkscape:showpageshadow="2"
   inkscape:pageopacity="0.0"
   inkscape:pagecheckerboard="0"
   inkscape:deskcolor="#d1d1d1"
   showgrid="false"
   inkscape:zoom="23.6"
   inkscape:cx="5.8262712"
   inkscape:cy="11.398305"
   inkscape:current-layer="svg1364" />
    <g
   fill="#ffffff"
   id="g1362"
   transform="translate(-2.997,-2.998)"
   style="fill:#ffffff;fill-opacity:1">
        <path
   transform="translate(147.997,-134.002)"
   fill="#ffffff"
   d="m -144.5,139 a 0.5,0.5 0 0 0 -0.5,0.5 v 9 a 0.5,0.5 0 0 0 0.5,0.5 h 9 c 0.107,0 0.2,-0.04 0.281,-0.098 l -3.342,-3.341 a 1.5004806,1.5004806 0 1 1 2.122,-2.122 l 1.439,1.44 V 139.5 a 0.5,0.5 0 0 0 -0.5,-0.5 h -1.484 l -0.016,0.5 v 0.5 h -6 v -0.5 l 0.016,-0.5 z m 5,-2 a 0.5,0.5 0 0 1 0.5,0.5 v 0.5 h 1.5 a 0.5,0.5 0 0 1 0.516,0.5 v 0.5 h -6 v -0.5 c 0,-0.253 0.149,-0.495 0.484,-0.5 h 1.5 v -0.5 a 0.5,0.5 0 0 1 0.5,-0.5 z"
   id="path1356"
   style="fill:#ffffff;fill-opacity:0.497326" />
        <g
   fill="#ffffff"
   id="g1360"
   style="fill:#ffffff;fill-opacity:1">
            <path
   fill="#ffffff"
   d="m -158.494,143.996 a 0.5,0.5 0 0 0 -0.05,0.004 h -3.94 a 0.5,0.5 0 1 0 0,1 h 2.793 l -5.147,5.147 a 0.5,0.5 0 1 0 0.707,0.707 l 5.147,-5.147 v 2.793 a 0.5,0.5 0 1 0 1,0 v -3.943 a 0.5,0.5 0 0 0 -0.51,-0.56 z"
   transform="matrix(1,0,0,-1,174.983,160.998)"
   id="path1358"
   style="fill:#ffffff;fill-opacity:1" />
        </g>
    </g>
<path
   style="fill:none;stroke:#ffffff;stroke-width:0.692509;stroke-linecap:butt;stroke-linejoin:miter;stroke-dasharray:1.38502, 0.692509;stroke-dashoffset:0;stroke-opacity:1"
   d="M 13.424817,8.2676045 V 0.38381332 H 6.799436"
   id="path16673" /></svg>
