<?xml version="1.0" encoding="UTF-8" standalone="no"?>
<svg
   viewBox="0 0 14 11"
   xml:space="preserve"
   version="1.1"
   id="svg17653"
   sodipodi:docname="gimp-vchain-broken.svg"
   inkscape:version="1.2.1 (9c6d41e410, 2022-07-14)"
   width="14"
   height="11"
   xmlns:inkscape="http://www.inkscape.org/namespaces/inkscape"
   xmlns:sodipodi="http://sodipodi.sourceforge.net/DTD/sodipodi-0.dtd"
   xmlns="http://www.w3.org/2000/svg"
   xmlns:svg="http://www.w3.org/2000/svg"><defs
   id="defs17657" /><sodipodi:namedview
   id="namedview17655"
   pagecolor="#ffffff"
   bordercolor="#666666"
   borderopacity="1.0"
   inkscape:showpageshadow="2"
   inkscape:pageopacity="0.0"
   inkscape:pagecheckerboard="0"
   inkscape:deskcolor="#d1d1d1"
   showgrid="false"
   inkscape:zoom="11.8"
   inkscape:cx="7.2457627"
   inkscape:cy="5.5084746"
   inkscape:current-layer="svg17653" />
    <path
   fill="#ffffff"
   d="M 3.5,0 A 3.508,3.508 0 0 0 0,3.5 V 4 H 1 V 3.5 C 1,2.113 2.113,1 3.5,1 4.887,1 6,2.113 6,3.5 V 5 H 5.5 A 0.5,0.5 0 0 0 5,5.5 v 5 A 0.5,0.5 0 0 0 5.5,11 h 8 A 0.5,0.5 0 0 0 14,10.5 v -5 A 0.5,0.5 0 0 0 13.5,5 H 7 V 3.5 C 7,1.573 5.427,0 3.5,0 Z M 6,6 h 7 v 4 H 6 Z m 3,1 h 1 V 9 H 9 Z"
   id="path17651" />
</svg>
