<?xml version="1.0" encoding="UTF-8" standalone="no"?>
<!-- Created with Inkscape (http://www.inkscape.org/) -->

<svg
   width="10.124239mm"
   height="10.24614mm"
   viewBox="0 0 10.124239 10.24614"
   version="1.1"
   id="svg5"
   xml:space="preserve"
   inkscape:version="1.2.1 (9c6d41e410, 2022-07-14)"
   sodipodi:docname="gimp-path-stroke.svg"
   xmlns:inkscape="http://www.inkscape.org/namespaces/inkscape"
   xmlns:sodipodi="http://sodipodi.sourceforge.net/DTD/sodipodi-0.dtd"
   xmlns="http://www.w3.org/2000/svg"
   xmlns:svg="http://www.w3.org/2000/svg"><sodipodi:namedview
     id="namedview7"
     pagecolor="#ffffff"
     bordercolor="#666666"
     borderopacity="1.0"
     inkscape:showpageshadow="2"
     inkscape:pageopacity="0.0"
     inkscape:pagecheckerboard="0"
     inkscape:deskcolor="#d1d1d1"
     inkscape:document-units="mm"
     showgrid="false"
     inkscape:zoom="0.5946522"
     inkscape:cx="556.62789"
     inkscape:cy="279.9956"
     inkscape:current-layer="layer1" /><defs
     id="defs2"><rect
       x="34.894348"
       y="60.960003"
       width="65.374352"
       height="40.990349"
       id="rect36501" /></defs><g
     inkscape:label="Layer 1"
     inkscape:groupmode="layer"
     id="layer1"
     style="display:inline"
     transform="translate(-58.870852,-52.865526)"><path
       style="fill:#ffffff;fill-opacity:1;stroke:none;stroke-width:0.264583px;stroke-linecap:butt;stroke-linejoin:miter;stroke-opacity:1"
       d="m 58.870852,60.428136 c 0,0 0.310492,-0.145968 0.444939,-0.250279 0.70965,-0.550583 1.043267,-1.579874 1.863177,-1.946604 0.499526,-0.223428 1.16002,-0.317126 1.640708,-0.05562 0.284874,0.154979 0.60216,0.454072 0.695215,0.764736 0.127782,0.426597 0.05497,1.003491 -0.13904,1.404334 -0.254443,0.525717 -0.855801,0.871489 -1.418238,1.02892 -0.54634,0.152925 -1.15495,0.03061 -1.696329,-0.139042 -0.511275,-0.160221 -1.390432,-0.806445 -1.390432,-0.806445 z"
       id="path5209"
       sodipodi:nodetypes="csssssssc" /><path
       style="fill:#ffffff;fill-opacity:1;stroke:none;stroke-width:0.264583px;stroke-linecap:butt;stroke-linejoin:miter;stroke-opacity:1"
       d="m 62.754899,57.810188 c 0,0 0.836406,0.01966 1.111697,1.120828 0,0 3.146467,-2.607619 4.321236,-4.2694 0.348836,-0.493449 1.032752,-1.430703 0.733315,-1.707365 -0.451275,-0.416952 -2.016403,0.739064 -2.699103,1.321248 -1.33352,1.137181 -3.467145,3.534689 -3.467145,3.534689 z"
       id="path5211"
       sodipodi:nodetypes="ccsssc" /><path
       style="fill:#95dab2;fill-opacity:1;stroke:none;stroke-width:0.264583px;stroke-linecap:butt;stroke-linejoin:miter;stroke-opacity:1"
       d="m 59.774632,61.735141 c 0,0 1.106222,0.390759 1.71023,0.319797 0.588929,-0.06919 1.166943,-0.380319 1.64071,-0.736927 0.309017,-0.232599 0.548977,-0.637647 0.889876,-0.820354 0.407031,-0.218151 0.804294,-0.195181 1.265292,-0.222468 0.584135,-0.03457 1.17816,-0.0036 1.751944,0.111233 0.586388,0.117329 1.696326,0.583981 1.696326,0.583981 0,0 -1.067027,0.06073 -1.585092,0.180758 -0.49841,0.115478 -1.100973,0.368469 -1.571188,0.570075 -0.821071,0.352037 -1.283331,0.791786 -2.12736,1.084536 -0.419936,0.145654 -1.112803,0.30592 -1.557282,0.305894 -0.420846,-2.4e-5 -1.05542,-0.162168 -1.418239,-0.375415 -0.436432,-0.25651 -0.695217,-1.00111 -0.695217,-1.00111 z"
       id="path5221"
       sodipodi:nodetypes="cssssscsssssc" /><text
       xml:space="preserve"
       transform="matrix(0.26458333,0,0,0.26458333,136.15269,48.132704)"
       id="text36499"
       style="font-size:40px;line-height:1.25;font-family:'Blender Mono I18n';-inkscape-font-specification:'Blender Mono I18n';white-space:pre;shape-inside:url(#rect36501);display:inline" /></g></svg>
