<?xml version="1.0" encoding="UTF-8" standalone="no"?>
<!-- Created with Inkscape (http://www.inkscape.org/) -->

<svg
   width="68.280937mm"
   height="57.43121mm"
   viewBox="0 0 68.280937 57.43121"
   version="1.1"
   id="svg5"
   inkscape:version="1.3 (0e150ed6c4, 2023-07-21)"
   sodipodi:docname="gimp-tool-flip.svg"
   xmlns:inkscape="http://www.inkscape.org/namespaces/inkscape"
   xmlns:sodipodi="http://sodipodi.sourceforge.net/DTD/sodipodi-0.dtd"
   xmlns="http://www.w3.org/2000/svg"
   xmlns:svg="http://www.w3.org/2000/svg">
  <sodipodi:namedview
     id="namedview7"
     pagecolor="#ffffff"
     bordercolor="#666666"
     borderopacity="1.0"
     inkscape:showpageshadow="2"
     inkscape:pageopacity="0.0"
     inkscape:pagecheckerboard="0"
     inkscape:deskcolor="#d1d1d1"
     inkscape:document-units="mm"
     showgrid="false"
     inkscape:zoom="3.3638608"
     inkscape:cx="139.42313"
     inkscape:cy="117.57324"
     inkscape:current-layer="layer1"
     inkscape:window-width="1920"
     inkscape:window-height="1017"
     inkscape:window-x="-8"
     inkscape:window-y="-8"
     inkscape:window-maximized="1" />
  <defs
     id="defs2" />
  <g
     inkscape:label="gimp-tool-flip"
     id="layer1"
     transform="translate(-54.800506,-46.183389)">
    <path
       style="color:#000000;fill:#c47f77;stroke-linecap:round;stroke-linejoin:round;-inkscape-stroke:none"
       d="m 57.310547,47.226562 a 1.4686469,1.4686469 0 0 0 -1.466797,1.46875 v 52.369138 a 1.4686469,1.4686469 0 0 0 1.466797,1.46875 h 27.201172 a 1.4686469,1.4686469 0 0 0 1.46875,-1.47656 L 85.720703,48.6875 a 1.4686469,1.4686469 0 0 0 -1.466797,-1.460938 z m 36.318359,0 a 1.4686469,1.4686469 0 0 0 -1.46875,1.460938 l -0.257812,52.36914 a 1.4686469,1.4686469 0 0 0 1.46875,1.47656 h 27.199216 a 1.4686469,1.4686469 0 0 0 1.46875,-1.46875 V 48.695312 a 1.4686469,1.4686469 0 0 0 -1.46875,-1.46875 z m -34.849609,2.935547 h 24.011719 l 0.24414,49.433594 H 58.779297 Z m 36.310547,0 H 119.10156 V 99.595703 H 94.845703 Z"
       id="path297" />
    <rect
       style="fill:#ffffff;fill-opacity:1;stroke:none;stroke-width:4.81658;stroke-linecap:round;stroke-linejoin:round;stroke-dasharray:none;stroke-opacity:1;paint-order:stroke markers fill"
       id="rect1844"
       width="14.389949"
       height="6.4297109"
       x="74.415321"
       y="71.68721" />
    <path
       style="fill:#ffffff;fill-opacity:1;stroke:none;stroke-width:0.298801px;stroke-linecap:butt;stroke-linejoin:miter;stroke-opacity:1"
       d="M 73.073641,67.544017 V 82.115948 L 61.39097,74.578741 Z"
       id="path1898" />
    <rect
       style="fill:#ffffff;fill-opacity:1;stroke:none;stroke-width:4.81658;stroke-linecap:round;stroke-linejoin:round;stroke-dasharray:none;stroke-opacity:1;paint-order:stroke markers fill"
       id="rect1844-0"
       width="14.389949"
       height="6.4297109"
       x="-103.1073"
       y="71.671165"
       transform="scale(-1,1)" />
    <path
       style="fill:#ffffff;fill-opacity:1;stroke:none;stroke-width:0.298801px;stroke-linecap:butt;stroke-linejoin:miter;stroke-opacity:1"
       d="m 104.44898,67.527971 v 14.571931 l 11.68267,-7.537207 z"
       id="path1898-0" />
  </g>
</svg>
