<?xml version="1.0" encoding="UTF-8" standalone="no"?>
<!-- Created with Inkscape (http://www.inkscape.org/) -->

<svg
   width="9.9720201mm"
   height="10.525592mm"
   viewBox="0 0 9.9720201 10.525593"
   version="1.1"
   id="svg5"
   xml:space="preserve"
   inkscape:version="1.3 (0e150ed6c4, 2023-07-21)"
   sodipodi:docname="gimp-tool-bucket-fill-symbolic.svg"
   xmlns:inkscape="http://www.inkscape.org/namespaces/inkscape"
   xmlns:sodipodi="http://sodipodi.sourceforge.net/DTD/sodipodi-0.dtd"
   xmlns:xlink="http://www.w3.org/1999/xlink"
   xmlns="http://www.w3.org/2000/svg"
   xmlns:svg="http://www.w3.org/2000/svg"><sodipodi:namedview
     id="namedview7"
     pagecolor="#ffffff"
     bordercolor="#666666"
     borderopacity="1.0"
     inkscape:showpageshadow="2"
     inkscape:pageopacity="0.0"
     inkscape:pagecheckerboard="0"
     inkscape:deskcolor="#d1d1d1"
     inkscape:document-units="mm"
     showgrid="false"
     inkscape:zoom="19.02887"
     inkscape:cx="18.498208"
     inkscape:cy="20.521449"
     inkscape:current-layer="layer1"
     inkscape:window-width="1920"
     inkscape:window-height="1017"
     inkscape:window-x="-8"
     inkscape:window-y="-8"
     inkscape:window-maximized="1" /><defs
     id="defs2"><linearGradient
       id="linearGradient863"
       inkscape:swatch="solid"><stop
         style="stop-color:#bfbfbf;stop-opacity:1;"
         offset="0"
         id="stop861" /></linearGradient><linearGradient
       id="linearGradient855"
       inkscape:swatch="solid"><stop
         style="stop-color:#000000;stop-opacity:1;"
         offset="0"
         id="stop853" /></linearGradient><linearGradient
       id="linearGradient847"
       inkscape:swatch="solid"><stop
         style="stop-color:#bfbfbf;stop-opacity:1;"
         offset="0"
         id="stop845" /></linearGradient><linearGradient
       inkscape:collect="always"
       xlink:href="#linearGradient847"
       id="linearGradient849"
       x1="63.592294"
       y1="132.42495"
       x2="68.429554"
       y2="132.42495"
       gradientUnits="userSpaceOnUse" /><linearGradient
       inkscape:collect="always"
       xlink:href="#linearGradient847"
       id="linearGradient851"
       x1="59.674684"
       y1="134.13477"
       x2="63.051986"
       y2="134.13477"
       gradientUnits="userSpaceOnUse" /><linearGradient
       inkscape:collect="always"
       xlink:href="#linearGradient863"
       id="linearGradient865"
       x1="64.863623"
       y1="127.87124"
       x2="66.998572"
       y2="127.87124"
       gradientUnits="userSpaceOnUse" /><linearGradient
       inkscape:collect="always"
       xlink:href="#linearGradient863"
       id="linearGradient867"
       x1="61.238089"
       y1="130.74841"
       x2="69.646704"
       y2="130.74841"
       gradientUnits="userSpaceOnUse" /></defs><g
     inkscape:label="gimp-tool-bucket-fill"
     id="layer1"
     style="display:inline"
     transform="translate(-59.674684,-125.88564)"><path
       style="opacity:0.5;fill:url(#linearGradient851);fill-opacity:1;stroke:none;stroke-width:0.173273px;stroke-linecap:butt;stroke-linejoin:miter;stroke-opacity:1"
       d="m 61.349368,131.85831 c 0,0 -1.226347,1.23282 -1.529774,2.02149 -0.15097,0.3924 -0.211596,1.09798 -0.04553,1.48424 0.269616,0.6271 0.810759,1.05143 1.538879,1.04716 0.824087,-0.005 1.33603,-0.50512 1.648149,-1.13821 0.139816,-0.28361 0.09841,-0.88955 0.0091,-1.19287 -0.258901,-0.87941 -1.620835,-2.22181 -1.620835,-2.22181 z"
       id="path5289"
       sodipodi:nodetypes="csssssc" /><path
       style="opacity:0.5;fill:url(#linearGradient849);fill-opacity:1;stroke:none;stroke-width:0.264583px;stroke-linecap:butt;stroke-linejoin:miter;stroke-opacity:1"
       d="m 63.592294,131.19597 h 4.83726 l -2.457958,2.45796 z"
       id="path5291" /><path
       style="color:#000000;fill:url(#linearGradient867);stroke-linejoin:bevel;-inkscape-stroke:none"
       d="m 65.017578,126.81055 c -1.259792,1.28978 -3.779331,3.86937 -3.779331,3.86937 l 0.394531,0.40625 c 0,0 0.205613,-0.19173 0.308628,-0.28734 1.254492,1.27417 2.651209,2.63061 3.886719,3.88476 l 0.398437,0.004 3.419922,-3.3418 -0.002,-0.4082 c 0,0 -2.86709,-2.72396 -4.222656,-4.12695 z m 0.207031,0.59765 c 1.364252,1.39147 3.575204,3.5012 3.820313,3.73438 l -3.013672,2.94531 c -1.20099,-1.21318 -2.519604,-2.50022 -3.708984,-3.70898 z"
       id="path5293"
       sodipodi:nodetypes="ccccccccccccccc" /><path
       style="color:#000000;fill:url(#linearGradient865);-inkscape-stroke:none"
       d="m 65.953125,125.88477 c -0.200447,-2e-5 -0.414268,0.0462 -0.601563,0.15234 -0.187294,0.10618 -0.359569,0.30165 -0.367187,0.55859 -0.0402,1.35429 -0.121094,3.24219 -0.121094,3.24219 l 0.464844,0.0195 c 0,0 0.08072,-1.88811 0.121094,-3.24804 0.002,-0.0669 0.03552,-0.11282 0.132812,-0.16797 0.09729,-0.0552 0.247606,-0.0899 0.371094,-0.0898 0.322867,4e-5 0.57142,0.27471 0.570312,0.49024 -0.0045,0.88727 0.0098,1.69922 0.0098,1.69922 l 0.464844,-0.008 c 0,0 -0.01425,-0.80705 -0.0098,-1.6875 0.0027,-0.51869 -0.4639,-0.96087 -1.035156,-0.96093 z"
       id="path5295" /></g></svg>
