<?xml version="1.0" encoding="UTF-8" standalone="no"?>
<svg
   viewBox="0 0 14 14"
   xml:space="preserve"
   version="1.1"
   id="svg20690"
   sodipodi:docname="gimp-tool-path.svg"
   width="14"
   height="14"
   inkscape:version="1.2.1 (9c6d41e410, 2022-07-14)"
   xmlns:inkscape="http://www.inkscape.org/namespaces/inkscape"
   xmlns:sodipodi="http://sodipodi.sourceforge.net/DTD/sodipodi-0.dtd"
   xmlns:xlink="http://www.w3.org/1999/xlink"
   xmlns="http://www.w3.org/2000/svg"
   xmlns:svg="http://www.w3.org/2000/svg"><defs
   id="defs20694"><linearGradient
     id="linearGradient735"
     inkscape:swatch="solid"><stop
       style="stop-color:#bfbfbf;stop-opacity:1;"
       offset="0"
       id="stop733" /></linearGradient><linearGradient
     inkscape:collect="always"
     xlink:href="#linearGradient735"
     id="linearGradient737"
     x1="0"
     y1="7"
     x2="14"
     y2="7"
     gradientUnits="userSpaceOnUse" /><linearGradient
     inkscape:collect="always"
     xlink:href="#linearGradient735"
     id="linearGradient1732"
     gradientUnits="userSpaceOnUse"
     x1="0"
     y1="7"
     x2="14"
     y2="7"
     gradientTransform="translate(7.1140304,1.2279029)" /><linearGradient
     inkscape:collect="always"
     xlink:href="#linearGradient735"
     id="linearGradient1764"
     gradientUnits="userSpaceOnUse"
     gradientTransform="translate(3.1085996,11.224891)"
     x1="0"
     y1="7"
     x2="14"
     y2="7" /></defs><sodipodi:namedview
   id="namedview20692"
   pagecolor="#ffffff"
   bordercolor="#666666"
   borderopacity="1.0"
   inkscape:showpageshadow="2"
   inkscape:pageopacity="0.0"
   inkscape:pagecheckerboard="0"
   inkscape:deskcolor="#d1d1d1"
   showgrid="false"
   inkscape:zoom="64"
   inkscape:cx="4.1640625"
   inkscape:cy="9.953125"
   inkscape:current-layer="svg20690" />
    <path
   style="opacity:1;fill:url(#linearGradient1732);fill-opacity:1"
   d="m 4.5054308,0.00691878 c -0.2761424,0 -0.5,0.2238577 -0.5,0.5000001 V 3.5069188 c 0,0.2761424 0.2238576,0.5 0.5,0.5 h 3 c 0.2761424,0 0.5,-0.2238576 0.5,-0.5 v -1.4999999 -1 -0.50000002 c 0,-0.2761424 -0.2238576,-0.5000001 -0.5,-0.5000001 z m 0.5,1.00000012 h 2 v 1.9999999 h -2 z"
   id="path1730" /><path
   style="fill:url(#linearGradient1764);fill-opacity:1"
   d="m 0.5,10.003906 c -0.2761424,0 -0.5,0.223858 -0.5,0.500001 v 2.999999 c 0,0.276142 0.2238576,0.5 0.5,0.5 h 3 c 0.2761424,0 0.5,-0.223858 0.5,-0.5 v -1.499999 -1 -0.5 C 4,10.227764 3.7761424,10.003906 3.5,10.003906 Z M 1,11.003907 h 2 v 1.999999 H 1 Z"
   id="path1730-9" /><path
   style="opacity:0.5;fill:url(#linearGradient737);fill-opacity:1"
   d="M 4.5,0 C 4.2238576,0 4,0.22385763 4,0.5 v 3 C 4,3.7761424 4.2238576,4 4.5,4 h 3 C 7.7761424,4 8,3.7761424 8,3.5 V 2 H 8.5 C 9.793,2 10.926,2.352 11.719,3.01 12.512,3.667 13,4.624 13,6 13,7.583 12.219,9.055 10.76,10.164 9.3,11.273 7.16,12 4.5,12 H 4 V 10.5 C 4,10.223858 3.7761424,10 3.5,10 h -3 C 0.22385763,10 0,10.223858 0,10.5 v 3 C 0,13.776142 0.22385763,14 0.5,14 h 3 C 3.7761424,14 4,13.776142 4,13.5 V 13 H 4.5 C 7.34,13 9.7,12.227 11.365,10.96 13.031,9.696 14,7.918 14,6 14,4.376 13.373,3.083 12.357,2.24 11.342,1.398 9.974,1 8.5,1 H 8 V 0.5 C 8,0.22385763 7.7761424,0 7.5,0 Z M 5,1 H 7 V 3 H 5 Z M 1,11 h 2 v 2 H 1 Z"
   id="path20688"
   sodipodi:insensitive="true" />
</svg>
