<?xml version="1.0" encoding="UTF-8" standalone="no"?>
<!-- Created with Inkscape (http://www.inkscape.org/) -->

<svg
   width="21.70771mm"
   height="23.498983mm"
   viewBox="0 0 21.707711 23.498983"
   version="1.1"
   id="svg5"
   xml:space="preserve"
   inkscape:version="1.2.2 (732a01da63, 2022-12-09, custom)"
   sodipodi:docname="gimp-tool-transform-3d.svg"
   xmlns:inkscape="http://www.inkscape.org/namespaces/inkscape"
   xmlns:sodipodi="http://sodipodi.sourceforge.net/DTD/sodipodi-0.dtd"
   xmlns:xlink="http://www.w3.org/1999/xlink"
   xmlns="http://www.w3.org/2000/svg"
   xmlns:svg="http://www.w3.org/2000/svg"><sodipodi:namedview
     id="namedview7"
     pagecolor="#ffffff"
     bordercolor="#666666"
     borderopacity="1.0"
     inkscape:showpageshadow="2"
     inkscape:pageopacity="0.0"
     inkscape:pagecheckerboard="0"
     inkscape:deskcolor="#d1d1d1"
     inkscape:document-units="mm"
     showgrid="false"
     inkscape:zoom="9.5144352"
     inkscape:cx="44.038347"
     inkscape:cy="34.316278"
     inkscape:current-layer="svg5" /><defs
     id="defs2"><linearGradient
       inkscape:collect="always"
       id="linearGradient17422"><stop
         style="stop-color:#c47f77;stop-opacity:1;"
         offset="0"
         id="stop17418" /><stop
         style="stop-color:#c47f77;stop-opacity:0;"
         offset="1"
         id="stop17420" /></linearGradient><linearGradient
       inkscape:collect="always"
       xlink:href="#linearGradient17422"
       id="linearGradient17424"
       x1="15.674565"
       y1="8.4746885"
       x2="27.318262"
       y2="8.4746885"
       gradientUnits="userSpaceOnUse" /></defs><g
     inkscape:label="Layer 1"
     inkscape:groupmode="layer"
     id="layer1"
     transform="translate(-18.354985,-9.2475385)"><path
       style="fill:none;stroke:#c47f77;stroke-width:1.265;stroke-linecap:butt;stroke-linejoin:miter;stroke-dasharray:none;stroke-opacity:1"
       d="M 18.987485,11.588419 V 32.746522"
       id="path17426" /><path
       style="fill:none;stroke:#c47f77;stroke-width:1.265;stroke-linecap:butt;stroke-linejoin:miter;stroke-dasharray:none;stroke-opacity:1"
       d="M 39.226207,23.830399 19.287251,25.954073"
       id="path17426-3"
       sodipodi:nodetypes="cc" /><path
       style="fill:none;stroke:#c47f77;stroke-width:1.265;stroke-linecap:butt;stroke-linejoin:miter;stroke-dasharray:none;stroke-opacity:1"
       d="m 39.049234,19.504392 -20.135593,0.03933"
       id="path17426-3-0"
       sodipodi:nodetypes="cc" /><path
       style="fill:none;stroke:#c47f77;stroke-width:1.265;stroke-linecap:round;stroke-linejoin:miter;stroke-dasharray:none;stroke-opacity:1"
       d="M 25.854915,13.841257 V 30.122771"
       id="path17426-1"
       sodipodi:nodetypes="cc" /><path
       style="fill:none;stroke:#c47f77;stroke-width:1.265;stroke-linecap:round;stroke-linejoin:miter;stroke-dasharray:none;stroke-opacity:1"
       d="m 33.523745,17.931299 v 11.32627"
       id="path17426-1-0"
       sodipodi:nodetypes="cc" /><path
       style="fill:none;stroke:#c47f77;stroke-width:1.265;stroke-linecap:butt;stroke-linejoin:miter;stroke-dasharray:none;stroke-opacity:1"
       d="m 19.500996,32.084367 19.784202,-3.59368"
       id="path17426-9"
       sodipodi:nodetypes="cc" /><path
       style="fill:none;stroke:#c47f77;stroke-width:1.265;stroke-linecap:round;stroke-linejoin:miter;stroke-dasharray:none;stroke-opacity:1"
       d="m 19.361492,12.243359 7.271745,1.096899"
       id="path17426-9-8"
       sodipodi:nodetypes="cc" /><path
       style="fill:none;stroke:#c47f77;stroke-width:0.990732;stroke-linecap:round;stroke-linejoin:miter;stroke-dasharray:none;stroke-opacity:1"
       d="M 39.18688,17.942139 V 28.66766"
       id="path17426-5"
       sodipodi:nodetypes="cc" /></g><g
     aria-label="3D"
     id="text17343"
     style="font-size:10.5833px;line-height:1.25;font-family:'Blender Mono I18n';-inkscape-font-specification:'Blender Mono I18n';fill:#fefefe;stroke-width:0.264583"><path
       d="m 11.69624,3.8165633 q 0.749306,0.1601965 1.167883,0.6666239 0.423746,0.5064274 0.423746,1.2505657 0,1.1420455 -0.78548,1.7673283 -0.785479,0.6252829 -2.232414,0.6252829 -0.4857573,0 -1.00252,-0.098185 Q 8.75586,7.9351619 8.2080916,7.7439597 V 6.7362725 q 0.4340806,0.2532137 0.9508433,0.3824044 0.5167627,0.1291906 1.0800341,0.1291906 0.981849,0 1.493444,-0.387572 0.516763,-0.387572 0.516763,-1.1265426 0,-0.6821268 -0.48059,-1.0645311 -0.475421,-0.387572 -1.32808,-0.387572 H 9.5413393 V 3.4238237 h 0.9405077 q 0.769977,0 1.178219,-0.30489 0.408243,-0.3100576 0.408243,-0.8888318 0,-0.5942771 -0.423746,-0.9095023 -0.418577,-0.3203929 -1.204057,-0.3203929 -0.428913,0 -0.9198372,0.093017 -0.4909246,0.093017 -1.080034,0.2893871 V 0.45243831 q 0.594277,-0.16536406 1.1110397,-0.24804609 0.5219305,-0.082682 0.9818495,-0.082682 1.188554,0 1.881016,0.54260081 0.692462,0.53743319 0.692462,1.45727079 0,0.6407857 -0.366902,1.0852016 -0.366901,0.4392483 -1.04386,0.6097799 z"
       id="path12405" /><path
       d="m 16.217913,1.1190622 v 5.9996147 h 1.260901 q 1.596796,0 2.335767,-0.7234678 0.744138,-0.7234677 0.744138,-2.284091 0,-1.5502881 -0.744138,-2.2685882 Q 19.07561,1.1190622 17.478814,1.1190622 Z M 15.174052,0.26123612 h 2.144565 q 2.24275,0 3.291779,0.93534048 1.049028,0.9301728 1.049028,2.9145415 0,1.9947039 -1.054196,2.9300443 -1.054196,0.9353405 -3.286611,0.9353405 h -2.144565 z"
       id="path12407" /></g></svg>
