<?xml version="1.0" encoding="UTF-8" standalone="no"?>
<svg
   viewBox="0 0 14 14"
   xml:space="preserve"
   version="1.1"
   id="svg6179"
   sodipodi:docname="gimp-duplicate.svg"
   width="14"
   height="14"
   inkscape:version="1.2.1 (9c6d41e410, 2022-07-14)"
   xmlns:inkscape="http://www.inkscape.org/namespaces/inkscape"
   xmlns:sodipodi="http://sodipodi.sourceforge.net/DTD/sodipodi-0.dtd"
   xmlns="http://www.w3.org/2000/svg"
   xmlns:svg="http://www.w3.org/2000/svg"><defs
   id="defs6183" /><sodipodi:namedview
   id="namedview6181"
   pagecolor="#ffffff"
   bordercolor="#666666"
   borderopacity="1.0"
   inkscape:showpageshadow="2"
   inkscape:pageopacity="0.0"
   inkscape:pagecheckerboard="0"
   inkscape:deskcolor="#d1d1d1"
   showgrid="false"
   inkscape:zoom="11.8"
   inkscape:cx="7.0762712"
   inkscape:cy="7.0338983"
   inkscape:current-layer="svg6179" />
    <g
   fill="#ffffff"
   id="g6177"
   transform="translate(-3,-3)">
        <path
   fill="#ffffff"
   d="m -467.5,287 a 0.5,0.5 0 0 0 -0.5,0.5 v 10 a 0.5,0.5 0 0 0 0.5,0.5 h 2.5 v -1 h -2 v -9 h 9 v 2 h 1 v -2.5 a 0.5,0.5 0 0 0 -0.5,-0.5 z"
   transform="matrix(1,0,0,-1,471,304)"
   id="path6173" />
        <path
   fill="#ffffff"
   d="m -463.5,301 a 0.5,0.5 0 0 1 -0.5,-0.5 v -9 a 0.5,0.5 0 0 1 0.5,-0.5 h 9 a 0.5,0.5 0 0 1 0.5,0.5 v 4.5 h -1 v -4 h -8 v 8 h 5 v -2.5 a 0.5,0.5 0 0 1 0.5,-0.5 h 3.5 v 0.5 a 0.5,0.5 0 0 1 -0.147,0.354 l -3,3 A 0.5,0.5 0 0 1 -457.5,301 Z"
   transform="matrix(1,0,0,-1,471,304)"
   id="path6175" />
    </g>
</svg>
