<?xml version="1.0" encoding="UTF-8" standalone="no"?>
<!-- Created with Inkscape (http://www.inkscape.org/) -->

<svg
   width="5.9330072mm"
   height="6.0882854mm"
   viewBox="0 0 5.9330072 6.0882855"
   version="1.1"
   id="svg5"
   inkscape:version="1.3 (0e150ed6c4, 2023-07-21)"
   sodipodi:docname="gimp-tool-free-select.svg"
   xmlns:inkscape="http://www.inkscape.org/namespaces/inkscape"
   xmlns:sodipodi="http://sodipodi.sourceforge.net/DTD/sodipodi-0.dtd"
   xmlns="http://www.w3.org/2000/svg"
   xmlns:svg="http://www.w3.org/2000/svg">
  <sodipodi:namedview
     id="namedview7"
     pagecolor="#ffffff"
     bordercolor="#666666"
     borderopacity="1.0"
     inkscape:pageshadow="2"
     inkscape:pageopacity="0.0"
     inkscape:pagecheckerboard="0"
     inkscape:document-units="mm"
     showgrid="false"
     inkscape:zoom="15.460957"
     inkscape:cx="12.677094"
     inkscape:cy="19.112659"
     inkscape:window-width="1920"
     inkscape:window-height="1017"
     inkscape:window-x="-8"
     inkscape:window-y="-8"
     inkscape:window-maximized="1"
     inkscape:current-layer="layer1"
     inkscape:showpageshadow="2"
     inkscape:deskcolor="#d1d1d1" />
  <defs
     id="defs2" />
  <g
     inkscape:label="gimp-tool-free-select"
     id="layer1"
     transform="translate(14.791491,-16.934861)">
    <path
       style="color:#000000;fill:#ffffff;stroke-linejoin:round;stroke-dasharray:1.06, 0.265;stroke-dashoffset:0.583;-inkscape-stroke:none"
       d="m -11.462891,17.041016 c -0.357516,0.0073 -0.713898,0.04289 -1.064561,0.11151 0.03716,0.07283 0.0099,0.241073 0.08857,0.25244 0.327843,-0.05987 0.660247,-0.09418 0.993497,-0.100138 -0.01289,-0.08087 0.0251,-0.212633 -0.01762,-0.263671 z m 0.28711,0.002 c 0.01745,0.07973 -0.05049,0.238704 0.02255,0.266852 0.324922,0.01726 0.654501,0.06182 0.955923,0.190263 0.01102,-0.08016 0.130964,-0.205477 0.07162,-0.256467 -0.331654,-0.136863 -0.693551,-0.184303 -1.050101,-0.200648 z m -1.615235,0.169922 c -0.355305,0.09048 -0.701792,0.221135 -1.017774,0.40831 0.05871,0.05654 0.09139,0.221189 0.166534,0.209015 0.287049,-0.164169 0.599543,-0.279734 0.919405,-0.361346 -0.02272,-0.08533 -0.04544,-0.170653 -0.06817,-0.255979 z m 2.9511722,0.175781 c -0.024834,0.07694 -0.1646942,0.176813 -0.1159243,0.239084 0.2591989,0.165009 0.4449817,0.440441 0.4909242,0.745289 0.073334,-0.03478 0.2429929,-0.0029 0.2541392,-0.08071 -0.066519,-0.373718 -0.303549,-0.709874 -0.6291391,-0.903659 z m -4.1953122,0.384765 c -0.306928,0.230001 -0.580955,0.552536 -0.629195,0.94535 0.08103,-0.0093 0.230264,0.07507 0.267258,0.0052 0.05111,-0.307962 0.276132,-0.552356 0.51592,-0.73566 -0.05133,-0.07163 -0.102655,-0.143267 -0.153983,-0.2149 z m 4.5878904,0.835938 c -0.028586,0.350387 -2.207e-4,0.702457 -0.03125,1.052826 0.079419,-0.01539 0.2365016,0.0579 0.2657982,-0.01473 0.031664,-0.342937 0.00339,-0.688723 0.031074,-1.032278 -0.088541,-0.0019 -0.1770812,-0.0039 -0.2656218,-0.0058 z m -4.9453124,0.361328 c -0.07183,0.03797 -0.243097,0.01406 -0.250532,0.0921 0.09117,0.374631 0.397071,0.652325 0.721349,0.835842 0.02141,-0.0779 0.156991,-0.186485 0.104703,-0.244581 -0.257085,-0.154232 -0.51402,-0.375592 -0.57552,-0.683359 z m 0.832031,0.818359 c -0.01784,0.07961 -0.146635,0.194688 -0.09235,0.251233 0.301879,0.155779 0.60334,0.312789 0.895087,0.487047 0.02315,-0.07819 0.159363,-0.18292 0.109402,-0.243943 -0.29932,-0.174859 -0.605321,-0.335596 -0.912139,-0.494337 z m 4.0585939,0.134766 c -0.051868,0.363896 0.020974,0.725995 0.078117,1.08417 0.075484,-0.03166 0.2444023,0.0057 0.2588007,-0.07107 -0.057506,-0.325308 -0.1186325,-0.65624 -0.073248,-0.987511 -0.08789,-0.0085 -0.1757799,-0.01706 -0.2636698,-0.02559 z m -2.8906249,0.519531 c -0.0255,0.07676 -0.166337,0.177073 -0.117592,0.238663 0.275805,0.180343 0.536959,0.387909 0.748461,0.642198 0.04622,-0.06656 0.209726,-0.124003 0.180101,-0.196458 -0.229827,-0.270603 -0.511933,-0.493341 -0.81097,-0.684403 z m 2.9843749,0.804688 c -0.03474,0.331716 -0.1095306,0.66318 -0.246095,0.968756 0.079431,0.01557 0.1980854,0.142372 0.2521412,0.08597 0.1446884,-0.330712 0.2247541,-0.688744 0.2595631,-1.047027 -0.088536,-0.0026 -0.1770729,-0.0051 -0.2656093,-0.0077 z m -1.9824219,0.121094 c -0.05161,0.06243 -0.219382,0.105877 -0.195925,0.18057 0.146573,0.213799 0.278602,0.437489 0.395153,0.669042 0.131176,-0.07051 0.164965,-0.08796 0.01522,-0.0054 -0.0047,0.06683 0.07849,0.1553 0.119352,0.224646 0.04954,0.07027 0.106641,0.135226 0.166223,0.196934 0.04174,-0.06955 0.201158,-0.138491 0.166559,-0.208441 -0.234239,-0.251447 -0.342013,-0.587066 -0.537214,-0.86613 -0.04174,-0.06463 -0.08279,-0.129803 -0.129366,-0.191211 z m 1.6132812,1.060546 c -0.1285042,0.206115 -0.3993112,0.334849 -0.6308592,0.22274 -0.106275,-0.09392 -0.153692,-0.0028 -0.207855,0.09368 -0.110265,0.08573 0.03793,0.115674 0.10435,0.150595 0.29685,0.138191 0.6639728,0.03668 0.8692032,-0.21296 0.10786,-0.07832 0.074022,-0.140867 -0.036547,-0.187303 -0.032764,-0.02225 -0.065528,-0.0445 -0.098292,-0.06675 z"
       id="path12202" />
    <path
       style="fill:#e5e5e5;fill-opacity:1;stroke:none;stroke-width:0.286803px;stroke-linecap:butt;stroke-linejoin:miter;stroke-opacity:1"
       d="m -12.280943,18.379034 -0.05597,3.092371 1.071513,-1.009365 h 0.989429 z"
       id="path10528"
       sodipodi:nodetypes="ccccc" />
  </g>
</svg>
