<?xml version="1.0" encoding="UTF-8" standalone="no"?>
<svg
   version="1.1"
   id="Layer_1"
   x="0"
   y="0"
   viewBox="0 0 14 14"
   fill="#ffffff"
   xml:space="preserve"
   sodipodi:docname="gimp-layer.svg"
   width="14"
   height="14"
   inkscape:version="1.2.1 (9c6d41e410, 2022-07-14)"
   xmlns:inkscape="http://www.inkscape.org/namespaces/inkscape"
   xmlns:sodipodi="http://sodipodi.sourceforge.net/DTD/sodipodi-0.dtd"
   xmlns="http://www.w3.org/2000/svg"
   xmlns:svg="http://www.w3.org/2000/svg"><defs
   id="defs13856" /><sodipodi:namedview
   id="namedview13854"
   pagecolor="#ffffff"
   bordercolor="#666666"
   borderopacity="1.0"
   inkscape:showpageshadow="2"
   inkscape:pageopacity="0.0"
   inkscape:pagecheckerboard="0"
   inkscape:deskcolor="#d1d1d1"
   showgrid="false"
   inkscape:zoom="11.8"
   inkscape:cx="6.059322"
   inkscape:cy="7.0338983"
   inkscape:current-layer="Layer_1" />
	<g
   fill="#ffffff"
   id="g13851"
   style="fill:#b97e4d;fill-opacity:1"
   transform="translate(-3,-3)">
    <path
   d="M 8.5,8 C 8.7,8 8.9,8.1 9,8.3 l 3,6 c 0.1,0.2 0,0.5 -0.2,0.7 -0.1,0 -0.1,0.1 -0.2,0.1 h -6 C 5.2,15 5,14.8 5,14.5 5,14.4 5,14.3 5.1,14.3 l 3,-6 C 8.1,8.1 8.3,8 8.5,8 Z"
   id="path6"
   style="fill:#b97e4d;fill-opacity:1" />
    <path
   d="M 13.5,6 C 14.3,6 15,6.7 15,7.5 15,8.3 14.3,9 13.5,9 12.7,9 12,8.3 12,7.5 12,6.7 12.7,6 13.5,6 Z"
   id="path8"
   style="fill:#b97e4d;fill-opacity:1" />
    <path
   d="M 16,4 V 16 H 4 V 4 H 16 M 16.5,3 H 3.5 C 3.2,3 3,3.2 3,3.5 v 13 C 3,16.8 3.2,17 3.5,17 h 13 C 16.8,17 17,16.8 17,16.5 V 3.5 C 17,3.2 16.8,3 16.5,3 Z"
   id="path10"
   style="fill:#b97e4d;fill-opacity:1" />
	</g>
</svg>
