<?xml version="1.0" encoding="UTF-8" standalone="no"?>
<!-- Created with Inkscape (http://www.inkscape.org/) -->

<svg
   width="32.893539mm"
   height="30.463943mm"
   viewBox="0 0 32.893539 30.463947"
   version="1.1"
   id="svg5"
   xml:space="preserve"
   inkscape:version="1.2.2 (732a01da63, 2022-12-09, custom)"
   sodipodi:docname="gimp-tool-offset.svg"
   xmlns:inkscape="http://www.inkscape.org/namespaces/inkscape"
   xmlns:sodipodi="http://sodipodi.sourceforge.net/DTD/sodipodi-0.dtd"
   xmlns="http://www.w3.org/2000/svg"
   xmlns:svg="http://www.w3.org/2000/svg"><sodipodi:namedview
     id="namedview7"
     pagecolor="#ffffff"
     bordercolor="#666666"
     borderopacity="1.0"
     inkscape:showpageshadow="2"
     inkscape:pageopacity="0.0"
     inkscape:pagecheckerboard="0"
     inkscape:deskcolor="#d1d1d1"
     inkscape:document-units="mm"
     showgrid="false"
     inkscape:zoom="4.7572176"
     inkscape:cx="70.419315"
     inkscape:cy="55.599728"
     inkscape:current-layer="layer1" /><defs
     id="defs2"><rect
       x="34.894347"
       y="60.960003"
       width="65.374348"
       height="40.990347"
       id="rect36501" /></defs><g
     inkscape:label="Layer 1"
     inkscape:groupmode="layer"
     id="layer1"
     style="display:inline"
     transform="translate(-136.15269,-48.132704)"><rect
       style="fill:#303030;fill-opacity:1;stroke:#ffffff;stroke-width:1.297;stroke-linecap:square;stroke-linejoin:round;stroke-dasharray:none;stroke-dashoffset:2.20346;stroke-opacity:1;paint-order:markers stroke fill"
       id="rect28619"
       width="28.443914"
       height="29.166943"
       x="138.37341"
       y="48.781204"
       ry="2.202167" /><rect
       style="fill:#3c3c83;fill-opacity:1;stroke:none;stroke-width:0.812654;stroke-linecap:square;stroke-linejoin:miter;stroke-dasharray:none;stroke-dashoffset:2.20346;stroke-opacity:1;paint-order:markers stroke fill"
       id="rect29296"
       width="28.422314"
       height="9.6197767"
       x="138.37965"
       y="50.772751"
       ry="0.03471154" /><rect
       style="fill:#3c3c83;fill-opacity:1;stroke:none;stroke-width:0.865;stroke-linecap:square;stroke-linejoin:miter;stroke-dasharray:none;stroke-dashoffset:2.20346;stroke-opacity:1;paint-order:markers stroke fill"
       id="rect29764"
       width="28.432209"
       height="4.3347778"
       x="138.40117"
       y="48.768524"
       ry="2.0985661"
       rx="1.9857808" /><rect
       style="fill:#262649;fill-opacity:1;stroke:none;stroke-width:0.865;stroke-linecap:square;stroke-linejoin:miter;stroke-dasharray:none;stroke-dashoffset:2.20346;stroke-opacity:1;paint-order:markers stroke fill"
       id="rect29766"
       width="28.480345"
       height="1.0618401"
       x="138.36694"
       y="60.377689" /><path
       style="fill:none;stroke:#ffffff;stroke-width:0.548686;stroke-linecap:round;stroke-linejoin:miter;stroke-dasharray:none;stroke-opacity:1"
       d="m 141.25173,53.120996 2.67702,2.677015 2.64457,-2.644566"
       id="path30565" /><g
       aria-label="Map"
       transform="scale(0.98080343,1.0195723)"
       id="text30621"
       style="font-size:8.54162px;line-height:1.25;font-family:'Blender Mono I18n';-inkscape-font-specification:'Blender Mono I18n';fill:#ffffff;stroke-width:0.320311"><path
         d="m 151.85743,49.528786 h 1.25539 l 1.58904,4.237445 1.59738,-4.237445 h 1.25539 v 6.226875 H 156.733 v -5.467805 l -1.60573,4.27081 h -0.84665 l -1.60573,-4.27081 v 5.467805 h -0.81746 z"
         id="path21160" /><path
         d="m 161.31661,53.40755 q -0.93007,0 -1.28875,0.212706 -0.35868,0.212706 -0.35868,0.725704 0,0.40873 0.26692,0.650631 0.2711,0.237731 0.73405,0.237731 0.63812,0 1.02182,-0.450437 0.38788,-0.454608 0.38788,-1.205336 V 53.40755 Z m 1.53065,-0.316975 v 2.665086 h -0.76741 V 55.04664 q -0.26275,0.425413 -0.6548,0.629777 -0.39205,0.200195 -0.95927,0.200195 -0.71736,0 -1.14277,-0.400389 -0.42124,-0.404559 -0.42124,-1.080214 0,-0.788265 0.52551,-1.188654 0.52968,-0.400388 1.57653,-0.400388 h 1.07604 v -0.07507 q 0,-0.52968 -0.35034,-0.81746 -0.34617,-0.29195 -0.97595,-0.29195 -0.40039,0 -0.77992,0.09593 -0.37953,0.09593 -0.72987,0.287779 v -0.709021 q 0.42124,-0.162658 0.81746,-0.241902 0.39621,-0.08341 0.77158,-0.08341 1.01348,0 1.51397,0.52551 0.50048,0.52551 0.50048,1.593212 z"
         id="path21162" /><path
         d="m 165.17035,55.054981 v 2.477404 h -0.77158 v -6.447923 h 0.77158 v 0.709022 q 0.2419,-0.417072 0.60892,-0.617266 0.3712,-0.204365 0.88419,-0.204365 0.85083,0 1.38051,0.675656 0.53385,0.675655 0.53385,1.776723 0,1.101069 -0.53385,1.776724 -0.52968,0.675656 -1.38051,0.675656 -0.51299,0 -0.88419,-0.200195 -0.36702,-0.204364 -0.60892,-0.621436 z m 2.61087,-1.630749 q 0,-0.846654 -0.35034,-1.326286 -0.34617,-0.483803 -0.9551,-0.483803 -0.60892,0 -0.95926,0.483803 -0.34617,0.479632 -0.34617,1.326286 0,0.846655 0.34617,1.330458 0.35034,0.479632 0.95926,0.479632 0.60893,0 0.9551,-0.479632 0.35034,-0.483803 0.35034,-1.330458 z"
         id="path21164" /></g><circle
       style="fill:#6363c7;fill-opacity:1;stroke:#1c1c20;stroke-width:0.850228;stroke-linecap:round;stroke-linejoin:miter;stroke-dasharray:none;stroke-dashoffset:2.20346;stroke-opacity:1;paint-order:markers stroke fill"
       id="path31001"
       cx="167.0511"
       cy="64.004272"
       r="1.5700101" /><circle
       style="display:inline;fill:#6363c7;fill-opacity:1;stroke:#1c1c20;stroke-width:0.850228;stroke-linecap:round;stroke-linejoin:miter;stroke-dasharray:none;stroke-dashoffset:2.20346;stroke-opacity:1;paint-order:markers stroke fill"
       id="path31001-9"
       cx="138.14781"
       cy="71.957542"
       r="1.5700101" /><g
       aria-label="XY"
       id="text36507"
       style="font-size:13.1344px;line-height:1.25;font-family:'Blender Mono I18n';-inkscape-font-specification:'Blender Mono I18n';fill:#ffffff;stroke-width:0.328362"><path
         d="m 145.22868,64.062926 h 1.39168 l 2.37933,3.559371 2.39215,-3.559371 h 1.39169 l -3.07838,4.598322 3.2836,4.976707 h -1.39168 l -2.69358,-4.072434 -2.71282,4.072434 h -1.39809 l 3.41828,-5.111386 z"
         id="path21167" /><path
         d="m 153.37355,64.062926 h 1.39168 l 2.6551,3.937754 2.63586,-3.937754 h 1.39168 l -3.38621,5.015186 v 4.559843 h -1.3019 v -4.559843 z"
         id="path21169" /></g></g></svg>
