<?xml version="1.0" encoding="UTF-8" standalone="no"?>
<svg
   viewBox="0 0 15.000321 15.004748"
   xml:space="preserve"
   version="1.1"
   id="svg19251"
   sodipodi:docname="gimp-web.svg"
   width="15.000321"
   height="15.004748"
   inkscape:version="1.2.1 (9c6d41e410, 2022-07-14)"
   xmlns:inkscape="http://www.inkscape.org/namespaces/inkscape"
   xmlns:sodipodi="http://sodipodi.sourceforge.net/DTD/sodipodi-0.dtd"
   xmlns="http://www.w3.org/2000/svg"
   xmlns:svg="http://www.w3.org/2000/svg"><defs
   id="defs19255" /><sodipodi:namedview
   id="namedview19253"
   pagecolor="#ffffff"
   bordercolor="#666666"
   borderopacity="1.0"
   inkscape:showpageshadow="2"
   inkscape:pageopacity="0.0"
   inkscape:pagecheckerboard="0"
   inkscape:deskcolor="#d1d1d1"
   showgrid="false"
   inkscape:zoom="11.8"
   inkscape:cx="7.5"
   inkscape:cy="7.5423729"
   inkscape:current-layer="svg19251" />
    <g
   fill="#ffffff"
   id="g19249"
   transform="translate(-2.5001426,-2.4976001)">
        <g
   fill="#ffffff"
   id="g19245">
            <path
   fill="#ffffff"
   d="m 432.969,577.996 a 0.5,0.5 0 0 0 -0.049,0.006 0.5,0.5 0 0 0 -0.088,0.022 c -0.225,0.005 -0.45,0 -0.674,0.027 a 7.003,7.003 0 0 0 -5.186,10.52 6.998,6.998 0 0 0 5.893,3.413 h 0.002 a 0.5,0.5 0 0 0 0.32,-0.01 6.94,6.94 0 0 0 1.801,-0.263 0.50070575,0.50070575 0 1 0 -0.285,-0.96 5.962,5.962 0 0 1 -1.582,0.227 c -0.322,-0.218 -0.862,-0.821 -1.289,-1.773 A 9.015,9.015 0 0 1 431.412,588 h 2.088 a 0.5,0.5 0 1 0 0,-1 h -2.316 A 11.337,11.337 0 0 1 431,585 c 0,-0.728 0.074,-1.388 0.184,-2 h 3.562 c 0.158,0.772 0.254,1.614 0.254,2.5 a 0.5,0.5 0 1 0 1,0 c 0,-0.883 -0.094,-1.72 -0.24,-2.5 h 2.886 a 5.979,5.979 0 0 1 0.094,3.746 0.5,0.5 0 1 0 0.957,0.29 7,7 0 0 0 -3.088,-8.032 6.98,6.98 0 0 0 -3.476,-0.992 0.5,0.5 0 0 0 -0.147,-0.016 0.5,0.5 0 0 0 -0.017,0 z m 0.027,1.131 c 0.31,0.31 0.793,0.976 1.166,1.9 0.12,0.3 0.234,0.627 0.336,0.973 h -3.084 c 0.123,-0.427 0.26,-0.83 0.416,-1.176 0.37,-0.819 0.823,-1.391 1.166,-1.697 z m 1.338,0.031 a 5.99,5.99 0 0 1 1.76,0.701 5.99,5.99 0 0 1 2.101,2.14 h -2.668 a 12.14,12.14 0 0 0 -0.437,-1.345 8.852,8.852 0 0 0 -0.756,-1.496 z m -2.705,0.016 c -0.25,0.353 -0.492,0.756 -0.711,1.24 a 9.984,9.984 0 0 0 -0.54,1.586 h -2.558 c 0.26,-0.449 0.563,-0.878 0.946,-1.258 a 5.974,5.974 0 0 1 2.863,-1.568 z m -4.268,3.806 a 0.5,0.5 0 0 0 0.141,0.02 h 2.67 c -0.102,0.622 -0.172,1.28 -0.172,2 0,0.718 0.07,1.375 0.172,2 h -2.67 a 0.5,0.5 0 0 0 -0.147,0.023 5.973,5.973 0 0 1 0.006,-4.043 z m 0.444,5.02 h 2.572 c 0.151,0.59 0.329,1.14 0.541,1.613 0.212,0.473 0.444,0.867 0.686,1.213 a 5.981,5.981 0 0 1 -3.77,-2.765 c -0.012,-0.02 -0.018,-0.041 -0.03,-0.061 z"
   transform="translate(-423.495,-575.498)"
   id="path19243" />
        </g>
        <path
   fill="#ffffff"
   d="m 767.49,1 a 0.5,0.5 0 0 0 -0.455,0.686 l 2,5 c 0.184,0.462 0.857,0.402 0.955,-0.086 l 0.44,-2.174 2.168,-0.436 c 0.488,-0.097 0.55,-0.77 0.088,-0.955 l -5,-2 A 0.5,0.5 0 0 0 767.49,1 Z"
   transform="translate(-755.5,10.501)"
   id="path19247" />
    </g>
</svg>
