<?xml version="1.0" encoding="UTF-8" standalone="no"?>
<svg
   viewBox="0 0 14 11"
   xml:space="preserve"
   version="1.1"
   id="svg17653"
   sodipodi:docname="gimp-vchain.svg"
   inkscape:version="1.2.1 (9c6d41e410, 2022-07-14)"
   width="14"
   height="11"
   xmlns:inkscape="http://www.inkscape.org/namespaces/inkscape"
   xmlns:sodipodi="http://sodipodi.sourceforge.net/DTD/sodipodi-0.dtd"
   xmlns="http://www.w3.org/2000/svg"
   xmlns:svg="http://www.w3.org/2000/svg"><defs
   id="defs17657" /><sodipodi:namedview
   id="namedview17655"
   pagecolor="#ffffff"
   bordercolor="#666666"
   borderopacity="1.0"
   inkscape:showpageshadow="2"
   inkscape:pageopacity="0.0"
   inkscape:pagecheckerboard="0"
   inkscape:deskcolor="#d1d1d1"
   showgrid="false"
   inkscape:zoom="45.254834"
   inkscape:cx="6.7948542"
   inkscape:cy="6.7838057"
   inkscape:current-layer="svg17653" />
    <g
   fill="#ffffff"
   id="g17782"
   transform="translate(-2.9768716,-4.5072418)"
   style="fill:#ffffff;fill-opacity:1">
        <path
   transform="translate(189.5,-448.5)"
   d="m -179.5,453 a 3.508,3.508 0 0 0 -3.5,3.5 v 1.5 h -0.5 a 0.5,0.5 0 0 0 -0.5,0.5 v 5 a 0.5,0.5 0 0 0 0.5,0.5 h 8 a 0.5,0.5 0 0 0 0.5,-0.5 v -5 a 0.5,0.5 0 0 0 -0.5,-0.5 h -0.5 v -1.5 c 0,-1.927 -1.573,-3.5 -3.5,-3.5 z m 0,1 c 1.387,0 2.5,1.113 2.5,2.5 v 1.5 h -5 v -1.5 c 0,-1.387 1.113,-2.5 2.5,-2.5 z m -0.5,6 h 1 v 2 h -1 v -1 z"
   fill="#ffffff"
   id="path17780"
   style="fill:#ffffff;fill-opacity:1" />
    </g>
</svg>
