<?xml version="1.0" encoding="UTF-8" standalone="no"?>
<!-- Created with Inkscape (http://www.inkscape.org/) -->

<svg
   width="6.2762618mm"
   height="6.2310834mm"
   viewBox="0 0 6.2762618 6.2310834"
   version="1.1"
   id="svg5"
   inkscape:version="1.3 (0e150ed6c4, 2023-07-21)"
   sodipodi:docname="gimp-tool-ellipse-select.svg"
   xmlns:inkscape="http://www.inkscape.org/namespaces/inkscape"
   xmlns:sodipodi="http://sodipodi.sourceforge.net/DTD/sodipodi-0.dtd"
   xmlns="http://www.w3.org/2000/svg"
   xmlns:svg="http://www.w3.org/2000/svg">
  <sodipodi:namedview
     id="namedview7"
     pagecolor="#ffffff"
     bordercolor="#666666"
     borderopacity="1.0"
     inkscape:pageshadow="2"
     inkscape:pageopacity="0.0"
     inkscape:pagecheckerboard="0"
     inkscape:document-units="mm"
     showgrid="false"
     inkscape:zoom="21.865095"
     inkscape:cx="4.8479093"
     inkscape:cy="14.749536"
     inkscape:window-width="1920"
     inkscape:window-height="1017"
     inkscape:window-x="-8"
     inkscape:window-y="-8"
     inkscape:window-maximized="1"
     inkscape:current-layer="layer1"
     inkscape:showpageshadow="2"
     inkscape:deskcolor="#d1d1d1" />
  <defs
     id="defs2" />
  <g
     inkscape:label="gimp-tool-ellipse-select"
     id="layer1"
     transform="translate(-1.4256924,-23.28008)">
    <path
       style="fill:#e5e5e5;fill-opacity:1;stroke:none;stroke-width:0.264583px;stroke-linecap:butt;stroke-linejoin:miter;stroke-opacity:1"
       d="m 3.8513488,25.030276 -0.05163,2.852789 0.988497,-0.931164 h 0.912773 z"
       id="path10528" />
    <path
       style="color:#000000;fill:#ffffff;stroke-linecap:square;stroke-miterlimit:2;stroke-dasharray:0.718, 0.718;stroke-dashoffset:3.5182;-inkscape-stroke:none;paint-order:markers stroke fill"
       d="m 4.5664062,23.279297 c -0.1170009,-4.11e-4 -0.2331021,0.0102 -0.3496136,0.01957 0.00911,0.119141 0.018229,0.238281 0.027344,0.357422 0.3429127,-0.04059 0.6885391,-0.004 1.0253875,0.06446 0.020833,-0.117839 0.041667,-0.235677 0.0625,-0.353516 -0.2528573,-0.04746 -0.5075257,-0.08896 -0.7656179,-0.08794 z m -0.7402343,0.08594 c -0.3637522,0.08954 -0.7045581,0.251116 -1.0234372,0.44535 0.059245,0.104167 0.1184896,0.208333 0.1777344,0.3125 0.2933518,-0.181043 0.6069822,-0.330985 0.9433596,-0.41211 -0.032552,-0.115247 -0.065104,-0.230493 -0.097657,-0.34574 z m 1.8886718,0.128907 c -0.048828,0.108724 -0.097656,0.217447 -0.1464843,0.326171 0.3199345,0.130223 0.6136013,0.316314 0.8769528,0.539078 0.073568,-0.0944 0.1471354,-0.188802 0.2207031,-0.283203 C 6.3794222,23.835535 6.0627966,23.63397 5.7148437,23.494144 Z M 2.4882813,24.0625 c -0.2800083,0.251225 -0.5166425,0.549624 -0.6953109,0.880935 0.1035156,0.0599 0.2070313,0.119792 0.3105469,0.179688 C 2.2671854,24.82243 2.4806275,24.549134 2.7363276,24.322251 2.6536455,24.235667 2.5709634,24.149084 2.4882813,24.0625 Z m 4.4570312,0.304687 c -0.09375,0.07422 -0.1875,0.148438 -0.28125,0.222657 0.2254006,0.262159 0.3929554,0.566729 0.5253911,0.88477 0.108724,-0.05013 0.2174479,-0.10026 0.3261719,-0.15039 C 7.37137,24.979038 7.1894863,24.652375 6.9453125,24.367187 Z m -5.3242188,0.941407 c -0.1158175,0.353963 -0.1811279,0.721568 -0.195313,1.09375 0.1191406,0.0091 0.2382813,0.01823 0.3574219,0.02734 0.015186,-0.347278 0.0714,-0.691895 0.183593,-1.021484 C 1.8515616,25.375 1.7363277,25.3418 1.6210937,25.30859 Z M 7.625,25.714844 c -0.1178385,0.02148 -0.2356771,0.04297 -0.3535156,0.06445 0.061507,0.282765 0.075087,0.572905 0.060558,0.861315 0.1197917,0.0033 0.2395833,0.0065 0.359375,0.0098 0.01415,-0.13673 0.00182,-0.284711 0.00976,-0.43163 C 7.6743907,26.069376 7.6622213,25.876615 7.625,25.714844 Z m -5.8125,1.027343 c -0.1178385,0.02148 -0.2356771,0.04297 -0.3535156,0.06445 0.05209,0.371113 0.176638,0.727277 0.341795,1.062502 0.108724,-0.04948 0.2174479,-0.09896 0.3261719,-0.148438 C 1.9737438,27.410876 1.8586654,27.086134 1.8125,26.742187 Z m 5.4765625,0.210938 c -0.085419,0.333947 -0.2123535,0.656832 -0.396485,0.949215 0.1035156,0.0599 0.2070313,0.119791 0.3105469,0.179687 0.197999,-0.318196 0.3417603,-0.66709 0.429688,-1.031242 -0.1145833,-0.03255 -0.2291666,-0.06511 -0.3437499,-0.09766 z m -4.9902344,1.033203 c -0.09375,0.07422 -0.1875,0.148437 -0.28125,0.222656 0.2209082,0.302 0.4969205,0.557981 0.7988276,0.777346 0.073568,-0.09375 0.1471354,-0.1875 0.2207031,-0.28125 -0.2774587,-0.20669 -0.5339786,-0.4375 -0.7382807,-0.718752 z m 4.40625,0.169922 C 6.4754885,28.413823 6.2084719,28.636725 5.9101568,28.810559 5.9739589,28.91147 6.037761,29.012382 6.1015631,29.113293 6.4245989,28.925418 6.714189,28.684867 6.9628914,28.406254 6.8769536,28.322919 6.7910159,28.239585 6.7050781,28.15625 Z M 3.3164063,28.855469 C 3.2669271,28.964844 3.217448,29.074219 3.1679688,29.183594 3.5036625,29.35043 3.8689283,29.444605 4.2382812,29.5 4.2597656,29.382161 4.28125,29.264323 4.3027344,29.146484 3.9615201,29.09583 3.6256389,29.012247 3.3164063,28.855469 Z m 2.3066406,0.0918 c -0.3221583,0.120858 -0.6614811,0.194048 -1.005859,0.205121 0.00911,0.119792 0.018229,0.239583 0.027344,0.359375 0.3737661,-0.01719 0.7438759,-0.09156 1.0937502,-0.22465 -0.038412,-0.113282 -0.076824,-0.226564 -0.1152352,-0.339846 z"
       id="path10953" />
  </g>
</svg>
