<?xml version="1.0" encoding="UTF-8" standalone="no"?>
<!-- Created with Inkscape (http://www.inkscape.org/) -->

<svg
   width="24"
   height="24"
   viewBox="0 0 24 24"
   id="svg30571"
   version="1.1"
   inkscape:version="1.3 (0e150ed6c4, 2023-07-21)"
   sodipodi:docname="gimp-tool-fuzzy-select-symbolic.svg"
   inkscape:export-filename="/home/klaus/Bilder/icons/Symbolic/hicolor/24x24/apps/gimp-channel.png"
   inkscape:export-xdpi="98.181816"
   inkscape:export-ydpi="98.181816"
   xmlns:inkscape="http://www.inkscape.org/namespaces/inkscape"
   xmlns:sodipodi="http://sodipodi.sourceforge.net/DTD/sodipodi-0.dtd"
   xmlns:xlink="http://www.w3.org/1999/xlink"
   xmlns="http://www.w3.org/2000/svg"
   xmlns:svg="http://www.w3.org/2000/svg"
   xmlns:rdf="http://www.w3.org/1999/02/22-rdf-syntax-ns#"
   xmlns:cc="http://creativecommons.org/ns#"
   xmlns:dc="http://purl.org/dc/elements/1.1/">
  <defs
     id="defs30573">
    <linearGradient
       id="linearGradient3628"
       inkscape:swatch="solid">
      <stop
         style="stop-color:#ffffff;stop-opacity:1;"
         offset="0"
         id="stop3626" />
    </linearGradient>
    <linearGradient
       id="linearGradient3622"
       inkscape:swatch="solid">
      <stop
         style="stop-color:#ffffff;stop-opacity:1;"
         offset="0"
         id="stop3620" />
    </linearGradient>
    <linearGradient
       id="linearGradient2843"
       inkscape:swatch="solid">
      <stop
         style="stop-color:#bfbfbf;stop-opacity:1;"
         offset="0"
         id="stop2841" />
    </linearGradient>
    <linearGradient
       id="linearGradient19282-4"
       gradientTransform="matrix(0.34682586,0,0,0.30620888,-482.61525,330.965)"
       inkscape:swatch="solid">
      <stop
         style="stop-color:#bebebe;stop-opacity:1;"
         offset="0"
         id="stop19284-0" />
    </linearGradient>
    <linearGradient
       inkscape:collect="always"
       xlink:href="#linearGradient2843"
       id="linearGradient2845"
       x1="9.651716"
       y1="1033.2236"
       x2="23.789949"
       y2="1033.2236"
       gradientUnits="userSpaceOnUse" />
    <linearGradient
       inkscape:collect="always"
       xlink:href="#linearGradient2843"
       id="linearGradient3624"
       x1="10"
       y1="1044.8622"
       x2="24"
       y2="1044.8622"
       gradientUnits="userSpaceOnUse" />
    <linearGradient
       inkscape:collect="always"
       xlink:href="#linearGradient2843"
       id="linearGradient3630"
       x1="-187.61803"
       y1="45"
       x2="-184"
       y2="45"
       gradientUnits="userSpaceOnUse" />
  </defs>
  <sodipodi:namedview
     id="base"
     pagecolor="#ffffff"
     bordercolor="#666666"
     borderopacity="1.0"
     inkscape:pageopacity="0.0"
     inkscape:pageshadow="2"
     inkscape:zoom="16.000001"
     inkscape:cx="4.4374998"
     inkscape:cy="11.1875"
     inkscape:document-units="px"
     inkscape:current-layer="layer1"
     showgrid="true"
     units="px"
     inkscape:snap-page="true"
     inkscape:snap-bbox="true"
     inkscape:bbox-paths="true"
     inkscape:bbox-nodes="true"
     inkscape:snap-bbox-edge-midpoints="true"
     inkscape:snap-bbox-midpoints="true"
     inkscape:object-paths="true"
     inkscape:snap-intersection-paths="true"
     inkscape:object-nodes="true"
     inkscape:snap-smooth-nodes="true"
     inkscape:snap-midpoints="true"
     inkscape:snap-object-midpoints="true"
     inkscape:snap-center="true"
     inkscape:snap-text-baseline="true"
     showborder="false"
     inkscape:window-width="1440"
     inkscape:window-height="752"
     inkscape:window-x="148"
     inkscape:window-y="39"
     inkscape:window-maximized="0"
     inkscape:snap-global="false"
     inkscape:showpageshadow="2"
     inkscape:pagecheckerboard="0"
     inkscape:deskcolor="#d1d1d1">
    <inkscape:grid
       type="xygrid"
       id="grid4369"
       originx="0"
       originy="0"
       spacingy="1"
       spacingx="1"
       units="px"
       visible="true" />
  </sodipodi:namedview>
  <metadata
     id="metadata30576">
    <rdf:RDF>
      <cc:Work
         rdf:about="">
        <dc:format>image/svg+xml</dc:format>
        <dc:type
           rdf:resource="http://purl.org/dc/dcmitype/StillImage" />
        <dc:creator>
          <cc:Agent>
            <dc:title>Klaus Staedtler</dc:title>
          </cc:Agent>
        </dc:creator>
      </cc:Work>
    </rdf:RDF>
  </metadata>
  <g
     inkscape:label="gimp-tool-fuzzy-select"
     id="layer1"
     transform="translate(0,-1028.3622)">
    <path
       inkscape:transform-center-y="-5.3095834e-06"
       inkscape:transform-center-x="-0.35192802"
       transform="matrix(2.763932,0,0,2.8915211,520.56349,905.74375)"
       d="m -184,45 -1.19098,0.587785 -0.19099,1.314328 -0.92705,-0.951056 -1.30901,0.224514 L -187,45 l -0.61803,-1.175571 1.30901,0.224514 0.92705,-0.951056 0.19099,1.314328 z"
       inkscape:randomized="0"
       inkscape:rounded="0"
       inkscape:flatsided="false"
       sodipodi:arg2="0.62831853"
       sodipodi:arg1="0"
       sodipodi:r2="1"
       sodipodi:r1="2"
       sodipodi:cy="45"
       sodipodi:cx="-186"
       sodipodi:sides="5"
       id="path106146"
       style="fill:url(#linearGradient3630);fill-opacity:1;stroke:none"
       sodipodi:type="star" />
    <path
       sodipodi:nodetypes="czcczcc"
       inkscape:connector-curvature="0"
       id="path6038"
       d="m 11.850842,1038.3989 c 0,0 -0.857257,-0.2549 -1.475514,0.5781 -0.6182559,0.8332 -0.28635,1.5615 -0.28635,1.5615 l 11.967961,10.7995 c 0,0 0.950781,0.1842 1.50468,-0.4647 0.5539,-0.6489 0.425497,-1.4419 0.425497,-1.4419 z"
       style="fill:url(#linearGradient3624);fill-opacity:1;fill-rule:evenodd;stroke:none;stroke-width:1.54216px;stroke-linecap:butt;stroke-linejoin:miter;stroke-opacity:1" />
    <path
       style="color:#000000;fill:url(#linearGradient2845);stroke-dasharray:2.61728, 1.30864;-inkscape-stroke:none"
       d="m 9.6523438,1032.5684 c 0,0.4362 0,0.8724 0,1.3086 0.8723962,0 1.7447912,0 2.6171872,0 0,-0.4362 0,-0.8724 0,-1.3086 -0.872396,0 -1.744791,0 -2.6171872,0 z m 3.9257812,0 c 0,0.4362 0,0.8724 0,1.3086 0.872396,0 1.744791,0 2.617187,0 0,-0.4362 0,-0.8724 0,-1.3086 -0.872396,0 -1.744791,0 -2.617187,0 z m 3.925781,0 c 0,0.4362 0,0.8724 0,1.3086 0.872396,0 1.744792,0 2.617188,0 0,-0.4362 0,-0.8724 0,-1.3086 -0.872396,0 -1.744792,0 -2.617188,0 z m 3.925781,0 c 0,0.4362 0,0.8724 0,1.3086 0.786458,0 1.572917,0 2.359375,0 0,-0.4362 0,-0.8724 0,-1.3086 -0.786458,0 -1.572917,0 -2.359375,0 z"
       id="path60625" />
  </g>
</svg>
