<?xml version="1.0" encoding="UTF-8" standalone="no"?>
<svg
   viewBox="0 0 14 14.002"
   xml:space="preserve"
   version="1.1"
   id="svg7063"
   sodipodi:docname="gimp-selection-intersect.svg"
   width="14"
   height="14.002"
   inkscape:version="1.2.1 (9c6d41e410, 2022-07-14)"
   xmlns:inkscape="http://www.inkscape.org/namespaces/inkscape"
   xmlns:sodipodi="http://sodipodi.sourceforge.net/DTD/sodipodi-0.dtd"
   xmlns="http://www.w3.org/2000/svg"
   xmlns:svg="http://www.w3.org/2000/svg"><defs
   id="defs7067" /><sodipodi:namedview
   id="namedview7065"
   pagecolor="#ffffff"
   bordercolor="#666666"
   borderopacity="1.0"
   inkscape:showpageshadow="2"
   inkscape:pageopacity="0.0"
   inkscape:pagecheckerboard="0"
   inkscape:deskcolor="#d1d1d1"
   showgrid="false"
   inkscape:zoom="23.6"
   inkscape:cx="9.3432203"
   inkscape:cy="11.271186"
   inkscape:current-layer="svg7063" />
    <g
   fill="#ffffff"
   id="g7061"
   transform="translate(-3,-2.999)">
        <path
   fill="#ffffff"
   d="m 515.498,329.986 a 0.5,0.5 0 0 0 -0.502,0.502 l 0.008,5.006 a 0.5,0.5 0 0 0 0.5,0.5 h 5 a 0.5,0.5 0 0 0 0.5,-0.5 v -4.998 a 0.5,0.5 0 0 0 -0.5,-0.5 z"
   transform="translate(-508.004,-322.997)"
   id="path7055"
   style="fill:#ffffff;fill-opacity:1" />
        <g
   fill="#ffffff"
   id="g7059">
            <path
   transform="translate(-508.004,-322.997)"
   d="M 515.004,325.996 V 326 H 515 v 2 h 1 v -1.004 h 1.004 v -1 z m 4,0 v 1 h 2 v -1 z M 523,326 v 1 h 1 v 1 h 1.004 v -2.004 z m 1.004,3.996 v 2 h 1 v -2 z m -13,0.002 v 2 h 1 v -1 h 1 v -1 z m 13,3.998 v 1 h -1 v 1 h 2 v -2 z m -13,0.002 v 2 h 1 v -2 z m 0,4 v 2 h 2 v -1 h -1 v -1 z m 9,0 v 1 h -1 v 1 h 2 v -2 z m -5,1 v 1 h 2 v -1 z"
   fill="#ffffff"
   id="path7057" />
        </g>
    </g>
</svg>
