<?xml version="1.0" encoding="UTF-8" standalone="no"?>
<svg
   width="4.2329998mm"
   height="4.2329998mm"
   viewBox="0 0 4.2329998 4.2329998"
   version="1.1"
   id="svg32692"
   inkscape:version="1.2.1 (9c6d41e410, 2022-07-14)"
   sodipodi:docname="gimp-lock-alpha.svg"
   xmlns:inkscape="http://www.inkscape.org/namespaces/inkscape"
   xmlns:sodipodi="http://sodipodi.sourceforge.net/DTD/sodipodi-0.dtd"
   xmlns:xlink="http://www.w3.org/1999/xlink"
   xmlns="http://www.w3.org/2000/svg"
   xmlns:svg="http://www.w3.org/2000/svg"
   xmlns:rdf="http://www.w3.org/1999/02/22-rdf-syntax-ns#"
   xmlns:cc="http://creativecommons.org/ns#"
   xmlns:dc="http://purl.org/dc/elements/1.1/">
  <defs
     id="defs32686">
    <linearGradient
       id="linearGradient867"
       inkscape:swatch="solid">
      <stop
         style="stop-color:#bebebe;stop-opacity:1;"
         offset="0"
         id="stop865" />
    </linearGradient>
    <linearGradient
       id="linearGradient861"
       inkscape:swatch="solid">
      <stop
         style="stop-color:#bfbfbf;stop-opacity:1;"
         offset="0"
         id="stop859" />
    </linearGradient>
    <linearGradient
       inkscape:collect="always"
       xlink:href="#linearGradient861"
       id="linearGradient863"
       x1="5.5"
       y1="10"
       x2="14.5"
       y2="10"
       gradientUnits="userSpaceOnUse" />
    <linearGradient
       inkscape:collect="always"
       xlink:href="#linearGradient867"
       id="linearGradient869"
       x1="147.12109"
       y1="184.06347"
       x2="151.12109"
       y2="184.06347"
       gradientUnits="userSpaceOnUse" />
    <linearGradient
       inkscape:collect="always"
       xlink:href="#linearGradient867"
       id="linearGradient871"
       x1="151.12109"
       y1="188.0625"
       x2="155.12109"
       y2="188.0625"
       gradientUnits="userSpaceOnUse" />
    <linearGradient
       inkscape:collect="always"
       xlink:href="#linearGradient867"
       id="linearGradient873"
       x1="41.042686"
       y1="48.700162"
       x2="42.101018"
       y2="48.700162"
       gradientUnits="userSpaceOnUse" />
    <linearGradient
       inkscape:collect="always"
       xlink:href="#linearGradient867"
       id="linearGradient875"
       x1="159.12109"
       y1="188.0625"
       x2="163.12109"
       y2="188.0625"
       gradientUnits="userSpaceOnUse" />
    <linearGradient
       inkscape:collect="always"
       xlink:href="#linearGradient867"
       id="linearGradient877"
       x1="151.12109"
       y1="196.0625"
       x2="153.80924"
       y2="196.0625"
       gradientUnits="userSpaceOnUse" />
    <linearGradient
       inkscape:collect="always"
       xlink:href="#linearGradient867"
       id="linearGradient879"
       x1="38.926025"
       y1="50.816575"
       x2="39.984357"
       y2="50.816575"
       gradientUnits="userSpaceOnUse" />
  </defs>
  <sodipodi:namedview
     id="base"
     pagecolor="#ffffff"
     bordercolor="#666666"
     borderopacity="1.0"
     inkscape:pageopacity="0.0"
     inkscape:pageshadow="2"
     inkscape:zoom="34.535952"
     inkscape:cx="3.2864303"
     inkscape:cy="9.5263046"
     inkscape:document-units="mm"
     inkscape:current-layer="g99347"
     inkscape:document-rotation="0"
     showgrid="false"
     fit-margin-top="0"
     fit-margin-left="0"
     fit-margin-right="0"
     fit-margin-bottom="0"
     inkscape:window-width="1920"
     inkscape:window-height="1136"
     inkscape:window-x="0"
     inkscape:window-y="27"
     inkscape:window-maximized="1"
     inkscape:showpageshadow="2"
     inkscape:pagecheckerboard="0"
     inkscape:deskcolor="#d1d1d1" />
  <metadata
     id="metadata32689">
    <rdf:RDF>
      <cc:Work
         rdf:about="">
        <dc:format>image/svg+xml</dc:format>
        <dc:type
           rdf:resource="http://purl.org/dc/dcmitype/StillImage" />
        <dc:title />
      </cc:Work>
    </rdf:RDF>
  </metadata>
  <g
     inkscape:label="Layer 1"
     inkscape:groupmode="layer"
     id="layer1"
     transform="translate(-192.22497,-65.391591)">
    <g
       id="g99347"
       transform="matrix(0.99986663,0,0,1.0000054,153.30437,17.220272)"
       inkscape:export-filename="/home/aryeom/Desktop/GIMP-icon design/lock icons/gimp-transparency-color.svg.png"
       inkscape:export-xdpi="96"
       inkscape:export-ydpi="96">
      <path
         id="rect97191"
         style="fill:url(#linearGradient877);stroke-width:0.999938;opacity:0.5;fill-opacity:1"
         d="m 151.12109,194.0625 v 4 h 2.68815 l -0.003,-0.59318 -8.6e-4,-3.40679 z"
         transform="scale(0.26458333)"
         sodipodi:nodetypes="cccccc" />
      <path
         id="rect97201"
         style="opacity:0.15;fill:#bebebe;stroke-width:0.999938"
         d="m 155.12109,186.0625 v 2.96289 c 0.50765,-1.04796 1.34938,-1.69206 2.04417,-1.94809 0.6424,-0.23672 1.34186,-0.26057 1.95583,-0.2444 v -0.7704 z"
         transform="scale(0.26458333)"
         sodipodi:nodetypes="ccsccc" />
      <path
         id="rect97179"
         style="fill:url(#linearGradient869);stroke-width:0.999938;opacity:0.5;fill-opacity:1"
         d="m 147.12109,182.06445 v 3.99805 h 4 v -3.99805 z"
         transform="scale(0.26458333)" />
      <path
         id="rect97181"
         style="fill:url(#linearGradient871);stroke-width:0.999938;opacity:0.5;fill-opacity:1"
         d="m 151.12109,186.0625 v 4 h 3.68946 c 0.0486,-0.3656 0.15368,-0.71329 0.31054,-1.03711 v -2.96289 z"
         transform="scale(0.26458333)" />
      <rect
         style="fill:url(#linearGradient873);stroke-width:0.264567;opacity:0.5;fill-opacity:1"
         id="rect97183"
         width="1.0583317"
         height="1.0582063"
         x="41.042686"
         y="48.171059" />
      <path
         id="rect97185"
         style="fill:url(#linearGradient875);stroke-width:0.999938;opacity:0.5;fill-opacity:1"
         d="m 159.12109,186.0625 v 0.77673 c 1.27504,0.32644 2.71595,0.95322 2.94569,3.22327 h 1.05431 v -4 z"
         transform="scale(0.26458333)"
         sodipodi:nodetypes="cccccc" />
      <rect
         style="fill:url(#linearGradient879);stroke-width:0.264567;opacity:0.5;fill-opacity:1"
         id="rect97189"
         width="1.0583317"
         height="1.0582063"
         x="38.926025"
         y="50.287472" />
      <rect
         style="opacity:0.15;fill:#bebebe;stroke-width:0.264567"
         id="rect97195"
         width="1.0583317"
         height="1.0582063"
         x="38.926025"
         y="49.229263" />
      <path
         id="rect97197"
         style="opacity:0.15;fill:#bebebe;stroke-width:0.999938"
         d="m 151.12109,182.06445 v 3.99805 h 4 v -3.99805 z"
         transform="scale(0.26458333)" />
      <rect
         style="opacity:0.15;fill:#bebebe;stroke-width:0.264567"
         id="rect97199"
         width="1.0583317"
         height="1.0582063"
         x="42.101021"
         y="48.171059" />
      <path
         id="rect97203"
         style="opacity:0.15;fill:#bebebe;stroke-width:0.999938"
         d="m 162.07702,190.0625 c 0,0 0.0328,1.08741 0.0328,1.6543 1.44475,0.24524 1.01134,1.09808 1.01134,2.05273 v -3.70703 z"
         transform="scale(0.26458333)"
         sodipodi:nodetypes="ccccc" />
      <path
         id="rect97205"
         style="opacity:0.15;fill:#bebebe;stroke-width:0.999938"
         d="m 151.12109,190.0625 v 4 h 2.6856 l 0.0102,-1.71082 c 0.003,-0.54616 0.23606,-0.66812 0.98649,-0.60417 l -0.0358,-1.2397 c -0.004,-0.151 0.0234,-0.2979 0.043,-0.44531 z"
         transform="scale(0.26458333)"
         sodipodi:nodetypes="cccscscc" />
      <rect
         style="opacity:0.15;fill:#bebebe;stroke-width:0.264567"
         y="51.345676"
         x="38.926025"
         height="1.0582063"
         width="1.0583317"
         id="rect97209" />
      <g
         fill="#ffffff"
         id="g17782"
         transform="matrix(0.26461863,0,0,0.2645819,39.290819,48.275559)"
         style="fill:url(#linearGradient863);fill-opacity:1">
        <path
           transform="translate(189.5,-448.5)"
           d="m -179.5,453 a 3.508,3.508 0 0 0 -3.5,3.5 v 1.5 h -0.5 a 0.5,0.5 0 0 0 -0.5,0.5 v 5 a 0.5,0.5 0 0 0 0.5,0.5 h 8 a 0.5,0.5 0 0 0 0.5,-0.5 v -5 a 0.5,0.5 0 0 0 -0.5,-0.5 h -0.5 v -1.5 c 0,-1.927 -1.573,-3.5 -3.5,-3.5 z m 0,1 c 1.387,0 2.5,1.113 2.5,2.5 v 1.5 h -5 v -1.5 c 0,-1.387 1.113,-2.5 2.5,-2.5 z m -0.5,6 h 1 v 2 h -1 v -1 z"
           fill="#ffffff"
           id="path17780"
           style="fill:url(#linearGradient863);fill-opacity:1" />
      </g>
    </g>
  </g>
</svg>
