<?xml version="1.0" encoding="UTF-8" standalone="no"?>
<!-- Created with Inkscape (http://www.inkscape.org/) -->

<svg
   width="12.932263mm"
   height="12.932263mm"
   viewBox="0 0 12.932263 12.932264"
   version="1.1"
   id="svg5"
   xml:space="preserve"
   inkscape:version="1.3 (0e150ed6c4, 2023-07-21)"
   sodipodi:docname="gimp-tool-dodge-symbolic.svg"
   xmlns:inkscape="http://www.inkscape.org/namespaces/inkscape"
   xmlns:sodipodi="http://sodipodi.sourceforge.net/DTD/sodipodi-0.dtd"
   xmlns:xlink="http://www.w3.org/1999/xlink"
   xmlns="http://www.w3.org/2000/svg"
   xmlns:svg="http://www.w3.org/2000/svg"><sodipodi:namedview
     id="namedview7"
     pagecolor="#ffffff"
     bordercolor="#666666"
     borderopacity="1.0"
     inkscape:showpageshadow="2"
     inkscape:pageopacity="0.0"
     inkscape:pagecheckerboard="0"
     inkscape:deskcolor="#d1d1d1"
     inkscape:document-units="mm"
     showgrid="false"
     inkscape:zoom="9.5144351"
     inkscape:cx="11.87669"
     inkscape:cy="35.997933"
     inkscape:current-layer="layer1"
     inkscape:window-width="1920"
     inkscape:window-height="1017"
     inkscape:window-x="-8"
     inkscape:window-y="-8"
     inkscape:window-maximized="1" /><defs
     id="defs2"><linearGradient
       id="linearGradient7093"
       inkscape:swatch="solid"><stop
         style="stop-color:#000000;stop-opacity:1;"
         offset="0"
         id="stop7091" /></linearGradient><linearGradient
       id="linearGradient7085"
       inkscape:swatch="solid"><stop
         style="stop-color:#000000;stop-opacity:1;"
         offset="0"
         id="stop7083" /></linearGradient><linearGradient
       id="linearGradient1673"
       inkscape:swatch="solid"><stop
         style="stop-color:#000000;stop-opacity:1;"
         offset="0"
         id="stop1671" /></linearGradient><linearGradient
       id="linearGradient1667"
       inkscape:swatch="solid"><stop
         style="stop-color:#000000;stop-opacity:1;"
         offset="0"
         id="stop1665" /></linearGradient><linearGradient
       id="linearGradient861"
       inkscape:swatch="solid"><stop
         style="stop-color:#404040;stop-opacity:1;"
         offset="0"
         id="stop859" /></linearGradient><linearGradient
       id="linearGradient855"
       inkscape:swatch="solid"><stop
         style="stop-color:#000000;stop-opacity:1;"
         offset="0"
         id="stop853" /></linearGradient><linearGradient
       id="linearGradient849"
       inkscape:swatch="solid"><stop
         style="stop-color:#bfbfbf;stop-opacity:1;"
         offset="0"
         id="stop847" /></linearGradient><rect
       x="34.894348"
       y="60.960003"
       width="65.374352"
       height="40.990349"
       id="rect36501" /><linearGradient
       inkscape:collect="always"
       xlink:href="#linearGradient849"
       id="linearGradient7127"
       gradientUnits="userSpaceOnUse"
       gradientTransform="matrix(3.8688393,0,0,3.8688393,-451.92336,-294.54198)"
       x1="157.09663"
       y1="101.50692"
       x2="158.87639"
       y2="101.50692" /><linearGradient
       inkscape:collect="always"
       xlink:href="#linearGradient849"
       id="linearGradient8727"
       gradientUnits="userSpaceOnUse"
       gradientTransform="matrix(3.8688393,0,0,3.8688393,-457.35964,-289.22604)"
       x1="157.09663"
       y1="101.50692"
       x2="158.87639"
       y2="101.50692" /><linearGradient
       inkscape:collect="always"
       xlink:href="#linearGradient849"
       id="linearGradient8769"
       gradientUnits="userSpaceOnUse"
       gradientTransform="matrix(3.8688393,0,0,3.8688393,-454.57756,-291.80019)"
       x1="157.09663"
       y1="101.50692"
       x2="158.87639"
       y2="101.50692" /></defs><g
     inkscape:label="gimp-tool-dodge"
     id="layer1"
     style="display:inline"
     transform="translate(-150.1862,-94.179346)"><path
       id="path7089-8"
       style="display:inline;opacity:0.25;fill:url(#linearGradient7127);fill-opacity:1;stroke:none;stroke-width:1.02261;stroke-linecap:square"
       d="m 159.30681,94.729059 a 3.4427869,3.4427869 0 0 0 -0.26612,0.01 3.4427869,3.4427869 0 0 0 -3.08414,2.62366 3.4427869,3.4427869 0 0 1 0.69761,-0.128309 3.4427869,3.4427869 0 0 1 0.26565,-0.01 3.4427869,3.4427869 0 0 1 3.41964,3.0965 l 0.0176,0.34643 a 3.4427869,3.4427869 0 0 1 -0.0984,0.80929 3.4427869,3.4427869 0 0 0 2.48537,-3.304643 l -0.0176,-0.346906 a 3.4427869,3.4427869 0 0 0 -3.41965,-3.096022 z m -2.55143,5.759601 a 3.4427869,3.4427869 0 0 0 0.22573,0.22573 3.4427869,3.4427869 0 0 0 -0.22573,-0.22573 z" /><path
       style="display:inline;opacity:1;fill:url(#linearGradient8727);fill-opacity:1;stroke:none;stroke-width:1.02261;stroke-linecap:square"
       id="path7089-7-4"
       sodipodi:type="arc"
       sodipodi:cx="153.86482"
       sodipodi:cy="103.48795"
       sodipodi:rx="3.4427869"
       sodipodi:ry="3.4427869"
       sodipodi:start="0"
       sodipodi:end="6.1823116"
       sodipodi:open="true"
       sodipodi:arc-type="arc"
       d="m 157.30761,103.48795 a 3.4427869,3.4427869 0 0 1 -3.35598,3.4417 3.4427869,3.4427869 0 0 1 -3.52522,-3.26813 3.4427869,3.4427869 0 0 1 3.1782,-3.60651 3.4427869,3.4427869 0 0 1 3.6855,3.08625" /><path
       id="path7089-7-6"
       style="display:inline;opacity:0.5;fill:url(#linearGradient8769);fill-opacity:1;stroke:none;stroke-width:1.02261;stroke-linecap:square"
       d="m 156.65252,97.470801 a 3.4427869,3.4427869 0 0 0 -0.26565,0.01 3.4427869,3.4427869 0 0 0 -3.04374,2.472541 3.4427869,3.4427869 0 0 1 0.57786,-0.09552 3.4427869,3.4427869 0 0 1 3.68576,3.086048 l 0.0176,0.3469 a 3.4427869,3.4427869 0 0 1 -0.1397,0.96089 3.4427869,3.4427869 0 0 0 2.60512,-3.33791 l -0.0176,-0.34643 a 3.4427869,3.4427869 0 0 0 -3.41965,-3.0965 z" /></g></svg>
