<?xml version="1.0" encoding="UTF-8" standalone="no"?>
<!-- Created with Inkscape (http://www.inkscape.org/) -->

<svg
   width="6.2170801mm"
   height="5.0752215mm"
   viewBox="0 0 6.2170801 5.0752215"
   version="1.1"
   id="svg5"
   inkscape:version="1.3 (0e150ed6c4, 2023-07-21)"
   sodipodi:docname="gimp-tool-rotate.svg"
   xmlns:inkscape="http://www.inkscape.org/namespaces/inkscape"
   xmlns:sodipodi="http://sodipodi.sourceforge.net/DTD/sodipodi-0.dtd"
   xmlns="http://www.w3.org/2000/svg"
   xmlns:svg="http://www.w3.org/2000/svg">
  <sodipodi:namedview
     id="namedview7"
     pagecolor="#ffffff"
     bordercolor="#666666"
     borderopacity="1.0"
     inkscape:pageshadow="2"
     inkscape:pageopacity="0.0"
     inkscape:pagecheckerboard="0"
     inkscape:document-units="mm"
     showgrid="false"
     inkscape:zoom="20.496746"
     inkscape:cx="9.4649171"
     inkscape:cy="12.221452"
     inkscape:window-width="1920"
     inkscape:window-height="1017"
     inkscape:window-x="-8"
     inkscape:window-y="-8"
     inkscape:window-maximized="1"
     inkscape:current-layer="layer1"
     inkscape:showpageshadow="2"
     inkscape:deskcolor="#d1d1d1" />
  <defs
     id="defs2" />
  <g
     inkscape:label="gimp-tool-rotate"
     id="layer1"
     transform="translate(405.33497,94.551974)">
    <path
       style="fill:#e5e5e5;fill-opacity:1;stroke:none;stroke-width:0.264583px;stroke-linecap:butt;stroke-linejoin:miter;stroke-opacity:1"
       d="m -405.33497,-92.273205 h 1.61357 l -0.77171,1.336651 z"
       id="path1347" />
    <path
       style="color:#000000;fill:#e5e5e5;-inkscape-stroke:none"
       d="m -402.50195,-94.548828 c -0.53868,0.02835 -0.96385,0.253833 -1.28125,0.537109 -0.63481,0.566552 -0.86524,1.365235 -0.86524,1.365235 l 0.25391,0.07422 c 0,0 0.22143,-0.73733 0.78711,-1.242187 0.28284,-0.252428 0.64611,-0.445807 1.11914,-0.470703 0.47303,-0.0249 1.06263,0.121647 1.79492,0.576172 l 0.14063,-0.226563 c -0.7651,-0.47489 -1.41055,-0.641633 -1.94922,-0.613281 z"
       id="path1423" />
    <path
       style="fill:#e5e5e5;fill-opacity:1;stroke:none;stroke-width:0.264583px;stroke-linecap:butt;stroke-linejoin:miter;stroke-opacity:1"
       d="m -399.11789,-91.755517 -1.61357,-10e-7 0.77172,-1.336654 z"
       id="path1347-6" />
    <path
       style="color:#000000;fill:#e5e5e5;-inkscape-stroke:none"
       d="m -400.05859,-91.457031 c 0,0 -0.22143,0.73733 -0.78711,1.242187 -0.28285,0.252429 -0.64611,0.445807 -1.11914,0.470703 -0.47304,0.0249 -1.06264,-0.119694 -1.79493,-0.574218 l -0.13867,0.224609 c 0.7651,0.47489 1.41054,0.641633 1.94922,0.613281 0.53868,-0.02835 0.96189,-0.253833 1.2793,-0.537109 0.63481,-0.566552 0.86523,-1.365234 0.86523,-1.365234 z"
       id="path1423-6" />
    <rect
       style="fill:#c47f77;fill-opacity:1;stroke:#c47f77;stroke-width:0.235;stroke-linecap:square;stroke-linejoin:miter;stroke-dasharray:none;stroke-opacity:1;paint-order:stroke markers fill"
       id="rect900"
       width="1.3167051"
       height="1.3131123"
       x="-222.15479"
       y="-348.77899"
       transform="rotate(-44.639082)" />
  </g>
</svg>
