<?xml version="1.0" encoding="UTF-8" standalone="no"?>
<!-- Created with Inkscape (http://www.inkscape.org/) -->

<svg
   width="8.7306604mm"
   height="7.9307079mm"
   viewBox="0 0 8.7306604 7.9307079"
   version="1.1"
   id="svg16948"
   xml:space="preserve"
   inkscape:version="1.3 (0e150ed6c4, 2023-07-21)"
   sodipodi:docname="gimp-tool-ink-symbolic.svg"
   xmlns:inkscape="http://www.inkscape.org/namespaces/inkscape"
   xmlns:sodipodi="http://sodipodi.sourceforge.net/DTD/sodipodi-0.dtd"
   xmlns:xlink="http://www.w3.org/1999/xlink"
   xmlns="http://www.w3.org/2000/svg"
   xmlns:svg="http://www.w3.org/2000/svg"><sodipodi:namedview
     id="namedview16950"
     pagecolor="#ffffff"
     bordercolor="#666666"
     borderopacity="1.0"
     inkscape:showpageshadow="2"
     inkscape:pageopacity="0.0"
     inkscape:pagecheckerboard="0"
     inkscape:deskcolor="#d1d1d1"
     inkscape:document-units="mm"
     showgrid="false"
     inkscape:zoom="13.455443"
     inkscape:cx="10.999266"
     inkscape:cy="21.218179"
     inkscape:current-layer="svg16948"
     inkscape:window-width="1920"
     inkscape:window-height="1017"
     inkscape:window-x="-8"
     inkscape:window-y="-8"
     inkscape:window-maximized="1" /><defs
     id="defs16945"><linearGradient
       id="linearGradient865"
       inkscape:swatch="solid"><stop
         style="stop-color:#95dab2;stop-opacity:1;"
         offset="0"
         id="stop863" /></linearGradient><linearGradient
       id="linearGradient859"
       inkscape:swatch="solid"><stop
         style="stop-color:#ffffff;stop-opacity:1;"
         offset="0"
         id="stop857" /></linearGradient><linearGradient
       id="linearGradient853"
       inkscape:swatch="solid"><stop
         style="stop-color:#ffffff;stop-opacity:1;"
         offset="0"
         id="stop851" /></linearGradient><linearGradient
       id="linearGradient847"
       inkscape:swatch="solid"><stop
         style="stop-color:#bfbfbf;stop-opacity:1;"
         offset="0"
         id="stop845" /></linearGradient><linearGradient
       inkscape:collect="always"
       xlink:href="#linearGradient847"
       id="linearGradient849"
       x1="-128.65682"
       y1="23.971491"
       x2="-121.14759"
       y2="23.971491"
       gradientUnits="userSpaceOnUse" /><linearGradient
       inkscape:collect="always"
       xlink:href="#linearGradient847"
       id="linearGradient855"
       x1="-126.61434"
       y1="24.668068"
       x2="-124.87341"
       y2="24.668068"
       gradientUnits="userSpaceOnUse" /><linearGradient
       inkscape:collect="always"
       xlink:href="#linearGradient847"
       id="linearGradient861"
       x1="-128.49858"
       y1="26.054356"
       x2="-125.5363"
       y2="26.054356"
       gradientUnits="userSpaceOnUse" /><linearGradient
       inkscape:collect="always"
       xlink:href="#linearGradient847"
       id="linearGradient867"
       x1="-128.66919"
       y1="27.745438"
       x2="-119.93853"
       y2="27.745438"
       gradientUnits="userSpaceOnUse" /></defs><g
     inkscape:label="gimp-tool-ink"
     id="layer1"
     transform="translate(128.66919,-20.198173)"><path
       style="color:#000000;fill:url(#linearGradient849);-inkscape-stroke:none"
       d="m -122.94922,20.199219 c -0.28017,-0.01179 -0.53677,0.121417 -0.79492,0.292968 -0.25815,0.171552 -0.5158,0.395139 -0.74805,0.617188 -0.41487,0.396646 -0.67507,0.712527 -0.74219,0.792969 -0.10561,-0.02319 -0.36187,-0.08724 -0.79492,-0.08984 -0.51291,-0.0031 -1.14736,0.08272 -1.52734,0.556641 -0.53877,0.671978 -0.7718,1.926279 -0.91797,3.041015 -0.14616,1.114736 -0.17383,2.080078 -0.17383,2.080078 l -0.008,0.253907 0.25195,-0.01367 c 0,0 1.01886,-0.06022 2.18555,-0.275391 1.16669,-0.215171 2.48659,-0.55491 3.1543,-1.261719 0.3736,-0.395476 0.40807,-0.973315 0.38281,-1.439453 -0.0205,-0.378141 -0.079,-0.579249 -0.10547,-0.6875 0.0901,-0.06479 0.35222,-0.248293 0.71289,-0.578125 0.20899,-0.191114 0.42127,-0.406823 0.5918,-0.630859 0.17053,-0.224036 0.30759,-0.45443 0.32812,-0.714844 0.0431,-0.547335 -0.12489,-1.032468 -0.45117,-1.376953 -0.32628,-0.344485 -0.8011,-0.54357 -1.34375,-0.566406 z m -0.0195,0.464843 c 0.44184,0.01859 0.79195,0.175414 1.02539,0.421875 0.23344,0.246462 0.36044,0.586499 0.32617,1.021485 -0.008,0.100454 -0.0924,0.279618 -0.23633,0.46875 -0.14396,0.189131 -0.33904,0.389017 -0.53515,0.568359 -0.39223,0.358685 -0.7793,0.632813 -0.7793,0.632813 l -0.13281,0.09375 0.041,0.15625 c 0,0 0.091,0.340584 0.11329,0.751953 0.0223,0.411368 -0.0423,0.867607 -0.25782,1.095703 -0.49389,0.522811 -1.76427,0.913875 -2.89843,1.123047 -0.99049,0.182674 -1.64968,0.220235 -1.85743,0.234375 0.008,-0.207716 0.023,-0.819792 0.14649,-1.761719 0.14268,-1.088155 0.43047,-2.326754 0.81836,-2.810547 0.22949,-0.286233 0.71252,-0.385523 1.16406,-0.382812 0.45154,0.0027 0.83398,0.09375 0.83398,0.09375 l 0.14258,0.03516 0.0918,-0.113281 c 0,0 0.35257,-0.426604 0.79297,-0.847657 0.2202,-0.210526 0.4624,-0.419417 0.68359,-0.566406 0.22119,-0.146988 0.42441,-0.218764 0.51758,-0.214844 z"
       id="path18596" /><path
       style="fill:none;stroke:url(#linearGradient861);stroke-width:0.465;stroke-linecap:round;stroke-linejoin:miter;stroke-dasharray:none;stroke-opacity:1"
       d="m -128.26608,27.352157 2.49728,-2.595603"
       id="path18694"
       sodipodi:nodetypes="cc" /><ellipse
       style="fill:url(#linearGradient855);fill-opacity:1;stroke:none;stroke-width:0.474572;stroke-linecap:round;stroke-dasharray:none;stroke-opacity:1;paint-order:markers stroke fill"
       id="path18748"
       cx="-125.74387"
       cy="24.668068"
       rx="0.87046653"
       ry="0.87503308" /><path
       style="opacity:0.5;fill:url(#linearGradient867);fill-opacity:1;stroke:none;stroke-width:0.264583px;stroke-linecap:butt;stroke-linejoin:miter;stroke-opacity:1"
       d="m -128.66919,27.991227 0.82587,-0.07865 6.13506,-0.550582 1.76973,0.727556 -6.70531,0.03933 z"
       id="path19010" /></g></svg>
