<?xml version="1.0" encoding="UTF-8" standalone="no"?>
<!-- Created with Inkscape (http://www.inkscape.org/) -->

<svg
   width="32.893539mm"
   height="30.463943mm"
   viewBox="0 0 32.89354 30.463946"
   version="1.1"
   id="svg5"
   xml:space="preserve"
   inkscape:version="1.2.2 (732a01da63, 2022-12-09, custom)"
   sodipodi:docname="gimp-tool-threshold.svg"
   xmlns:inkscape="http://www.inkscape.org/namespaces/inkscape"
   xmlns:sodipodi="http://sodipodi.sourceforge.net/DTD/sodipodi-0.dtd"
   xmlns="http://www.w3.org/2000/svg"
   xmlns:svg="http://www.w3.org/2000/svg"><sodipodi:namedview
     id="namedview7"
     pagecolor="#ffffff"
     bordercolor="#666666"
     borderopacity="1.0"
     inkscape:showpageshadow="2"
     inkscape:pageopacity="0.0"
     inkscape:pagecheckerboard="0"
     inkscape:deskcolor="#d1d1d1"
     inkscape:document-units="mm"
     showgrid="false"
     inkscape:zoom="4.7572176"
     inkscape:cx="70.839728"
     inkscape:cy="65.269245"
     inkscape:current-layer="layer1" /><defs
     id="defs2"><rect
       x="34.894348"
       y="60.960003"
       width="65.374352"
       height="40.990349"
       id="rect36501" /></defs><g
     inkscape:label="Layer 1"
     inkscape:groupmode="layer"
     id="layer1"
     style="display:inline"
     transform="translate(-175.74725,-82.376242)"><text
       xml:space="preserve"
       transform="matrix(0.26458333,0,0,0.26458333,136.15269,48.132704)"
       id="text36499"
       style="font-size:40px;line-height:1.25;font-family:'Blender Mono I18n';-inkscape-font-specification:'Blender Mono I18n';white-space:pre;shape-inside:url(#rect36501);display:inline" /><rect
       style="display:inline;fill:#303030;fill-opacity:1;stroke:#ffffff;stroke-width:1.297;stroke-linecap:square;stroke-linejoin:round;stroke-dasharray:none;stroke-dashoffset:2.20346;stroke-opacity:1;paint-order:markers stroke fill"
       id="rect28619-6"
       width="28.443914"
       height="29.166943"
       x="177.96797"
       y="83.024742"
       ry="2.202167" /><rect
       style="display:inline;fill:#246283;fill-opacity:1;stroke:none;stroke-width:0.812654;stroke-linecap:square;stroke-linejoin:miter;stroke-dasharray:none;stroke-dashoffset:2.20346;stroke-opacity:1;paint-order:markers stroke fill"
       id="rect29296-5"
       width="28.422314"
       height="9.6197767"
       x="177.97421"
       y="85.016289"
       ry="0.03471154" /><rect
       style="display:inline;fill:#246283;fill-opacity:1;stroke:none;stroke-width:0.865;stroke-linecap:square;stroke-linejoin:miter;stroke-dasharray:none;stroke-dashoffset:2.20346;stroke-opacity:1;paint-order:markers stroke fill"
       id="rect29764-6"
       width="28.432209"
       height="4.3347778"
       x="177.99573"
       y="83.012062"
       ry="2.0985661"
       rx="1.9857808" /><rect
       style="display:inline;fill:#1a3b4c;fill-opacity:1;stroke:none;stroke-width:0.865;stroke-linecap:square;stroke-linejoin:miter;stroke-dasharray:none;stroke-dashoffset:2.20346;stroke-opacity:1;paint-order:markers stroke fill"
       id="rect29766-4"
       width="28.480345"
       height="1.0618401"
       x="177.9615"
       y="94.621231" /><path
       style="display:inline;fill:none;stroke:#ffffff;stroke-width:0.548686;stroke-linecap:round;stroke-linejoin:miter;stroke-dasharray:none;stroke-opacity:1"
       d="m 180.84628,87.364536 2.67702,2.677015 2.64457,-2.644566"
       id="path30565-9" /><g
       aria-label="Thr"
       transform="scale(0.98080343,1.0195723)"
       id="text30621-9"
       style="font-size:8.54162px;line-height:1.25;font-family:'Blender Mono I18n';-inkscape-font-specification:'Blender Mono I18n';display:inline;fill:#ffffff;stroke-width:0.320311"><path
         d="m 193.03461,83.134568 h 5.26761 v 0.709021 h -2.21048 v 5.517854 h -0.84666 v -5.517854 h -2.21047 z"
         id="path9285" /><path
         d="m 202.96507,86.542041 v 2.819402 h -0.76741 v -2.794378 q 0,-0.663144 -0.25858,-0.99263 -0.25858,-0.329486 -0.77575,-0.329486 -0.62144,0 -0.98012,0.396218 -0.35868,0.396217 -0.35868,1.080214 v 2.640062 h -0.77158 v -6.48963 h 0.77158 v 2.544135 q 0.27527,-0.421242 0.64646,-0.629778 0.37536,-0.208535 0.86334,-0.208535 0.80494,0 1.21784,0.500485 0.4129,0.496315 0.4129,1.463921 z"
         id="path9287" /><path
         d="m 207.20252,85.407607 q -0.12929,-0.07507 -0.28361,-0.108439 -0.15015,-0.03754 -0.33366,-0.03754 -0.65063,0 -1.00097,0.425412 -0.34617,0.421242 -0.34617,1.213678 v 2.460721 h -0.77158 v -4.671199 h 0.77158 v 0.725704 q 0.2419,-0.425413 0.62978,-0.629778 0.38788,-0.208535 0.94258,-0.208535 0.0793,0 0.17517,0.01251 0.0959,0.0083 0.21271,0.0292 z"
         id="path9289" /></g><circle
       style="display:inline;fill:#a1a1a1;fill-opacity:1;stroke:#1c1c20;stroke-width:0.850228;stroke-linecap:round;stroke-linejoin:miter;stroke-dasharray:none;stroke-dashoffset:2.20346;stroke-opacity:1;paint-order:markers stroke fill"
       id="path31001-4"
       cx="206.64566"
       cy="98.247818"
       r="1.5700101" /><circle
       style="display:inline;fill:#a1a1a1;fill-opacity:1;stroke:#1c1c20;stroke-width:0.850228;stroke-linecap:round;stroke-linejoin:miter;stroke-dasharray:none;stroke-dashoffset:2.20346;stroke-opacity:1;paint-order:markers stroke fill"
       id="path31001-9-4"
       cx="177.74237"
       cy="106.20109"
       r="1.5700101" /><circle
       style="display:inline;fill:#a1a1a1;fill-opacity:1;stroke:#1c1c20;stroke-width:0.850228;stroke-linecap:round;stroke-linejoin:miter;stroke-dasharray:none;stroke-dashoffset:2.20346;stroke-opacity:1;paint-order:markers stroke fill"
       id="path31001-9-4-8"
       cx="177.75935"
       cy="101.03373"
       r="1.5700101" /><g
       aria-label="&lt;&gt;"
       id="text36507-6"
       style="font-size:13.1344px;line-height:1.25;font-family:'Blender Mono I18n';-inkscape-font-specification:'Blender Mono I18n';display:inline;fill:#ffffff;stroke-width:0.328362"><path
         d="m 191.21579,101.44585 -6.61851,2.35368 6.61851,2.34084 v 1.16722 l -8.22183,-2.98218 v -1.0646 l 8.22183,-2.98218 z"
         id="path9280" /><path
         d="m 193.99915,101.44585 v -1.16722 l 8.22183,2.98218 v 1.0646 l -8.22183,2.98218 v -1.16722 l 6.60568,-2.34084 z"
         id="path9282" /></g></g></svg>
