<?xml version="1.0" encoding="UTF-8" standalone="no"?>
<svg
   viewBox="0 0 14 14"
   xml:space="preserve"
   version="1.1"
   id="svg38435"
   sodipodi:docname="gimp-layers.svg"
   width="14"
   height="14"
   inkscape:version="1.1.1 (3bf5ae0d25, 2021-09-20)"
   xmlns:inkscape="http://www.inkscape.org/namespaces/inkscape"
   xmlns:sodipodi="http://sodipodi.sourceforge.net/DTD/sodipodi-0.dtd"
   xmlns="http://www.w3.org/2000/svg"
   xmlns:svg="http://www.w3.org/2000/svg"><defs
   id="defs38439" /><sodipodi:namedview
   id="namedview38437"
   pagecolor="#ffffff"
   bordercolor="#666666"
   borderopacity="1.0"
   inkscape:pageshadow="2"
   inkscape:pageopacity="0.0"
   inkscape:pagecheckerboard="0"
   showgrid="false"
   inkscape:zoom="35.95"
   inkscape:cx="7.3435327"
   inkscape:cy="7.8025035"
   inkscape:window-width="1920"
   inkscape:window-height="1017"
   inkscape:window-x="-8"
   inkscape:window-y="-8"
   inkscape:window-maximized="1"
   inkscape:current-layer="svg38435" />
    <g
   fill="#ffffff"
   id="g38433"
   style="fill:#e5e5e5;fill-opacity:1"
   transform="translate(-3,-3)">
        <path
   fill="#ffffff"
   d="m 48.5,536 a 0.5,0.5 0 0 0 -0.5,0.5 v 2 a 0.5,0.5 0 0 0 0.5,0.5 h 4 a 0.5,0.5 0 0 0 0.5,-0.5 v -2 A 0.5,0.5 0 0 0 52.5,536 Z m 7,6 a 0.5,0.5 0 0 0 -0.5,0.5 v 2 a 0.5,0.5 0 0 0 0.5,0.5 h 6 a 0.5,0.5 0 0 0 0.5,-0.5 v -2 A 0.5,0.5 0 0 0 61.5,542 Z m 0,5 a 0.5,0.5 0 0 0 -0.5,0.5 v 2 a 0.5,0.5 0 0 0 0.5,0.5 h 6 a 0.5,0.5 0 0 0 0.5,-0.5 v -2 A 0.5,0.5 0 0 0 61.5,547 Z"
   transform="translate(-45,-533)"
   id="path38429"
   style="fill:#e5e5e5;fill-opacity:1" />
        <path
   fill="#ffffff"
   d="m 50,540 v 8.5 a 0.5,0.5 0 0 0 0.5,0.5 H 54 v -1 h -3 v -4 h 3 v -1 h -3 v -3 z"
   transform="translate(-45,-533)"
   id="path38431"
   style="fill:#e5e5e5;fill-opacity:1" />
    </g>
</svg>
