<?xml version="1.0" encoding="UTF-8" standalone="no"?>
<!-- Created with Inkscape (http://www.inkscape.org/) -->

<svg
   width="6.1374841mm"
   height="6.2548542mm"
   viewBox="0 0 6.1374841 6.2548542"
   version="1.1"
   id="svg5"
   inkscape:version="1.3 (0e150ed6c4, 2023-07-21)"
   sodipodi:docname="gimp-tool-unified-transform.svg"
   xmlns:inkscape="http://www.inkscape.org/namespaces/inkscape"
   xmlns:sodipodi="http://sodipodi.sourceforge.net/DTD/sodipodi-0.dtd"
   xmlns:xlink="http://www.w3.org/1999/xlink"
   xmlns="http://www.w3.org/2000/svg"
   xmlns:svg="http://www.w3.org/2000/svg">
  <sodipodi:namedview
     id="namedview7"
     pagecolor="#ffffff"
     bordercolor="#666666"
     borderopacity="1.0"
     inkscape:pageshadow="2"
     inkscape:pageopacity="0.0"
     inkscape:pagecheckerboard="0"
     inkscape:document-units="mm"
     showgrid="false"
     inkscape:zoom="22.627417"
     inkscape:cx="8.1759221"
     inkscape:cy="12.705825"
     inkscape:window-width="1920"
     inkscape:window-height="1017"
     inkscape:window-x="-8"
     inkscape:window-y="-8"
     inkscape:window-maximized="1"
     inkscape:current-layer="layer1"
     inkscape:showpageshadow="2"
     inkscape:deskcolor="#d1d1d1" />
  <defs
     id="defs2">
    <linearGradient
       id="linearGradient883"
       inkscape:swatch="solid">
      <stop
         style="stop-color:#e5e5e5;stop-opacity:1;"
         offset="0"
         id="stop881" />
    </linearGradient>
    <linearGradient
       id="linearGradient869"
       inkscape:swatch="solid">
      <stop
         style="stop-color:#000000;stop-opacity:1;"
         offset="0"
         id="stop867" />
    </linearGradient>
    <linearGradient
       id="linearGradient855"
       inkscape:swatch="solid">
      <stop
         style="stop-color:#e5e5e5;stop-opacity:1;"
         offset="0"
         id="stop853" />
    </linearGradient>
    <linearGradient
       id="linearGradient849"
       inkscape:swatch="solid">
      <stop
         style="stop-color:#e5e5e5;stop-opacity:1;"
         offset="0"
         id="stop847" />
    </linearGradient>
    <linearGradient
       inkscape:collect="always"
       xlink:href="#linearGradient849"
       id="linearGradient887"
       x1="-15.094063"
       y1="20.238073"
       x2="-12.933184"
       y2="20.238073"
       gradientUnits="userSpaceOnUse"
       gradientTransform="matrix(1.1394508,0,0,1.1394508,1.9542111,-2.8550294)" />
    <linearGradient
       inkscape:collect="always"
       xlink:href="#linearGradient849"
       id="linearGradient1"
       gradientUnits="userSpaceOnUse"
       x1="-14.68386"
       y1="17.741501"
       x2="-13.324305"
       y2="17.741501"
       gradientTransform="matrix(1.3529661,0,0,1.3529659,4.9334383,-6.3947847)" />
    <linearGradient
       inkscape:collect="always"
       xlink:href="#linearGradient849"
       id="linearGradient2"
       gradientUnits="userSpaceOnUse"
       gradientTransform="matrix(0,1.3529661,-1.3529659,0,12.53107,39.196031)"
       x1="-14.68386"
       y1="17.741501"
       x2="-13.324305"
       y2="17.741501" />
    <linearGradient
       inkscape:collect="always"
       xlink:href="#linearGradient849"
       id="linearGradient3"
       gradientUnits="userSpaceOnUse"
       gradientTransform="matrix(1.3529661,0,0,-1.3529659,4.9623945,46.804871)"
       x1="-14.68386"
       y1="17.741501"
       x2="-13.324305"
       y2="17.741501" />
    <linearGradient
       inkscape:collect="always"
       xlink:href="#linearGradient849"
       id="linearGradient4"
       gradientUnits="userSpaceOnUse"
       gradientTransform="matrix(0,1.3529661,1.3529659,0,-40.558287,39.148684)"
       x1="-14.68386"
       y1="17.741501"
       x2="-13.324305"
       y2="17.741501" />
  </defs>
  <g
     inkscape:label="gimp-tool-unified-transform"
     id="layer1"
     transform="translate(17.085284,-17.076421)">
    <path
       d="m -13.741409,22.988205 c -0.05825,0.116322 -0.114101,0.228326 -0.179864,0.34307 1.18873,0.01619 2.240586,-0.756294 2.704387,-1.842764 0.173263,-0.393139 0.266891,-0.758459 0.269223,-1.188221 -0.114894,0.06597 -0.225316,0.136688 -0.34021,0.202661 -0.07381,1.20968 -1.023179,2.252713 -2.227018,2.455892 -0.162294,0.02322 -0.118922,0.01791 -0.226518,0.02936 z"
       style="opacity:1;fill:#c47f77;stroke-linecap:square;stroke-dashoffset:2.20346;paint-order:markers stroke fill;fill-opacity:1"
       id="path23"
       sodipodi:nodetypes="ccccccc" />
    <path
       d="m -15.084716,23.128256 c 0.344657,0.134554 0.640519,0.203879 1.010536,0.203269 -0.06342,-0.11453 -0.131055,-0.228889 -0.194657,-0.34332 -1.229893,-0.06468 -2.218433,-1.083367 -2.405408,-2.28975 -0.02004,-0.16768 -0.03632,-0.228945 -0.03632,-0.228945 0,0 -0.280569,-0.164681 -0.339503,-0.198452 0.0519,1.027721 0.438654,2.277841 1.965349,2.857198 z"
       style="opacity:1;fill:#c47f77;stroke-linecap:square;stroke-dashoffset:2.20346;paint-order:markers stroke fill;fill-opacity:1"
       id="path17"
       sodipodi:nodetypes="cccccccc" />
    <path
       d="m -14.064219,17.078488 c -1.18873,-0.01619 -2.256003,0.756355 -2.719804,1.842825 -0.173263,0.393139 -0.26371,0.751902 -0.266042,1.181664 0.114894,-0.06597 0.227479,-0.11138 0.342373,-0.177353 0.07381,-1.20968 1.021969,-2.265263 2.225808,-2.468442 0.09386,-0.01668 0.191942,-0.03918 0.191942,-0.03918 0,0 0.07856,-0.154886 0.184382,-0.339521 z"
       style="opacity:1;fill:#c47f77;stroke-linecap:square;stroke-dashoffset:2.20346;paint-order:markers stroke fill;fill-opacity:1"
       id="path23-5"
       sodipodi:nodetypes="cccccccc" />
    <path
       d="m -10.947922,20.163571 c 0.01687,-1.253838 -0.791516,-2.435443 -1.968271,-2.882003 -0.344657,-0.134554 -0.676515,-0.20394 -1.046532,-0.20333 0.06342,0.11453 0.132891,0.21482 0.196493,0.329251 1.229893,0.06468 2.252593,1.097497 2.439568,2.30388 0.01294,0.108261 0.02958,0.252845 0.02958,0.252845 0.199856,0.11768 0.254579,0.145159 0.349162,0.199357 z"
       style="opacity:1;fill:#c47f77;stroke-linecap:square;stroke-dashoffset:2.20346;paint-order:markers stroke fill;fill-opacity:1"
       id="path17-8"
       sodipodi:nodetypes="ccccccc" />
    <path
       d="m -15.101425,19.117381 v 2.175579 h 2.175578 v -2.175579 z"
       style="fill:url(#linearGradient887);stroke-width:0.286968;stroke-linecap:square;stroke-dashoffset:2.20346;paint-order:markers stroke fill"
       id="path16" />
    <path
       id="path11"
       style="display:inline;fill:url(#linearGradient1);stroke-width:0.280442px"
       d="M -14.02914 17.078488 L -14.217759 17.420069 L -14.696283 18.285133 L -13.336676 18.285133 L -13.835353 17.415935 L -14.02914 17.078488 z " />
    <path
       d="m -14.19037,22.988205 0.01757,0.03152 c 0.0017,1.14e-4 0.0034,3.85e-4 0.0052,5.17e-4 l -0.01757,-0.03152 c -0.0017,-1.18e-4 -0.0034,-4.01e-4 -0.0052,-5.17e-4 z"
       style="display:inline;fill:url(#linearGradient3);stroke-width:0.280442px"
       id="path19" />
    <path
       id="path18"
       style="display:inline;fill:url(#linearGradient3);stroke-width:0.280442px"
       d="M -14.667344 22.125208 L -14.19037 22.988205 C -14.18867 22.988321 -14.187003 22.988604 -14.185203 22.988722 L -14.167633 23.020244 C -14.169333 23.020112 -14.171 23.019841 -14.1728 23.019727 L -14.000201 23.331853 L -13.821917 23.021278 L -13.802797 22.987688 L -13.307737 22.125208 L -14.667344 22.125208 z " />
    <path
       id="path5"
       style="display:inline;fill:url(#linearGradient2);stroke-width:0.280442px"
       d="M -12.148634 19.566192 L -12.148634 20.925798 L -11.292873 20.434872 L -10.948191 20.236952 C -10.948167 20.234652 -10.947693 20.232434 -10.947674 20.230234 L -11.287705 20.042131 L -12.148634 19.566192 z " />
    <path
       id="path27"
       style="display:inline;fill:url(#linearGradient4);stroke-width:0.280442px"
       d="M -15.878639 19.518649 L -16.707013 19.977019 L -17.051694 20.167705 L -17.085284 20.186309 L -17.052728 20.204912 L -16.70908 20.401799 L -15.878639 20.878256 L -15.878639 19.518649 z " />
  </g>
</svg>
