<?xml version="1.0" encoding="UTF-8" standalone="no"?>
<!-- Created with Inkscape (http://www.inkscape.org/) -->

<svg
   width="8.6587982mm"
   height="8.5472469mm"
   viewBox="0 0 8.6587983 8.5472477"
   version="1.1"
   id="svg5"
   xml:space="preserve"
   inkscape:version="1.3 (0e150ed6c4, 2023-07-21)"
   sodipodi:docname="gimp-tool-color-picker.svg"
   xmlns:inkscape="http://www.inkscape.org/namespaces/inkscape"
   xmlns:sodipodi="http://sodipodi.sourceforge.net/DTD/sodipodi-0.dtd"
   xmlns="http://www.w3.org/2000/svg"
   xmlns:svg="http://www.w3.org/2000/svg"><sodipodi:namedview
     id="namedview7"
     pagecolor="#ffffff"
     bordercolor="#666666"
     borderopacity="1.0"
     inkscape:showpageshadow="2"
     inkscape:pageopacity="0.0"
     inkscape:pagecheckerboard="0"
     inkscape:deskcolor="#d1d1d1"
     inkscape:document-units="mm"
     showgrid="false"
     inkscape:zoom="22.627417"
     inkscape:cx="15.357475"
     inkscape:cy="15.534252"
     inkscape:current-layer="svg5"
     inkscape:window-width="1920"
     inkscape:window-height="1017"
     inkscape:window-x="-8"
     inkscape:window-y="-8"
     inkscape:window-maximized="1" /><defs
     id="defs2"><rect
       x="34.894348"
       y="60.960003"
       width="65.374352"
       height="40.990349"
       id="rect36501" /></defs><g
     inkscape:label="gimp-tool-color-picker"
     id="layer1"
     style="display:inline"
     transform="translate(-88.346458,-116.59898)"><path
       style="fill:#ffffff;fill-opacity:1;stroke:none;stroke-width:0.264583px;stroke-linecap:butt;stroke-linejoin:miter;stroke-opacity:1"
       d="m 94.185793,117.84595 0.97331,-0.97331 c 0,0 0.71561,-0.68672 1.49122,0.11552 0.77561,0.80224 0.0383,1.60862 0.0383,1.60862 l -0.91768,0.86207 c 0,0 0.75806,0.42925 0.25077,1.01452 -0.50729,0.58527 -1.01551,-0.0134 -1.01551,-0.0134 l -2.07174,-2.00222 c 0,0 -0.37233,-0.34357 0.12442,-0.82085 0.49675,-0.47729 1.12696,0.20906 1.12696,0.20906 z"
       id="path46856"
       sodipodi:nodetypes="cczcczcczc" /><path
       style="color:#000000;fill:#ffffff;stroke-linecap:round;-inkscape-stroke:none"
       d="m 92.951172,118.93164 -3.275391,3.23438 c -0.09803,0.18376 -0.288745,0.50034 -0.675786,1.23438 -0.163753,0.31056 -0.326369,0.63053 -0.447266,0.89453 -0.06045,0.132 -0.11078,0.24862 -0.146484,0.34961 -0.0357,0.10099 -0.07747,0.15609 -0.05078,0.3086 l 0.0293,0.17578 0.179687,0.0156 c 0.09587,0.008 0.146995,-0.008 0.228516,-0.0273 0.08152,-0.0191 0.177299,-0.0471 0.287109,-0.082 0.219619,-0.0698 0.492263,-0.16918 0.78125,-0.28711 0.576099,-0.22345 1.121993,-0.5078 1.628908,-0.85957 l 3.236328,-3.23633 c 0.09034,-0.0907 0.09034,-0.2374 0,-0.32812 -0.09094,-0.0917 -0.239137,-0.0917 -0.330078,0 l -3.207031,3.20703 c -0.327164,0.25238 -0.948073,0.55833 -1.503906,0.78516 -0.328294,0.13397 -0.431179,0.17058 -0.755894,0.27739 0.142362,-0.33374 0.312439,-0.65521 0.480467,-0.97656 0.3159,-0.59912 0.626312,-1.14079 0.640625,-1.16602 l 3.228516,-3.1875 c 0.0922,-0.0904 0.0931,-0.23858 0.002,-0.33008 -0.09038,-0.0922 -0.238583,-0.0931 -0.330078,-0.002 z"
       id="path46858"
       sodipodi:nodetypes="cccscccccssccccccccccccc" /><path
       style="fill:#ffffff;fill-opacity:1;stroke:none;stroke-width:0.264583px;stroke-linecap:butt;stroke-linejoin:miter;stroke-opacity:1"
       d="m 91.402043,121.40168 h 1.68124 l -2.04502,2.07452 -1.82872,0.89469 0.98319,-1.82872 z"
       id="path46860" /></g></svg>
