<?xml version="1.0" encoding="UTF-8" standalone="no"?>
<svg
   viewBox="0 0 14.007 14.02175"
   xml:space="preserve"
   version="1.1"
   id="svg1497"
   sodipodi:docname="gtk-edit.svg"
   width="14.007"
   height="14.02175"
   inkscape:version="1.2.1 (9c6d41e410, 2022-07-14)"
   xmlns:inkscape="http://www.inkscape.org/namespaces/inkscape"
   xmlns:sodipodi="http://sodipodi.sourceforge.net/DTD/sodipodi-0.dtd"
   xmlns:xlink="http://www.w3.org/1999/xlink"
   xmlns="http://www.w3.org/2000/svg"
   xmlns:svg="http://www.w3.org/2000/svg"><defs
   id="defs1501"><linearGradient
     id="linearGradient792"
     inkscape:swatch="solid"><stop
       style="stop-color:#bfbfbf;stop-opacity:1;"
       offset="0"
       id="stop790" /></linearGradient><linearGradient
     inkscape:collect="always"
     xlink:href="#linearGradient792"
     id="linearGradient794"
     x1="2.997"
     y1="10.003875"
     x2="17.004"
     y2="10.003875"
     gradientUnits="userSpaceOnUse" /></defs><sodipodi:namedview
   id="namedview1499"
   pagecolor="#ffffff"
   bordercolor="#666666"
   borderopacity="1.0"
   inkscape:pageshadow="2"
   inkscape:pageopacity="0.0"
   inkscape:pagecheckerboard="0"
   showgrid="false"
   inkscape:zoom="35.95"
   inkscape:cx="5.9944367"
   inkscape:cy="6.9819193"
   inkscape:window-width="1920"
   inkscape:window-height="1017"
   inkscape:window-x="-8"
   inkscape:window-y="-8"
   inkscape:window-maximized="1"
   inkscape:current-layer="svg1497"
   inkscape:showpageshadow="2"
   inkscape:deskcolor="#d1d1d1" />
    <g
   fill="#ffffff"
   id="g1495"
   style="fill:url(#linearGradient794);fill-opacity:1"
   transform="translate(-2.997,-2.993)">
        <path
   transform="translate(-296.996,-554.007)"
   d="m 308.06,557 a 3.486,3.486 0 0 0 -1.06,2.5 c 0,1.5 0.75,2.5 2,3.145 v 6.855 c -0.029,2.029 3.029,2.029 3,0 v -6.853 c 1.29,-0.666 2,-1.647 2,-3.147 0,-0.979 -0.408,-1.864 -1.06,-2.5 H 312 v 3 l -1,1 h -1 l -1,-1 v -3 z m 1.94,12 h 1 v 1 h -1 z"
   fill="#ffffff"
   id="path1491"
   style="fill:url(#linearGradient794);fill-opacity:1" />
        <path
   fill="#ffffff"
   d="m 387,542 v -5.5 a 0.5,0.5 0 1 0 -1,0 v 5.5 z m 0.75,2 h 0.75 c 0.676,0.01 0.676,-1.01 0,-1 h -4 c -0.676,-0.01 -0.676,1.01 0,1 h 0.75 v 1 c -0.75,0 -1.25,0.5 -1.25,1.25 v 1.25 c 0,0.785 0.312,1.44 0.785,1.867 a 2.528,2.528 0 0 0 1.697,0.633 c 0.61,0 1.23,-0.204 1.711,-0.629 0.482,-0.424 0.807,-1.081 0.807,-1.871 v -1.25 c 0,-0.75 -0.5,-1.25 -1.25,-1.25 z"
   transform="translate(-380.996,-533.007)"
   id="path1493"
   style="fill:url(#linearGradient794);fill-opacity:1" />
    </g>
</svg>
