<?xml version="1.0" encoding="UTF-8" standalone="no"?>
<svg
   viewBox="0 0 16 16"
   xml:space="preserve"
   version="1.1"
   id="svg17524"
   sodipodi:docname="window-new.svg"
   width="16"
   height="16"
   inkscape:version="1.2.1 (9c6d41e410, 2022-07-14)"
   xmlns:inkscape="http://www.inkscape.org/namespaces/inkscape"
   xmlns:sodipodi="http://sodipodi.sourceforge.net/DTD/sodipodi-0.dtd"
   xmlns="http://www.w3.org/2000/svg"
   xmlns:svg="http://www.w3.org/2000/svg"><defs
   id="defs17528" /><sodipodi:namedview
   id="namedview17526"
   pagecolor="#ffffff"
   bordercolor="#666666"
   borderopacity="1.0"
   inkscape:showpageshadow="2"
   inkscape:pageopacity="0.0"
   inkscape:pagecheckerboard="0"
   inkscape:deskcolor="#d1d1d1"
   showgrid="false"
   inkscape:zoom="11.8"
   inkscape:cx="8.0084746"
   inkscape:cy="7.9661017"
   inkscape:current-layer="svg17524" />
    <path
   d="M 10.5,0 C 8.36,0 6.693,1.472 6.17,3.244 5.52,2.496 4.66,2 3.5,2 A 3.508,3.508 0 0 0 0,5.5 C 0,7.427 1.573,9 3.5,9 h 7 C 12.98,9 15,6.98 15,4.5 15,2.02 12.98,0 10.5,0 Z m 0,3 C 11.323,3 12,3.677 12,4.5 12,5.322 11.323,6 10.5,6 9.677,6 9,5.322 9,4.5 9,3.677 9.677,3 10.5,3 Z m -7,1 C 4.323,4 5,4.677 5,5.5 5,6.322 4.323,7 3.5,7 2.677,7 2,6.322 2,5.5 2,4.677 2.677,4 3.5,4 Z m 7,0 C 10.218,4 10,4.218 10,4.5 10,4.782 10.218,5 10.5,5 10.782,5 11,4.782 11,4.5 11,4.218 10.782,4 10.5,4 Z m -7,1 C 3.218,5 3,5.218 3,5.5 3,5.782 3.218,6 3.5,6 3.782,6 4,5.782 4,5.5 4,5.218 3.782,5 3.5,5 Z m 1,5 A 0.5,0.5 0 0 0 4,10.5 V 12 H 3 v -0.5 a 0.5,0.5 0 1 0 -1,0 v 2 c 0.009,0.657 0.99,0.657 1,0 V 13 h 1 v 1.5 c 0,0.132 0.053,0.26 0.146,0.353 l 1,1 A 0.5,0.5 0 0 0 5.5,16 h 5 A 0.5,0.5 0 0 0 11,15.5 v -5 A 0.5,0.5 0 0 0 10.5,10 Z m 10.984,1 a 0.47,0.47 0 0 0 -0.246,0.074 l -3.25,2 a 0.5,0.5 0 0 0 0,0.851 l 3.25,2 A 0.5,0.5 0 0 0 16,15.5 v -4 A 0.5,0.5 0 0 0 15.484,11 Z"
   fill="#ffffff"
   id="path17522" />
</svg>
