<?xml version="1.0" encoding="UTF-8" standalone="no"?>
<svg
   width="4.2329998mm"
   height="4.2329998mm"
   viewBox="0 0 4.2329998 4.2329998"
   version="1.1"
   id="svg33475"
   inkscape:version="1.2.1 (9c6d41e410, 2022-07-14)"
   sodipodi:docname="gimp-lock-content.svg"
   xmlns:inkscape="http://www.inkscape.org/namespaces/inkscape"
   xmlns:sodipodi="http://sodipodi.sourceforge.net/DTD/sodipodi-0.dtd"
   xmlns:xlink="http://www.w3.org/1999/xlink"
   xmlns="http://www.w3.org/2000/svg"
   xmlns:svg="http://www.w3.org/2000/svg"
   xmlns:rdf="http://www.w3.org/1999/02/22-rdf-syntax-ns#"
   xmlns:cc="http://creativecommons.org/ns#"
   xmlns:dc="http://purl.org/dc/elements/1.1/">
  <defs
     id="defs33469">
    <linearGradient
       id="linearGradient889"
       inkscape:swatch="solid">
      <stop
         style="stop-color:#bfbfbf;stop-opacity:1;"
         offset="0"
         id="stop887" />
    </linearGradient>
    <linearGradient
       id="linearGradient883"
       inkscape:swatch="solid">
      <stop
         style="stop-color:#95dab2;stop-opacity:1;"
         offset="0"
         id="stop881" />
    </linearGradient>
    <linearGradient
       id="linearGradient877"
       inkscape:swatch="solid">
      <stop
         style="stop-color:#bfbfbf;stop-opacity:1;"
         offset="0"
         id="stop875" />
    </linearGradient>
    <linearGradient
       id="linearGradient871"
       inkscape:swatch="solid">
      <stop
         style="stop-color:#bfbfbf;stop-opacity:1;"
         offset="0"
         id="stop869" />
    </linearGradient>
    <linearGradient
       id="linearGradient865"
       inkscape:swatch="solid">
      <stop
         style="stop-color:#000000;stop-opacity:1;"
         offset="0"
         id="stop863" />
    </linearGradient>
    <linearGradient
       id="linearGradient6951-1">
      <stop
         style="stop-color:#6e3d09;stop-opacity:1;"
         offset="0"
         id="stop6953-7" />
      <stop
         id="stop6959-6"
         offset="0.24242425"
         style="stop-color:#ea8113;stop-opacity:1;" />
      <stop
         style="stop-color:#5c3307;stop-opacity:1;"
         offset="0.62121212"
         id="stop6961-0" />
      <stop
         style="stop-color:#e07c12;stop-opacity:1;"
         offset="1"
         id="stop6955-99" />
    </linearGradient>
    <linearGradient
       id="linearGradient6939-9">
      <stop
         style="stop-color:#bdbdbd;stop-opacity:1;"
         offset="0"
         id="stop6941-8" />
      <stop
         id="stop6947-6"
         offset="0.33333334"
         style="stop-color:#e2e2e2;stop-opacity:1;" />
      <stop
         style="stop-color:#a3a3a3;stop-opacity:1;"
         offset="0.66666669"
         id="stop6949-8" />
      <stop
         style="stop-color:#dddddd;stop-opacity:1;"
         offset="1"
         id="stop6943-8" />
    </linearGradient>
    <linearGradient
       id="linearGradient6963">
      <stop
         id="stop6965"
         stop-color="#696969" />
      <stop
         offset="1"
         id="stop6967" />
    </linearGradient>
    <linearGradient
       inkscape:collect="always"
       xlink:href="#linearGradient871"
       id="linearGradient873"
       x1="48.225107"
       y1="50.108453"
       x2="50.077468"
       y2="50.108453"
       gradientUnits="userSpaceOnUse" />
    <linearGradient
       inkscape:collect="always"
       xlink:href="#linearGradient877"
       id="linearGradient879"
       x1="49.753304"
       y1="48.600695"
       x2="52.208538"
       y2="48.600695"
       gradientUnits="userSpaceOnUse" />
    <linearGradient
       inkscape:collect="always"
       xlink:href="#linearGradient889"
       id="linearGradient885"
       x1="48.580704"
       y1="50.878216"
       x2="52.103848"
       y2="50.878216"
       gradientUnits="userSpaceOnUse" />
    <linearGradient
       inkscape:collect="always"
       xlink:href="#linearGradient889"
       id="linearGradient891"
       x1="5.5"
       y1="10"
       x2="14.5"
       y2="10"
       gradientUnits="userSpaceOnUse" />
  </defs>
  <sodipodi:namedview
     id="base"
     pagecolor="#ffffff"
     bordercolor="#666666"
     borderopacity="1.0"
     inkscape:pageopacity="0.0"
     inkscape:pageshadow="2"
     inkscape:zoom="37.305988"
     inkscape:cx="5.96419"
     inkscape:cy="9.2478451"
     inkscape:document-units="mm"
     inkscape:current-layer="g99635"
     inkscape:document-rotation="0"
     showgrid="false"
     fit-margin-top="0"
     fit-margin-left="0"
     fit-margin-right="0"
     fit-margin-bottom="0"
     inkscape:window-width="1920"
     inkscape:window-height="1136"
     inkscape:window-x="0"
     inkscape:window-y="27"
     inkscape:window-maximized="1"
     inkscape:showpageshadow="2"
     inkscape:pagecheckerboard="0"
     inkscape:deskcolor="#d1d1d1" />
  <metadata
     id="metadata33472">
    <rdf:RDF>
      <cc:Work
         rdf:about="">
        <dc:format>image/svg+xml</dc:format>
        <dc:type
           rdf:resource="http://purl.org/dc/dcmitype/StillImage" />
        <dc:title />
      </cc:Work>
    </rdf:RDF>
  </metadata>
  <g
     inkscape:label="Layer 1"
     inkscape:groupmode="layer"
     id="layer1"
     transform="translate(136.45078,-40.843193)">
    <g
       id="g99635"
       transform="translate(-179.76245,-14.417255)"
       inkscape:export-filename="/home/aryeom/Desktop/GIMP-icon design/lock icons/gimp-tool-paintbrush-color.svg.png"
       inkscape:export-xdpi="96"
       inkscape:export-ydpi="96">
      <g
         id="g99388"
         transform="matrix(0.91512271,0,0,0.91512271,-0.78124755,11.982255)">
        <path
           style="display:inline;fill:url(#linearGradient873);fill-opacity:1;stroke:none;stroke-width:0.104101px;stroke-linecap:butt;stroke-linejoin:miter;stroke-opacity:1;opacity:0.5"
           d="m 48.225107,50.382992 c 0,0 0.122165,-0.05743 0.175063,-0.09847 0.279216,-0.21663 0.410478,-0.62161 0.733077,-0.765902 0.19654,-0.08791 0.456415,-0.124774 0.645544,-0.02188 0.112085,0.06098 0.236923,0.178656 0.273536,0.300888 0.05028,0.167847 0.02163,0.394829 -0.0547,0.552543 -0.100116,0.206846 -0.336719,0.342891 -0.558013,0.404833 -0.214959,0.06016 -0.45442,0.01205 -0.667428,-0.0547 -0.201169,-0.06305 -0.547077,-0.317312 -0.547077,-0.317312 z"
           id="path5209"
           sodipodi:nodetypes="csssssssc" />
        <path
           style="display:inline;fill:url(#linearGradient879);fill-opacity:1;stroke:none;stroke-width:0.104101px;stroke-linecap:butt;stroke-linejoin:miter;stroke-opacity:1;opacity:0.5"
           d="m 49.753304,49.352947 c 0,0 0.329088,0.0077 0.437403,0.440996 0,0 1.237992,-1.02598 1.70021,-1.679816 0.137252,-0.19415 0.406342,-0.562917 0.288527,-0.671771 -0.177557,-0.164052 -0.793364,0.290787 -1.061975,0.519851 -0.52468,0.447429 -1.364165,1.39074 -1.364165,1.39074 z"
           id="path5211"
           sodipodi:nodetypes="ccsssc" />
        <path
           style="display:inline;fill:url(#linearGradient885);fill-opacity:1;stroke:none;stroke-width:0.104101px;stroke-linecap:butt;stroke-linejoin:miter;stroke-opacity:1;opacity:0.25"
           d="m 48.580703,50.89724 c 0,0 0.435248,0.153745 0.672899,0.125825 0.231716,-0.02722 0.459139,-0.149639 0.645545,-0.289947 0.121585,-0.09152 0.215997,-0.250887 0.350126,-0.322773 0.160148,-0.08584 0.316453,-0.0768 0.497835,-0.08752 0.229831,-0.0136 0.463552,-0.0014 0.689311,0.04377 0.230717,0.04617 0.667428,0.22977 0.667428,0.22977 0,0 -0.419827,0.02389 -0.623663,0.07112 -0.196101,0.04544 -0.433183,0.144976 -0.618191,0.224299 -0.323054,0.13851 -0.504933,0.311532 -0.83702,0.426715 -0.165226,0.05731 -0.437837,0.120366 -0.612721,0.120356 -0.165582,-10e-6 -0.415259,-0.0638 -0.558012,-0.147709 -0.171716,-0.100923 -0.273537,-0.393891 -0.273537,-0.393891 z"
           id="path5221"
           sodipodi:nodetypes="cssssscsssssc" />
        <g
           fill="#ffffff"
           id="g17782"
           transform="matrix(0.28912334,0,0,0.28912334,48.579355,47.415059)"
           style="fill:url(#linearGradient891);fill-opacity:1">
          <path
             transform="translate(189.5,-448.5)"
             d="m -179.5,453 a 3.508,3.508 0 0 0 -3.5,3.5 v 1.5 h -0.5 a 0.5,0.5 0 0 0 -0.5,0.5 v 5 a 0.5,0.5 0 0 0 0.5,0.5 h 8 a 0.5,0.5 0 0 0 0.5,-0.5 v -5 a 0.5,0.5 0 0 0 -0.5,-0.5 h -0.5 v -1.5 c 0,-1.927 -1.573,-3.5 -3.5,-3.5 z m 0,1 c 1.387,0 2.5,1.113 2.5,2.5 v 1.5 h -5 v -1.5 c 0,-1.387 1.113,-2.5 2.5,-2.5 z m -0.5,6 h 1 v 2 h -1 v -1 z"
             fill="#ffffff"
             id="path17780"
             style="fill:url(#linearGradient891);fill-opacity:1" />
        </g>
      </g>
    </g>
  </g>
</svg>
