<?xml version="1.0" encoding="UTF-8" standalone="no"?>
<svg
   viewBox="0 0 13.99887 14.00015"
   xml:space="preserve"
   version="1.1"
   id="svg4524"
   sodipodi:docname="mod_mask.svg"
   width="13.99887"
   height="14.00015"
   inkscape:version="1.1.1 (3bf5ae0d25, 2021-09-20)"
   xmlns:inkscape="http://www.inkscape.org/namespaces/inkscape"
   xmlns:sodipodi="http://sodipodi.sourceforge.net/DTD/sodipodi-0.dtd"
   xmlns="http://www.w3.org/2000/svg"
   xmlns:svg="http://www.w3.org/2000/svg"><defs
   id="defs4528" /><sodipodi:namedview
   id="namedview4526"
   pagecolor="#ffffff"
   bordercolor="#666666"
   borderopacity="1.0"
   inkscape:pageshadow="2"
   inkscape:pageopacity="0.0"
   inkscape:pagecheckerboard="0"
   showgrid="false"
   inkscape:zoom="25.420489"
   inkscape:cx="10.739369"
   inkscape:cy="7.8480002"
   inkscape:window-width="1920"
   inkscape:window-height="1017"
   inkscape:window-x="-8"
   inkscape:window-y="-8"
   inkscape:window-maximized="1"
   inkscape:current-layer="svg4524" />
    <g
   fill="#ffffff"
   id="g4522"
   style="fill:#4772b3;fill-opacity:1"
   transform="translate(-3.0011302,-3)">
        <path
   fill="#ffffff"
   d="m 540.5,263 c -2.48,0 -4.5,2.02 -4.5,4.5 0,2.48 2.02,4.5 4.5,4.5 2.48,0 4.5,-2.02 4.5,-4.5 0,-2.48 -2.02,-4.5 -4.5,-4.5 z m 0,1 c 1.939,0 3.5,1.561 3.5,3.5 a 3.484,3.484 0 0 1 -2.018,3.162 5.002,5.002 0 0 0 -4.644,-4.644 A 3.484,3.484 0 0 1 540.5,264 Z"
   transform="translate(-528,-260)"
   id="path4518"
   style="fill:#4772b3;fill-opacity:1" />
        <path
   fill="#ffffff"
   d="m 657.502,-192.934 a 0.5,0.5 0 0 0 -0.227,0.051 5.72,5.72 0 0 0 -3.214,5.996 5.721,5.721 0 0 0 4.8,4.823 5.722,5.722 0 0 0 6.014,-3.184 0.500057,0.500057 0 1 0 -0.902,-0.432 4.715,4.715 0 0 1 -4.963,2.627 4.713,4.713 0 0 1 -1.309,-8.925 0.5,0.5 0 0 0 -0.199,-0.956 z"
   transform="translate(-651,199)"
   id="path4520"
   style="fill:#4772b3;fill-opacity:1" />
    </g>
</svg>
