<?xml version="1.0" encoding="UTF-8" standalone="no"?>
<svg
   viewBox="0 0 11.998 15"
   xml:space="preserve"
   version="1.1"
   id="svg19114"
   sodipodi:docname="gimp-tool-exposure.svg"
   width="11.998"
   height="15"
   inkscape:version="1.2.1 (9c6d41e410, 2022-07-14)"
   xmlns:inkscape="http://www.inkscape.org/namespaces/inkscape"
   xmlns:sodipodi="http://sodipodi.sourceforge.net/DTD/sodipodi-0.dtd"
   xmlns="http://www.w3.org/2000/svg"
   xmlns:svg="http://www.w3.org/2000/svg"><defs
   id="defs19118" /><sodipodi:namedview
   id="namedview19116"
   pagecolor="#ffffff"
   bordercolor="#666666"
   borderopacity="1.0"
   inkscape:showpageshadow="2"
   inkscape:pageopacity="0.0"
   inkscape:pagecheckerboard="0"
   inkscape:deskcolor="#d1d1d1"
   showgrid="false"
   inkscape:zoom="11.8"
   inkscape:cx="6.059322"
   inkscape:cy="7.4576271"
   inkscape:current-layer="svg19114" />
    <g
   fill="#ffffff"
   id="g19112"
   transform="translate(-4,-2.5)">
        <path
   fill="#ffffff"
   d="m 1028,1556 c -3.283,0 -6,2.441 -6,5.5 0,1.706 0.905,3.146 2.152,4.36 l 0.994,0.994 a 0.5,0.5 0 0 0 0.303,0.148 0.5,0.5 0 0 0 0.051,0.998 h 5 a 0.5,0.5 0 0 0 0.045,-0.998 0.5,0.5 0 0 0 0.309,-0.148 l 0.998,-0.999 c 1.212,-1.198 2.146,-2.651 2.146,-4.353 0,-3.059 -2.716,-5.5 -6,-5.5 z m 0,1 c 2.792,0 5,2.036 5,4.5 0,1.334 -0.743,2.549 -1.852,3.644 l -1,1 a 0.5,0.5 0 0 0 0.28,0.854 h -4.86 a 0.5,0.5 0 0 0 0.287,-0.854 l -1,-1 a 0.5,0.5 0 0 0 -0.01,-0.01 c -1.14,-1.108 -1.847,-2.286 -1.847,-3.64 0,-2.464 2.208,-4.5 5,-4.5 z m -2.5,12 a 0.5,0.5 0 1 0 0,1 h 1.5 v 0.5 a 0.5,0.5 0 0 0 0.5,0.5 h 1 a 0.5,0.5 0 0 0 0.5,-0.5 v -0.5 h 1.5 a 0.5,0.5 0 1 0 0,-1 z"
   transform="translate(-1018,-1553.5)"
   id="path19108" />
        <path
   fill="#ffffff"
   d="m 1025.49,1561.006 a 0.5,0.5 0 0 0 -0.344,0.848 l 0.854,0.853 v 1.543 a 0.5,0.5 0 1 0 1,0 V 1563 h 2 v 1.25 a 0.5,0.5 0 1 0 1,0 v -1.543 l 0.854,-0.854 a 0.5,0.5 0 0 0 -0.708,-0.706 l -0.853,0.853 h -2.586 l -0.854,-0.854 a 0.5,0.5 0 0 0 -0.363,-0.14 z"
   transform="translate(-1018,-1553.5)"
   id="path19110" />
    </g>
</svg>
