<?xml version="1.0" encoding="UTF-8" standalone="no"?>
<svg
   viewBox="0 0 14 14"
   xml:space="preserve"
   version="1.1"
   id="svg19389"
   sodipodi:docname="gimp-tool-shadows-highlights.svg"
   width="14"
   height="14"
   inkscape:version="1.2.1 (9c6d41e410, 2022-07-14)"
   xmlns:inkscape="http://www.inkscape.org/namespaces/inkscape"
   xmlns:sodipodi="http://sodipodi.sourceforge.net/DTD/sodipodi-0.dtd"
   xmlns="http://www.w3.org/2000/svg"
   xmlns:svg="http://www.w3.org/2000/svg"><defs
   id="defs19393" /><sodipodi:namedview
   id="namedview19391"
   pagecolor="#ffffff"
   bordercolor="#666666"
   borderopacity="1.0"
   inkscape:showpageshadow="2"
   inkscape:pageopacity="0.0"
   inkscape:pagecheckerboard="0"
   inkscape:deskcolor="#d1d1d1"
   showgrid="false"
   inkscape:zoom="11.8"
   inkscape:cx="7.0762712"
   inkscape:cy="7.0338983"
   inkscape:current-layer="svg19389" />
    <g
   fill="#ffffff"
   id="g19387"
   transform="translate(-3,-3)">
        <path
   fill="#ffffff"
   d="m 328,368 c -3.86,0 -7,3.14 -7,7 0,3.86 3.14,7 7,7 3.86,0 7,-3.14 7,-7 0,-3.86 -3.14,-7 -7,-7 z m 0,1 c 3.32,0 6,2.68 6,6 0,3.32 -2.68,6 -6,6 -3.32,0 -6,-2.68 -6,-6 0,-3.32 2.68,-6 6,-6 z"
   transform="translate(-318,-365)"
   id="path19381" />
        <path
   fill="#ffffff"
   d="m 327.129,369.967 a 1,1 0 0 0 -0.168,0.023 5.122,5.122 0 0 0 -3.977,3.996 1.0003912,1.0003912 0 1 0 1.961,0.397 3.11,3.11 0 0 1 2.422,-2.434 1,1 0 0 0 -0.238,-1.982 z"
   transform="translate(-318,-365)"
   id="path19383" />
        <path
   fill="#ffffff"
   d="m 332.496,373.096 a 0.4,0.4 0 0 0 -0.28,0.687 l 2,2 a 0.40057615,0.40057615 0 1 0 0.567,-0.566 l -2,-2 a 0.4,0.4 0 0 0 -0.287,-0.121 z m -0.75,2.25 a 0.4,0.4 0 0 0 -0.28,0.687 l 2,2 a 0.40057615,0.40057615 0 1 0 0.567,-0.566 l -2,-2 a 0.4,0.4 0 0 0 -0.287,-0.121 z m -1.25,1.75 a 0.4,0.4 0 0 0 -0.28,0.687 l 2,2 a 0.40057615,0.40057615 0 1 0 0.567,-0.566 l -2,-2 a 0.4,0.4 0 0 0 -0.287,-0.121 z m -1.75,1.25 a 0.4,0.4 0 0 0 -0.28,0.687 l 2,2 a 0.40057615,0.40057615 0 1 0 0.567,-0.566 l -2,-2 a 0.4,0.4 0 0 0 -0.287,-0.121 z m -2.236,0.75 a 0.4,0.4 0 0 0 -0.274,0.705 l 2,1.75 a 0.40037108,0.40037108 0 1 0 0.528,-0.602 l -2,-1.75 a 0.4,0.4 0 0 0 -0.254,-0.103 z"
   transform="translate(-318,-365)"
   id="path19385" />
    </g>
</svg>
