<?xml version="1.0" encoding="UTF-8" standalone="no"?>
<svg
   viewBox="0 0 14 14"
   xml:space="preserve"
   version="1.1"
   id="svg20690"
   sodipodi:docname="gimp-tool-path.svg"
   width="14"
   height="14"
   inkscape:version="1.2.1 (9c6d41e410, 2022-07-14)"
   xmlns:inkscape="http://www.inkscape.org/namespaces/inkscape"
   xmlns:sodipodi="http://sodipodi.sourceforge.net/DTD/sodipodi-0.dtd"
   xmlns="http://www.w3.org/2000/svg"
   xmlns:svg="http://www.w3.org/2000/svg"><defs
   id="defs20694" /><sodipodi:namedview
   id="namedview20692"
   pagecolor="#ffffff"
   bordercolor="#666666"
   borderopacity="1.0"
   inkscape:showpageshadow="2"
   inkscape:pageopacity="0.0"
   inkscape:pagecheckerboard="0"
   inkscape:deskcolor="#d1d1d1"
   showgrid="false"
   inkscape:zoom="33.37544"
   inkscape:cx="7.7751784"
   inkscape:cy="9.4530589"
   inkscape:current-layer="svg20690" />
    <path
   fill="#ffffff"
   d="M 4.5,0 A 0.5,0.5 0 0 0 4,0.5 v 3 A 0.5,0.5 0 0 0 4.5,4 h 3 A 0.5,0.5 0 0 0 8,3.5 V 2 H 8.5 C 9.793,2 10.926,2.352 11.719,3.01 12.512,3.667 13,4.624 13,6 13,7.583 12.219,9.055 10.76,10.164 9.3,11.273 7.16,12 4.5,12 H 4 V 10.5 A 0.5,0.5 0 0 0 3.5,10 h -3 A 0.5,0.5 0 0 0 0,10.5 v 3 A 0.5,0.5 0 0 0 0.5,14 h 3 A 0.5,0.5 0 0 0 4,13.5 V 13 H 4.5 C 7.34,13 9.7,12.227 11.365,10.96 13.031,9.696 14,7.918 14,6 14,4.376 13.373,3.083 12.357,2.24 11.342,1.398 9.974,1 8.5,1 H 8 V 0.5 A 0.5,0.5 0 0 0 7.5,0 Z M 5,1 H 7 V 3 H 5 Z M 1,11 h 2 v 2 H 1 Z"
   id="path20688"
   style="fill:#95dab2;fill-opacity:1" />
</svg>
