<?xml version="1.0" encoding="UTF-8" standalone="no"?>
<svg
   viewBox="0 0 14 14"
   xml:space="preserve"
   version="1.1"
   id="svg38728"
   sodipodi:docname="gimp-color-select.svg"
   width="14"
   height="14"
   inkscape:version="1.1.1 (3bf5ae0d25, 2021-09-20)"
   xmlns:inkscape="http://www.inkscape.org/namespaces/inkscape"
   xmlns:sodipodi="http://sodipodi.sourceforge.net/DTD/sodipodi-0.dtd"
   xmlns="http://www.w3.org/2000/svg"
   xmlns:svg="http://www.w3.org/2000/svg"><defs
   id="defs38732" /><sodipodi:namedview
   id="namedview38730"
   pagecolor="#ffffff"
   bordercolor="#666666"
   borderopacity="1.0"
   inkscape:pageshadow="2"
   inkscape:pageopacity="0.0"
   inkscape:pagecheckerboard="0"
   showgrid="false"
   inkscape:zoom="25.420489"
   inkscape:cx="4.7599399"
   inkscape:cy="6.8252031"
   inkscape:window-width="1920"
   inkscape:window-height="1017"
   inkscape:window-x="-8"
   inkscape:window-y="-8"
   inkscape:window-maximized="1"
   inkscape:current-layer="svg38728" />
    <g
   fill="#ffffff"
   id="g38726"
   style="fill:#a9575f;fill-opacity:1"
   transform="translate(-3,-3)">
        <g
   fill="#ffffff"
   id="g38724"
   style="fill:#a9575f;fill-opacity:1">
            <path
   fill="#ffffff"
   d="m 34,557 c -3.86,0 -7,3.14 -7,7 0,3.86 3.14,7 7,7 3.86,0 7,-3.14 7,-7 0,-3.86 -3.14,-7 -7,-7 z m 0,1 a 5.991,5.991 0 0 1 5.998,5.959 C 38.887,564.903 36.995,566 34,566 v 4 c -3.32,0 -6,-2.68 -6,-6 l 0.002,-0.043 C 29.113,564.901 31.003,566 34,566 Z"
   transform="translate(-24,-554)"
   id="path38722"
   style="fill:#a9575f;fill-opacity:1" />
        </g>
    </g>
</svg>
